<?xml version="1.0" encoding="UTF-8"?>
<svg id="Capa_1" xmlns="http://www.w3.org/2000/svg" version="1.1" viewBox="0 0 297 259.5">
  <!-- Generator: Adobe Illustrator 29.2.0, SVG Export Plug-In . SVG Version: 2.1.0 Build 108)  -->
  <defs>
    <style>
      .st0 {
        font-family: AgencyFB-Bold, 'Agency FB';
        font-size: 41px;
        font-weight: 700;
        stroke: #fff;
        stroke-miterlimit: 10;
        stroke-width: .2px;
      }
    </style>
  </defs>
  <text class="st0" transform="translate(55.7 352.9)"><tspan x="0" y="0">Circuito de Aragón</tspan></text>
  <path d="M47.2,33.5c5.1,0,10.8,3.6,12.5,5,1,.8,3.6,3.4,5.1,6.2-.8.5-2.3,1.4-5.1,2.4-6.8,2.4-9,9.6-8.2,15.8.2,2.8,1.8,29.3,2.4,39,.7,12.5,8.4,13.4,10.8,13.4s4.1-.7,5.4-1.4c1.4-.6,4.3-2,11.3-5.5,17.3-8.6,19.4-21.3,19.6-22.8h0c0,0,0-.1,0-.1,0,0,.7-6.3,3.8-14.7.2-.6.4-.8.4-.8,0,0,.3,0,.7,0,1.2,0,2.5.4,3.2.7l7.8,5.5h.2c0,.1.2.3.2.3,0,0,1.5,1.3,3,4.1,2.1,3.9,4.7,11.1,4.7,23.6,0,27.2,8.4,33.8,12.9,35.4,1.5.7,6.9,3.2,19,8.5,3.8,1.7,7.4,2.5,10.9,2.5,10.7,0,17.3-7.5,23.1-14.2,1-1.2,2.1-2.4,3.2-3.6,1.1-1.2,2.1-1.8,3-1.8,1.4,0,3,1.2,3.7,1.9h.1c.4.5,36.9,38.5,57.5,58.8,12.2,12,15.3,22.1,15.6,22.9v.2s.2.5.2.5c.2.7,1.4,5.9-2.8,12.8-2.3,3.9-8,4.7-12.3,4.7s-8.3-.8-9.6-1.1l-145.6-67.5h0c.6-1,1.6-2.6,3.1-5,2-3,4.4-7.4,3-12-.6-2-1.9-3.6-3.5-4.7-1.4-1-9.5-6.9-14.9-12.2-7.7-7.6-14.3-8.8-17.6-8.8-.9,0-1.6,0-2,.2-1.2.2-6.5,1.3-16,6.4-1.4.8-2.8,1.1-3.9,1.1-1.7,0-2.9-.9-3-1h0c0-.1-7.5-7.5-11.9-18.2-4.5-11-8.9-33-9.4-35.5-.7-5.9-2-21.9,0-29.3,1.8-6.5,6.5-8.9,7.3-9.3h0s.4-.2.4-.2c.4-.2,4.7-1.9,11.6-2.1h.2M47.2,26.5c-.1,0-.2,0-.4,0-9.1.2-14.4,2.7-14.4,2.7,0,0-8.5,3.3-11.5,13.9-3,10.6-.3,32.3-.3,32.3,0,0,4.8,24.6,9.8,37,5,12.4,13.5,20.6,13.5,20.6,0,0,2.9,3,7.9,3s4.5-.5,7.2-1.9c9.4-4.9,14-5.7,14-5.7,0,0,.3,0,.8,0,1.8,0,6.6.7,12.7,6.7,6.4,6.3,16,13.1,16,13.1,0,0,2.4,1-1.6,7s-4.5,7.6-4.5,7.6c0,0-1.3,5.4,4.4,7.6l146.2,67.8s5.5,1.5,12,1.5,14.4-1.6,18.3-8.1c6.4-10.6,3.4-18.8,3.4-18.8,0,0-3-11.9-17.5-26.2-20.8-20.5-57.4-58.6-57.4-58.6,0,0-3.8-4.2-8.8-4.2-2.5,0-5.3,1-8.1,4.1-6.7,7.3-12.1,15.5-21.2,15.5s-5.1-.6-8.1-1.9c-14.4-6.4-19.3-8.7-19.3-8.7,0,0-8.4-2-8.5-28.9,0-26.9-11.1-33.6-11.1-33.6l-8.3-5.8s-3.2-1.6-6.7-1.6c-3,0-6.1,1.2-7.7,5.5-3.5,9.4-4.2,16.3-4.2,16.3,0,0-1.3,10.2-15.8,17.4-9.1,4.5-11.1,5.4-11.2,5.5-.5.3-1.4.7-2.3.7-1.6,0-3.5-1.3-3.8-6.8-.6-10.3-2.4-39.3-2.4-39.3,0,0-1-6.9,3.6-8.5,4.6-1.6,12.1-5,9.8-10.6-2.4-5.6-7.6-10-7.6-10,0,0-8.1-6.6-17-6.6h0ZM67.3,107.4s-.5.2-.4.2,0,0,0,0c.2-.1.4-.2.4-.2h0Z"/>
</svg>