<?xml version="1.0" encoding="UTF-8"?>
<svg id="Capa_1" xmlns="http://www.w3.org/2000/svg" version="1.1" viewBox="0 0 297 259.5">
  <!-- Generator: Adobe Illustrator 29.2.0, SVG Export Plug-In . SVG Version: 2.1.0 Build 108)  -->
  <defs>
    <style>
      .st0 {
        font-family: AgencyFB-Bold, 'Agency FB';
        font-size: 41px;
        font-weight: 700;
        stroke: #fff;
        stroke-miterlimit: 10;
        stroke-width: .2px;
      }

      .st0, .st1 {
        fill: #010203;
      }
    </style>
  </defs>
  <text class="st0" transform="translate(203.7 -90.7)"><tspan x="0" y="0">Sachsenring</tspan></text>
  <text class="st0" transform="translate(425 202.7)"><tspan x="0" y="0">Brno</tspan></text>
  <path class="st1" d="M32.5,33.9c6.5,0,11.9,5.9,16.4,11.5,6.5,8,14.5,11.3,16.2,12l60.6,26.6c14.5,6.3,19.9,7.8,21.9,7.8,0,0,.2,0,.3,0,5.7,0,9.2-5.5,9.9-15.4,0-.1.8-10.5,2.2-20,.2-1.1.3-2.1,3.5-2.1,1.4,0,2.5.3,2.5.3s0,0,0,0h0s0,0,0,0l68.2,15.7s4.3,1,11.1,3.2c.4.1.9.3,1.4.4,2.4.7,3.4,1,4.5,3.5,1,2.4-1.2,6.2-2.4,7.7-.7.8-8.4,9.5-12.9,15.1-1.3,1.6-2.6,2.4-4.1,2.4s-.6,0-.8,0l-9.5-7.3c-1.3-1.3-4.6-4.1-9.3-4.1s-4.4.6-6.5,1.8c-6.2,3.6-6.7,10.7-4,15.9l.2.3.2.3c.6.8,13.7,20.2,18.4,26.6,2.1,2.9,5.1,4.4,8.4,4.4,6.6,0,12-6.4,13.7-8.6.3-.3,2.5-2.6,5.5-2.6h.2c6.2.2,8.1,6.3,8.4,7.6.4,2.7,3.8,25.2,8.8,57.8,3.6,23.7,4.1,29.6,4.1,30.7h0s0,.5,0,.5c0,0,0,2.2-1.2,4.2-1.5,2.8-4.3,4.2-8.7,4.4,0,0-.2,0-.2,0-5.8,0-9.9-7.1-9.9-7.2v-.2c-.1,0-.3-.2-.3-.2-8.8-13.4-19.3-29.6-20-30.5,0-.1-.2-.3-.3-.4-1-1.5-3.5-5.1-8.6-5.1s-8,2.1-13.6,6.8c-1.6,1.4-3.2,2-4.7,2-3.3,0-6.6-2.9-7.6-3.9h-.1c0-.1-.1-.2-.1-.2-13.2-13.6-56.2-58.1-57-58.9-2.7-2.6-5.6-3.9-8.6-3.9-3.9,0-7,2.3-8.6,4.4l-7,7.7c-.5.5-4.4,3.9-11.8,4.4-.2,0-.4,0-.7,0-6.3,0-10.7-6.4-10.7-6.4l-.2-.3-.2-.3C71.7,120.9,24.5,63.7,19.4,55.6c-4.3-6.9.2-14.6.4-14.8h0s0-.2,0-.2c.3-.4,2.5-3.7,7.6-5.7,1.7-.7,3.4-1,5-1h0M32.5,27.9c-2.2,0-4.6.4-7.2,1.4-7.7,3-10.6,8.3-10.6,8.3,0,0-6.8,10.9-.3,21.2,6.5,10.3,70.5,87.4,70.5,87.4,0,0,5.9,9.2,15.7,9.2s.7,0,1.1,0c10.4-.7,15.7-6.2,15.7-6.2l7.3-8.1s1.4-2.2,3.9-2.2c1.2,0,2.8.5,4.5,2.2.8.8,56.9,58.7,56.9,58.7,0,0,5.2,6,12.1,6s5.6-.9,8.6-3.4c4.8-4.1,7.8-5.4,9.7-5.4s3.2,1.9,4.1,3.1c.7.9,19.8,30.2,19.8,30.2,0,0,5.5,10.3,15.2,10.3s.3,0,.4,0c15.9-.5,15.7-14.7,15.7-14.7,0,0,.3-2.6-4.2-32-5.4-35-8.8-58.1-8.8-58.1,0,0-2.6-12.1-14.1-12.5-.1,0-.2,0-.3,0-6.2,0-10.2,4.9-10.2,4.9,0,0-4.7,6.3-9,6.3s-2.5-.6-3.6-2c-4.7-6.3-18.2-26.4-18.2-26.4,0,0-2.8-5.4,1.7-8,1.3-.7,2.4-1,3.5-1,3.2,0,5.3,2.5,5.3,2.5l10.7,8.2s1.5.8,3.7.8,5.7-.9,8.7-4.6c4.7-5.7,12.8-15,12.8-15,0,0,6.2-7.3,3.4-14-2.5-5.9-6.6-6.3-9.5-7.2-7.2-2.3-11.6-3.3-11.6-3.3l-68.2-15.7s-1.8-.5-4-.5c-3.6,0-8.5,1.2-9.4,7.2-1.5,9.8-2.3,20.5-2.3,20.5,0,0-.7,9.8-3.9,9.8s0,0,0,0c-3.3-.1-19.7-7.3-19.7-7.3l-60.7-26.7s-7.7-2.7-13.8-10.2c-4.9-6.1-11.7-13.7-21.1-13.7h0Z"/>
</svg>