<?xml version="1.0" encoding="UTF-8"?>
<svg id="Capa_1" xmlns="http://www.w3.org/2000/svg" version="1.1" viewBox="0 0 297 259.5">
  <!-- Generator: Adobe Illustrator 29.2.0, SVG Export Plug-In . SVG Version: 2.1.0 Build 108)  -->
  <defs>
    <style>
      .st0 {
        fill: #010203;
      }
    </style>
  </defs>
  <path class="st0" d="M265.2,30.4h0c3.2,0,3.3.9,3.5,1.4,1.1,4.9,0,6.2-.4,6.8-1.4,1.8-4.8,3.4-10.2,4.8-13.7,3.6-165.2,55.7-172.7,58.2-2.4.8-19.7,6.6-23.6,18.5-3,9.2-19.1,51.9-19.3,52.3l-.2.5v.5c-.3.9-1.6,8.5,2.9,14,1.9,2.3,5.5,5.1,11.9,5.1h0c9.4,0,14.4-1.5,16.8-2.5,6.9-1.2,18.4-7,18.7-21.6.2-11.1.6-16.7.8-18.6,0-.8,0-1.6,0-2.4-.3-3-.3-13.1,11.2-17.6,17.4-6.8,63.4-23.3,63.9-23.5h0s.4-.2.4-.2c.2,0,.8-.2,1.5-.2,3.8,0,8.1,3.1,12,8.6,1.5,2.1,3,4.2,4.4,6.1,4.3,6,8.1,11.1,10.1,15.3,1.6,3.2,1.6,4.7,1.3,5-.5.6-.9,1.3-1.4,1.9-3.1,4.3-3.8,5.1-7.1,5.1s-3.1-.2-5.1-.6c-2.2-.4-4.5-1-6.7-1.5-5.4-1.3-11.1-2.6-16.3-2.6s-11.8,2.1-15.7,6.2c-7.7,8.2-15.7,19.5-16,20l-1.4,2v.7c-1,1.3-4.3,4.6-14,10.1-17.9,10.1-77.1,45-77.7,45.3-.8.5-3,1.5-4.5,1.5s-.4,0-.5,0c-.2-.3-.9-1.6-.9-4.6-.2-17-3.3-122.9-3.3-123.9,0-2.6.6-5.9,1.4-6.8,7-1.6,122.6-28.4,134.1-32.3,11.3-3.8,94.1-29.5,95-29.8h0s0,0,0,0c0,0,3.4-1.1,6.7-1.1M265.2,24.4c-4.4,0-8.6,1.5-8.6,1.5,0,0-83.6,26-95.1,29.8-11.5,3.9-133.7,32.2-133.7,32.2-6.2,1.4-5.8,12.8-5.8,12.8,0,0,3,106.7,3.3,123.8.1,8.4,3.7,10.6,7.4,10.6s7.6-2.3,7.6-2.3c0,0,59.5-35,77.6-45.3,18.1-10.2,17.4-14.6,17.4-14.6,0,0,7.9-11.3,15.4-19.3,3-3.2,6.9-4.3,11.3-4.3,6.6,0,14.2,2.4,21.9,3.9,2.5.5,4.5.7,6.2.7,7.3,0,9.2-3.9,13.3-9.4,5-6.7-4.9-18.2-15.8-33.5-6.6-9.3-13-11.2-16.9-11.2s-4,.7-4,.7c0,0-46.4,16.7-64,23.6-15.8,6.2-15.3,20.7-15,23.7,0,.4,0,.8,0,1.3-.2,1.9-.6,7.6-.8,19-.2,14.3-14.5,15.9-14.5,15.9,0,0-3.6,2.3-15,2.3s0,0,0,0c-11.5,0-9.1-12-9.1-12,0,0,16.3-43.2,19.4-52.6,3.1-9.4,19.8-14.6,19.8-14.6,0,0,158.7-54.5,172.3-58.1,13.6-3.6,17.1-8.6,14.9-18.6-1-4.8-5.2-6.1-9.3-6.1h0Z"/>
</svg>