<?xml version="1.0" encoding="UTF-8"?>
<svg id="Capa_1" xmlns="http://www.w3.org/2000/svg" version="1.1" viewBox="0 0 297 259.5">
  <!-- Generator: Adobe Illustrator 29.2.0, SVG Export Plug-In . SVG Version: 2.1.0 Build 108)  -->
  <defs>
    <style>
      .st0 {
        font-family: AgencyFB-Bold, 'Agency FB';
        font-size: 41px;
        font-weight: 700;
        stroke: #fff;
        stroke-miterlimit: 10;
        stroke-width: .2px;
      }

      .st0, .st1 {
        fill: #010203;
      }

      .st2 {
        font-family: MyriadPro-Regular, 'Myriad Pro';
        font-size: 12px;
      }
    </style>
  </defs>
  <text class="st0" transform="translate(203.7 -90.7)"><tspan x="0" y="0">Sachsenring</tspan></text>
  <text class="st0" transform="translate(425 202.7)"><tspan x="0" y="0">Brno</tspan></text>
  <path class="st1" d="M135.1,29.7c0,0,.1,0,.2,0l21.8,6.9h0s.4,0,.4,0c.3.1.8.4.8.9,0,0,0,1-.1,1.3-.6,1.2-.8,1.7-.9,1.9-.7,1.1-2.1,3.7-1.3,6.9.5,2.3,2,4.1,4,5.3,1.3.7,27.9,14.1,33.3,16.8.3.1,28.6,14.5,43.1,36.1l.2.3.2.3c1.6,1.9,5.6,8,5.5,13.2-.3,9-.4,21.6-.4,21.8v.2s0,.2,0,.2c.2,4.2,3.5,7.5,7.7,7.5s1.4,0,2.1-.3c.2,0,.5-.1.8-.3.5-.2,1.3-.4,2-.4s.9,0,1.4.5c.2.5.7,1.8,1.3,4.5,1.2,5.5,15.4,67.4,16,70.1v.5c0,0,.3.6.3.6.4,1,.9,3.4,0,4.8-1.1,1.8-2.8,2.3-3.3,2.5-.2,0-.5,0-.8,0-1.2,0-1.9-.2-2.2-.3-1.1-1.1-1.7-2-2.1-2.6-.2-.9-.4-2.4-.6-3.9-.3-2.7-2.8-22.7-3-24.3-.5-4.5-4.1-7.9-8.5-7.9s-1.8.1-2.8.4c-.9.3-2.1.6-2.9.8-.4,0-.7-.2-.9-.2-.2-.2-.4-.4-.5-.6l-5.6-20.2-15.5-57.1-1.3-5.3h0c-.3-1.2-2.3-8-9.9-12.9-5.7-3.7-14.1-9.1-14.1-9.1h0s0,0,0,0l-11.8-7.4c-1.6-1.3-4.3-2.7-8.7-2.7-1.1,0-2.3,0-3.6.3-5.5.8-11.4,1.5-11.5,1.5h0s0,0,0,0l-10.3,1.3c-.4,0-2.1,0-3.3-1.2-3.2-3-7.7-8.1-8.2-8.7-.9-1.1-4-4.4-8.8-4.4-2,0-3.9.6-5.6,1.7-2.4,1.5-4,4.4-5.7,7.9-2.3,4.7-59.5,116.8-61.8,121.3-.3.6-3.2,5-8.7,5s-1.7,0-2.5-.3h-.5c0-.1-.2-.1-.2-.1-.5-.1-3-1-6.2-4.8l-11.8-14.2c-.5-.6-7.7-10.2-3.7-18,5.9-11.7,7.1-13.8,7.1-13.9l.2-.2.2-.6c.2-.4.8-1.3,2.1-1.5.3,0,.6,0,1,0,1.6,0,2.8.6,3.3.9h-.2c0,0,.5.2.5.2.3.3,1,1.1,1,2.7,0,5.7.1,19.3.1,19.5,0,3.9,2.6,8.3,7.6,9.1.5,0,1,.1,1.6.1,3.6,0,6.4-2,7.8-3.8l.4-.5.3-.6L132.7,32.6h0c0,0,0-.2,0-.2.4-.9,1.2-2.1,1.7-2.7.2,0,.4,0,.5,0M60,198h0s0,0,0,0h0M270.5,231.7h-.2s0,0,0,0h.2M135.1,22.7c-.6,0-1.4,0-2.3.2-3.4.4-6.3,6.6-6.3,6.6L53,173.7s-.9,1.1-2.3,1.1-.3,0-.4,0c-1.7-.3-1.7-2.2-1.7-2.2,0,0,0-13.7-.1-19.5,0-5.7-4-8.4-4-8.4,0,0-3.1-2.4-7.6-2.4-.7,0-1.4,0-2.1.2-5.6.9-7.5,5.9-7.5,5.9,0,0-1,1.9-7.2,14.1-6.2,12.3,4.6,25.6,4.6,25.6l11.9,14.3c5.9,7.1,10.9,7.3,10.9,7.3,1.4.3,2.7.4,3.9.4,10.2,0,14.8-8.7,14.8-8.7,0,0,59.6-116.7,62-121.5,2.4-4.9,3.1-5,3.1-5,.7-.5,1.3-.7,1.9-.7,1.9,0,3.4,1.9,3.4,1.9,0,0,5.1,5.9,8.9,9.4,3,2.7,6.6,3,8,3s.6,0,.6,0l10.6-1.3s6.1-.7,11.7-1.5c1-.1,1.8-.2,2.6-.2,3.5,0,4.4,1.3,4.4,1.3l12.4,7.7s8.4,5.4,14.1,9.1c5.7,3.7,6.9,8.8,6.9,8.8l1.3,5.3,15.6,57.2,5.8,21s.5,1.5,2.5,3.3c2,1.8,5.9,2,5.9,2,0,0,2.5-.6,4.5-1.2.2,0,.5-.1.7-.1,1.4,0,1.5,1.7,1.5,1.7,0,0,2.6,21.5,3,24.3.3,2.8.9,5.5.9,5.5,0,0,1,2.4,4,5.3,1.9,1.8,5,2.2,7,2.2s2-.1,2-.1c0,0,5-.8,8.1-5.7,3-4.9.5-11.1.5-11.1,0,0-14.8-64.5-16-70-1.2-5.6-2.3-7-2.6-7.3-2.2-2.5-4.8-3.2-6.9-3.2s-4.2.8-4.7.9c0,0-.2,0-.2,0-.6,0-.7-.8-.7-.8,0,0,0-12.5.4-21.6.3-9.1-7.1-17.8-7.1-17.8-15.7-23.4-45.8-38.5-45.8-38.5,0,0-31.8-16-33-16.7-1.3-.7-.2-2.2-.2-2.2,0,0,.1,0,1.4-2.7,1.3-2.7.7-5.7.7-5.7-1-5.1-5.9-6.3-5.9-6.3l-22-6.9s-.5-.3-2.1-.3h0Z"/>
  <text class="st2" transform="translate(-265.1 156.7)"><tspan x="0" y="0">balaton</tspan><tspan x="0" y="14.4">hungria</tspan></text>
</svg>