<?xml version="1.0" encoding="UTF-8"?>
<svg id="Capa_1" xmlns="http://www.w3.org/2000/svg" version="1.1" viewBox="0 0 297 259.5">
  <!-- Generator: Adobe Illustrator 29.2.0, SVG Export Plug-In . SVG Version: 2.1.0 Build 108)  -->
  <defs>
    <style>
      .st0 {
        fill: #010203;
      }
    </style>
  </defs>
  <path class="st0" d="M264.3,21.5c.8,0,1.6.2,2.5.6,2.3,1.1,2.8,7.3,2.2,11.2v.2s0,.2,0,.2l-18.6,183.9c-.9,3.8-2.3,3.8-3.2,3.8s-2.3-.4-2.7-.5h-.1c0,0-.4-.2-.4-.2-.2,0-15.8-5.8-28-10.3h0c-11-4.1-11.6-4.4-13.9-4.4h0c-.6,0-1,0-1.3,0-2.1.2-15.1,4.5-18,5.6-4,1.5-11,4.1-11.3,9.8-.8,4.3-2,8.9-2.9,10.8-.7.2-1.4.3-2,.3-2.1,0-4-.6-4.3-.7h0s-.2,0-.2,0c-52.9-18.1-133.6-46.1-139.7-49-3-1.7-2-5.9-1.7-6.8l.2-.4v-.6c.4-2,2.1-8.6,5.1-12.5,0,0,.6-.5,2.7-.5,2.8,0,6,.9,7,1.3l.5.2h.5c0,0,126.1,26.4,126.1,26.4,1,.5,2.1.8,3.4.8,1.9,0,3.7-.8,5.1-2.1,2.4-2.4,2.7-4.9,2.5-17-.3-14.3-10-20.7-19.6-20.7s-.5,0-.7,0c-7.4-.6-94.9-8.1-107.1-9.4-2.3-.2-4.3-.4-6.1-.5-7-.4-7.7-.5-10.7-5.1-1.8-2.6,2-6.5,2.3-6.8h.1c0-.1.2-.3.2-.3.2-.2,19.7-21.2,36.2-36,4.8-4.3,10.3-6.5,16.2-6.5,6.2,0,10.9,2.4,11.3,2.6l.6.3.8.2c1.5.5,37.3,11.6,48.9,14.9,2.6.8,5.1,1.1,7.5,1.1,9.2,0,14.5-5.6,16.2-8.9v-.3c.1,0,.3-.3.3-.3,0,0,1-2.6,6-15.1,1.8-4.5,4.9-9.9,9.5-9.9,1.8,0,3.4.7,4.3,1.2,3.1,3.9,15.5,19.5,31.4,40.7,3.9,5.3,8,7.8,12.4,7.8s9.4-4.2,11-8.3l.2-.6v-.6c.6-2.9,12.4-71.2,13.3-77.9.7-5.5,1.5-8.1,2-9.1l.7-.8s1.6-1.5,3.7-1.5h0M264.3,14.5c-5.4,0-8.9,3.9-8.9,3.9,0,0-2.6.3-4.4,13.7-.9,6.7-13.2,77.7-13.2,77.7,0,0-1.4,3.7-4.4,3.7s-4-1.2-6.8-5c-18.6-24.8-32.3-41.8-32.3-41.8,0,0-3.9-2.8-9-2.8-5.1,0-11.3,2.9-16,14.3-5,12.5-6.1,15.1-6.1,15.1,0,0-2.6,5.1-9.9,5.1s-3.5-.2-5.6-.9c-11.7-3.4-48.8-14.9-48.8-14.9,0,0-6.2-3.5-14.7-3.5-6.2,0-13.7,1.9-20.9,8.3-17,15.3-36.6,36.5-36.6,36.5,0,0-8.5,7.9-3.3,15.8,6.1,9.2,10.3,7.4,22,8.6,12.9,1.3,107.7,9.4,107.7,9.4,0,0,.3,0,.8,0,2.8,0,12.3,1,12.6,13.8.2,10.4-.3,12-.6,12s-.3-.3-.3-.3l-127.8-26.6s-4.6-1.7-9.4-1.7c-3.2,0-6.4.7-8.3,3.2-4.7,6.2-6.3,15.6-6.3,15.6,0,0-3.6,10.5,5,15.3,5.7,3.2,140.7,49.4,140.7,49.4,0,0,3.1,1.2,6.7,1.2s4.5-.4,6.5-1.7c2.9-1.8,5.4-15.9,5.4-15.9,0,0-.3-1.1,6.7-3.8,5.1-1.9,15.9-5.1,16.3-5.2.2,0,.4,0,.6,0,1,0,2.4.5,11.5,3.9,12.3,4.6,28,10.4,28,10.4,0,0,2.5,1.2,5.6,1.2s8.4-1.8,10.1-9.7l18.7-184.3s2.4-14.7-6.1-18.7c-2-.9-3.8-1.3-5.5-1.3h0Z"/>
</svg>