<?xml version="1.0" encoding="UTF-8"?>
<svg id="Capa_1" xmlns="http://www.w3.org/2000/svg" version="1.1" viewBox="0 0 297 259.5">
  <!-- Generator: Adobe Illustrator 29.2.0, SVG Export Plug-In . SVG Version: 2.1.0 Build 108)  -->
  <defs>
    <style>
      .st0 {
        fill: #010203;
      }
    </style>
  </defs>
  <path class="st0" d="M219.9,21.6c2.4,0,5.8,1.7,7.3,2.6,14.6,12,36.3,29.9,39.3,32.5.3.5.9,1.5,1.2,2.3v.3c.2.4.4,1.6-.3,3.9-.4,1.1-2.4,2.1-3.8,2.5-1.3,0-4.1-.3-10.2-.7-.7,0-1.5,0-2.2,0-15.9,0-24.4,11.2-39.8,31.6-9.6,12.8-9.3,23.5-7.3,30.2,1.9,6.3,5.6,10.4,6.9,11.7,4,4.6,46.5,53.7,53.7,60.4,2.9,2.7,4.2,5,4.4,7.8.3,4.1-1.6,9.7-5.7,16.8-5,8.6-11,10.5-15.2,10.5s-2.2-.2-2.4-.2l-.8-.3H72.9c-1,0-2.5-.5-3.7-.9-.3-.7-.9-2.2-1.5-4.9-.4-1.8,3.8-3.7,4.1-3.8h.3c0,0,.4-.3.4-.3.3-.2,32.8-16.1,45.6-21.5,13.8-5.8,16.7-16.3,16.2-22,0-2.9,0-25.4.8-34.6.9-9.2-.7-17-1.4-20.3,0-.3,0-.5-.1-.7,0-2.6-1-4-5.9-11.9l-1-1.6c-2.4-3.9-7.6-8.5-18.8-8.5-5.8,0-10.7,1.2-11.3,1.4l-.9.2-.8.4c-13.1,7.3-48.7,27-56.4,29.8-.5.2-.8.3-1.2.3-1.6,0-3.4-2.9-4.1-4.6-.5-1.4-6.3-18.5-7.8-26.8-.7-3.7,3.8-6.4,4.5-6.8,3.6-1.7,53.9-25,66.9-30,1.9-.7,3.7-1.1,5.5-1.1,5.5,0,9.1,3.5,9.6,3.9h.1c0,.1.3.4.3.4,0,0,18.1,16.7,26.8,24.7,5.7,5.2,6.8,9.6,6.9,10.6l-.3,79.8v.8s.2.8.2.8c.2,1.1,1.8,6.5,8.1,9.3,1.2.5,2.6.8,3.9.8,5.8,0,9.5-5.1,11.1-9.8h0c0-.1,0-.3,0-.3l42.1-146v-.2c0,0,.1-.2.1-.2,0-.1,2.4-10.4,7.3-17.4.2-.3.4-.6,1.3-.6M219.9,14.6c-2.6,0-5.2.9-7.1,3.6-5.7,8.2-8.3,19.9-8.3,19.9l-42.1,146s-1.7,5-4.5,5-.7,0-1.1-.2c-3.5-1.5-4.1-4.5-4.1-4.5l.3-80.3s-.4-7.2-9.2-15.3c-8.8-8.1-26.8-24.7-26.8-24.7,0,0-5.6-6.2-14.7-6.2-2.4,0-5.1.5-8.1,1.6-13.7,5.4-67.4,30.3-67.4,30.3,0,0-9.9,5-8.2,14.3,1.7,9.3,8.1,27.9,8.1,27.9,0,0,3.3,9.3,10.7,9.3s2.3-.2,3.6-.7c9.9-3.7,57.4-30.3,57.4-30.3,0,0,4.5-1.1,9.5-1.1,4.9,0,10.3,1.1,12.9,5.2,5.2,8.4,5.9,9.4,5.9,10.4s2.5,9.4,1.5,19.7c-1,10.3-.8,35.7-.8,35.7,0,0,1.2,9.6-12,15.1-13.1,5.6-46,21.7-46,21.7,0,0-10.4,3.7-8.6,12,1.9,8.2,4,9.1,4,9.1,0,0,4.2,2.2,8,2.2h171s1.7.5,4.3.5c5.3,0,14.4-2,21.2-14,10.3-18,7.2-26.5,0-33.2-7.2-6.7-53.4-60.1-53.4-60.1,0,0-14.4-12.6.9-32.8,14.6-19.3,21.8-28.8,34.2-28.8s1.1,0,1.7,0c8.6.6,10.7.7,11.2.8.7-.1,8-1.5,10-7.3,2-6.1,0-9.3,0-9.3,0,0-1.4-3.2-2.6-4.4-1.2-1.2-40.1-33.2-40.1-33.2,0,0-5.9-4-11.4-4h0ZM264.1,72.8s0,0,0,0c0,0,0,0,.1,0s0,0,0,0h0Z"/>
</svg>