<?xml version="1.0" encoding="UTF-8"?>
<svg id="Capa_1" xmlns="http://www.w3.org/2000/svg" version="1.1" viewBox="0 0 297 259.5">
  <!-- Generator: Adobe Illustrator 29.2.0, SVG Export Plug-In . SVG Version: 2.1.0 Build 108)  -->
  <defs>
    <style>
      .st0 {
        fill: none;
        stroke: #010203;
        stroke-miterlimit: 10;
        stroke-width: 7px;
      }
    </style>
  </defs>
  <path class="st0" d="M191.3,128.3l55.1,28.9s15.2,7.5,5.1,22.9c-1.6,2.5-10.8,10.4-10.8,10.4,0,0-5.4,5.5,2.5,10.9,7.9,5.4,19.3,12.2,19.3,12.2,0,0,15.1,9.1,14.9,16,0,2.6-.2,15.2-19,12.3s-116.6-23-116.6-23c0,0-24.3-4.2-45.8-24.1-21.6-19.9-17.8-29.7-17.8-29.7,0,0,3.1-12.4-7.2-14.5-16.6-3.5-16.1-13.6-16.1-13.6,0,0-1.5-16.7-10-27.1-8.5-10.3-17.5-20-17.5-20,0,0-10-14.2-3.7-24.2,6.4-10,13.2-10.8,13.2-10.8,0,0,11.6-4.2,21.5,10,9.8,14.2,22.3,35.5,22.3,35.5l8.1,16.1s7.5,9.2,10.6,2.8c3.1-6.3,5.3-16.6-5.1-30.9-10.4-14.3-46.3-56.4-46.3-56.4,0,0-4.8-9.7,3.8-13.9,8.6-4.2,13-.6,13-.6l99,108.3s6.7,7.8,14.6,4c7.9-3.9,13.1-1.5,13.1-1.5Z"/>
</svg>