<?xml version="1.0" encoding="UTF-8"?>
<svg id="Capa_1" xmlns="http://www.w3.org/2000/svg" version="1.1" viewBox="0 0 297 259.5">
  <!-- Generator: Adobe Illustrator 29.2.0, SVG Export Plug-In . SVG Version: 2.1.0 Build 108)  -->
  <path d="M243.6,42.1c2,0,3.9.3,5.6.8,9,2.6,13.8,4.8,15.9,5.8.4.8.8,1.8,1,2.5-4.9,2.1-11.8,2.7-15.3,2.7l-10.6-.9c-.4,0-1-.1-1.8-.1-4.1,0-7.5,1.6-9.6,4.6-1.6,2.2-3,6.1-.8,12.2l46.1,128v.4c.1,0,.3.4.3.4,1.4,2.8,2.7,8,1.5,10.3-.5,1-1.9,1.7-4.1,2.1-17,2.9-40.8,5.7-41,5.7h-.6s-.7.3-.7.3c-.2,0-.7.1-1.3.1s-1,0-1.3-.3c-.8-.8-1.6-4-1.7-6.6v-1.1s-.4-1-.4-1c-1.5-4.3-6.1-11.7-14.3-11.7-3,0-6,1-9,3-10.1,6.8-19.8,22.7-20.9,24.5h-.1c0,0-.2.6-.2.6-.5.7-3.3,4.7-12.1,6.4-12.1,2.3-23.8,3.7-25.7,3.9,0,0,0,0-.1,0-1.9,0-12-.4-25.6-8.6-13.6-8.2-17.1-11.6-17.5-12.1-.3-.4-3.1-4.5-5.1-12.4-.2-.9-.4-1.8-.7-2.6-2.2-8.9-4-16-13.5-23-6.9-5.1-13.3-9.1-15.6-10.6-1.9-2.1-8-9.1-15.1-20-8.2-12.6-25.3-38.2-28.4-42.7-.2-.8-.4-2-.2-2.5,5.3-1.8,30.4-3.5,51.3-3.9h0s0,0,0,0c.8,0,7.4.2,9.6,5.4,4.1,9.7,9.3,21.2,9.7,22,1.8,4,7.9,10.8,19.7,10.8s2.8,0,4.3-.3c13.4-1.6,47.9-8.5,49.4-8.8l1.3-.3,1.1-.7c1-.6,9.5-6.3,9.7-19.6,0-6.8.5-10.7.6-12.3.9-1.8,4.5-8.1,14.8-17.5,12.8-11.7,30.4-25.4,33-27.4,1.6-.9,9.7-5.3,18.2-5.3M243.6,35.1c-11.6,0-22.1,6.5-22.1,6.5,0,0-19.7,15-33.9,28.1-14.2,13-16.9,20.7-16.9,20.7,0,0-.7,4.3-.8,14.1-.1,9.8-6.4,13.8-6.4,13.8,0,0-35.5,7.1-48.9,8.7-1.2.1-2.4.2-3.4.2-10.5,0-13.3-6.6-13.3-6.6,0,0-5.4-11.9-9.7-21.9-4-9.3-14.5-9.6-16-9.6s-.2,0-.2,0c0,0-49.6,1.1-55.1,5.1s-2.1,11.6-2.1,11.6c0,0,19.7,29.5,28.8,43.4,9,13.9,16.5,21.7,16.5,21.7,0,0,7.7,4.7,15.9,10.7,8.2,6.1,8.9,11.6,11.5,21.7,2.6,10.1,6.4,14.9,6.4,14.9,0,0,2.2,3.4,19.5,13.8,15,9.1,26.5,9.7,29.2,9.7s.6,0,.6,0c0,0,12.9-1.4,26.5-4,13.6-2.6,17.1-10.3,17.1-10.3,0,0,9.6-16.2,18.7-22.2,1.9-1.3,3.6-1.8,5.1-1.8,5.4,0,7.7,6.9,7.7,6.9,0,0,.2,8.2,4,11.6,1.8,1.7,4.1,2.1,6,2.1s3.4-.5,3.4-.5c0,0,24-2.8,41.4-5.8,17.4-3,7.7-22.3,7.7-22.3l-46.1-128c-2.4-6.6,1.7-7.4,3.8-7.4s1,0,1,0l11,.9s0,0,.2,0c1.5,0,11.2-.1,18.7-3.5,8.1-3.7.8-13.9.8-13.9,0,0-4.8-3.2-18.9-7.3-2.5-.7-5.1-1-7.6-1h0Z"/>
</svg>