<?xml version="1.0" encoding="UTF-8"?>
<svg id="Capa_1" xmlns="http://www.w3.org/2000/svg" version="1.1" viewBox="0 0 297 259.5">
  <!-- Generator: Adobe Illustrator 29.2.0, SVG Export Plug-In . SVG Version: 2.1.0 Build 108)  -->
  <defs>
    <style>
      .st0 {
        fill: #010203;
      }
    </style>
  </defs>
  <path class="st0" d="M47.1,39.9c2.1,0,4.4.2,6.9.7,16.1,3.1,45.1,10.3,45.4,10.3h.1s.1,0,.1,0c4,.8,8.7,2.5,10,3.6,1.2,2.1,1.4,3.8.9,7.4,0,.5-.1,1-.2,1.5-.8,4.6-2.8,16.8,10,21.5,7.9,2.9,59.7,22.1,63.7,23.6.9.4,6.6,3.3,5.6,6.8-1.8,6.4-6.1,9.4-6.7,9.8-.3.2-2.1,1-4.3,1s-4.1-.8-6-2.3c-6.5-5.4-10.4-8.5-12.1-9.9-2.3-3.4-8.4-8.7-23.6-9.8-11-.8-23-11.5-26.7-15.6l-.4-.4-.4-.3-42.8-34.7h-.1c0,0-.1-.2-.1-.2-1.2-.9-7.6-5.4-14.3-5.4s-6.7,1.3-9.1,3.7c-5.2,5.2-6.3,9.9-6.6,12.3-.4,1.8-.7,5.3.9,9.5,2.4,6.4,8.1,12,16.9,16.6l207.8,108.5h.3c0,.1.3.2.3.2,3.3,1.4,10.7,5.8,12.3,10.2.5,1.3.4,2.5-.3,4-2.6,5.2-4.4,5.2-5.4,5.2-1.9,0-4.7-.8-7.6-1.7-1.8-.6-3.7-1.1-5.8-1.6-2.7-.7-5.1-1.4-7.3-2-4-1.2-7.1-2.1-10.2-2.1-4.6,0-7.5,2.2-9.1,4.1-3,3.6-10.5,13.3-10.8,13.7h-.1s-.2.4-.2.4c-.3.4-1.6,1.7-3.8,1.7s-5.1-1.2-8.3-3.5c-14.1-10-44.5-33.2-48-35.8-1.6-1.5-6.5-5.5-13.3-5.5-3,0-5.8.7-8.6,2.2-3.4,1.8-6,3.1-8.2,3.1s-3.3,0-8.4-4.2c-10.4-8.6-41.6-37.6-41.9-37.9h0c-.3-.5-2.3-3.3-1.6-10.6,0-.8.2-1.6.2-2.4,1.2-11.4,1.9-19-6.1-25.6-5.8-4.8-29.7-14.7-37-17.7-.5-.2-11.4-5.2-10.7-12.7,1-12.2,1.1-13,5.4-19.8,4.4-7.1,10.8-16.2,12.1-18.1.5-.4,2.6-1.8,7.6-1.8M47.1,32.9c-9.9,0-13.1,4.5-13.1,4.5,0,0-7.4,10.6-12.5,18.7-5.1,8.1-5.3,9.9-6.4,22.9-1.1,13,15,19.7,15,19.7,0,0,29.8,12.2,35.3,16.7,5.5,4.5,4.6,9.4,3.4,21.9-1.2,12.5,3.8,16.4,3.8,16.4,0,0,31.6,29.4,42.2,38.2,5.1,4.3,9.2,5.8,12.9,5.8s7.5-1.8,11.5-3.9c1.9-1,3.7-1.4,5.3-1.4,5.2,0,8.8,3.8,8.8,3.8,0,0,33.4,25.4,48.5,36.2,5,3.6,9.1,4.8,12.4,4.8,6.6,0,9.6-4.9,9.6-4.9,0,0,7.7-9.9,10.6-13.5,1-1.1,2.1-1.6,3.7-1.6,3.3,0,8.2,2,15.8,3.9,5.6,1.4,10.6,3.6,15.1,3.6s8.2-2.1,11.7-9.1c7-14.2-15.6-23.7-15.6-23.7L57.2,83.5c-17.4-9.1-14-18.9-14-18.9,0,0-.1-3.6,4.6-8.3,1.2-1.2,2.6-1.6,4.2-1.6,4.7,0,10.2,4,10.2,4l42.8,34.7s15.1,16.7,31.4,17.9c16.4,1.2,18.7,7.5,18.7,7.5,0,0,4,3.1,13,10.6,3.7,3,7.4,3.9,10.5,3.9,4.5,0,7.8-1.9,7.8-1.9,0,0,7.1-4.1,9.9-14,2.8-9.8-9.7-15.2-9.7-15.2,0,0-55.7-20.7-64-23.7-8.3-3-5.8-11-5.2-15.5.6-4.5.5-8-1.9-12.2-2.5-4.2-14.4-6.6-14.4-6.6,0,0-29.2-7.2-45.7-10.4-3.1-.6-5.9-.9-8.2-.9h0Z"/>
</svg>