<?xml version="1.0" encoding="UTF-8"?>
<svg id="Capa_1" xmlns="http://www.w3.org/2000/svg" version="1.1" viewBox="0 0 297 259.5">
  <!-- Generator: Adobe Illustrator 29.2.0, SVG Export Plug-In . SVG Version: 2.1.0 Build 108)  -->
  <defs>
    <style>
      .st0 {
        fill: #010203;
      }
    </style>
  </defs>
  <path class="st0" d="M262.9,25.3c2.3,0,4.4,2.3,5.7,4.2,2.8,4.1,4.4,6.5,5.4,7.9.6.9,1.2,1.8,1.9,2.6.9,1.2,4.3,6.5,4.5,18.1.2,11.9,0,15.8,0,16.9-.8,2.2-2.5,5.2-3.8,5.2s-.7,0-1.5-.4c-6.8-3.2-10.1-5.7-11.4-6.8-.3-1-.4-3.5,2.1-6.9,8.1-11,6.3-17.1,4.5-19.7h0c0,0,0-.1,0-.1-.6-.8-3.9-5.1-9.1-5.1-2.3,0-6.7.9-9.7,6.7-3.5,6.8-14.1,25.7-14.2,25.9h0s0,0,0,0c0,.1-6.1,11-20.9,26-15,15.3-38.5,43.6-41.8,47.5-.6.4-2.9,1.5-8.4,2.1-7.5.9-12.9,2.3-15.6,4.2-2.2,1.4-10.2,7.4-11.8,22.3-1.2,11.1-1.3,17.6-1.3,19.6-.2.8-.6,2.6-1.6,4.3-1.5,2.6-3,2.9-4.5,2.9s-1.1,0-1.7-.2c-3.3-.6-16.9-2.4-18.4-2.6h-.4s-.4,0-.4,0c-.1,0-12.4-.3-27.7-1-1.4-.1-7.5-1.4-12.7-2.6-1.1-.5-3-1-5.2-1-4.4,0-12.6,2.1-17.3,16-4.4,12.7-7.6,18.4-8.1,19.3-.2.2-.8.8-1.4.8s-2.6-.8-5-3.2c-7.2-7.3-9-12.2-9.4-13.5.2-1.5,1.3-7.6,8.9-16.4,10-11.6,15.4-18.5,16.6-20.1,1.1-1,9.9-8.6,37-13.7,26.3-5,33.7-5.3,35-5.3h.3c0,0,.8,0,.8,0,.8,0,7.6-.4,15.2-4.9,6.9-4.2,15.8-12.7,18.8-30.1,3.8-22.2,4.9-28.7,5.2-30.6.2-.5.8-1.8,1.9-2.1,2.7-.9,5.5-2.1,6.2-2.5,1.9-.7,6-3.1,8.9-9.8.4-.9,1.4-1.9,2.6-2.7l80.3-51.3c.2,0,.9-.4,1.8-.4M23.4,215.2v.4c0,0,0-.4,0-.4,0,0,0,0,0,0M262.9,18.3c-3.2,0-5.4,1.4-5.4,1.4l-80.5,51.4c-.7.4-3.8,2.5-5.3,5.8-2.3,5.3-5.2,6.1-5.2,6.1,0,0-3.1,1.4-5.9,2.4-5,1.7-6.4,7-6.4,7,0,0-.4,2.6-5.3,31.1-4.9,28.4-27.3,29.1-27.3,29.1,0,0-.2,0-.8,0-2.3,0-10.5.5-36.3,5.4-32.7,6.2-41,16-41,16,0,0-5.3,7.1-16.6,20.1-11.3,13-10.6,21.6-10.6,21.6,0,0,.6,6.7,11.4,17.7,3.9,4,7.3,5.3,9.9,5.3,4.6,0,7.2-3.9,7.2-3.9,0,0,3.7-5.7,9-21,3.3-9.5,7.8-11.3,10.7-11.3,1.8,0,3,.7,3,.7,0,0,12.2,2.8,14.5,2.9,15.6.7,27.9,1,27.9,1,0,0,14.8,1.9,17.9,2.5,1.1.2,2.1.3,3.1.3,11.2,0,13.1-13.6,13.1-13.6,0,0,0-6.4,1.3-19.5,1.4-13.1,8.7-17.1,8.7-17.1,0,0,2.3-1.9,12.6-3.1,10.3-1.2,12.6-4.2,12.6-4.2,0,0,26-31.4,41.8-47.5s22.1-27.6,22.1-27.6c0,0,10.7-19.1,14.4-26.1,1.1-2.2,2.3-2.9,3.4-2.9,1.9,0,3.5,2.1,3.5,2.1,0,0,2,2.9-4.4,11.5-6.4,8.7-2.4,15.1-2.4,15.1,0,0,3.2,4,14.3,9.1,1.6.8,3.1,1.1,4.5,1.1,7.7,0,10.7-10.7,10.7-10.7,0,0,.5-1.4.2-18.4-.3-17-6.7-23.2-6.7-23.2,0,0,.3.4.3.4,0,0-1-1.4-6.5-9.7-4-5.9-8.2-7.3-11.5-7.3h0Z"/>
</svg>