<?xml version="1.0" encoding="UTF-8"?>
<svg id="Capa_1" xmlns="http://www.w3.org/2000/svg" version="1.1" viewBox="0 0 297 259.5">
  <!-- Generator: Adobe Illustrator 29.2.0, SVG Export Plug-In . SVG Version: 2.1.0 Build 108)  -->
  <defs>
    <style>
      .st0 {
        font-family: AgencyFB-Bold, 'Agency FB';
        font-size: 41px;
        font-weight: 700;
        stroke: #fff;
        stroke-miterlimit: 10;
        stroke-width: .2px;
      }
    </style>
  </defs>
  <text class="st0" transform="translate(-257.6 -35.6)"><tspan x="0" y="0">Phillip Island</tspan></text>
  <path d="M107.3,23.4c1.5,0,3,.1,4.6.3,10.1,1.5,16.8,10.5,16.8,10.6h0c0,.1,0,.2,0,.2,0,0,4.9,6.3,14.2,18.7,9.9,13.1,19.7,15.2,22.7,15.5,2,.4,10.4,1.9,23.7,2.5,12.3.5,19.8,3.1,20.6,3.4,14.8,6.4,25.4,15.3,27.4,17.1,2.3,3,2.8,6.1-1.1,12.3-.8,1.2-4.1,2.5-8.3,2.5s-2.4-.2-2.6-.2c-4.9-1.1-16.1-1.8-17.4-1.8h-.2s-.2,0-.2,0c-4,0-13.7.1-17.6,1.3-5.4,1.6-6.2,5.8-6.3,7.1-.3,3.5,1.8,6.8,5.6,8.8l.6.3.7.2,9.8,2.6h0s0,0,0,0c8.5,2.1,33,9.6,43.4,18.6,12.2,10.5,19,33.5,19.1,33.8v.2c0,0,.1.2.1.2,0,.2,8.7,24.8,12.2,41.2,2.5,11.4-4.2,16.9-5.3,17.7h-.3c0,.1-.5.7-.5.7-.5.4-3.6,2.7-9.2,2.7s-4.8-.4-7.3-1.2c-9.6-3.1-11-17-11.1-18.5,0-2.2,0-16.1-1.4-32.1-2.1-21.5-26.8-28.2-27.9-28.5h-.3c0,0-.3-.1-.3-.1l-166.2-30.2h0s0,0,0,0c-12.4-2.1-21.3-7.4-26.4-15.9-4-6.6-4.5-13.4-4.2-15.7,2.7-16.5,7.7-25.7,7.8-25.8v-.2c.1,0,.2-.2.2-.2,2-4.3,9.4-17.5,16.3-20.9,1.9-1,4-1.5,6.1-1.5,3.7,0,6.5,1.5,7,1.8h0c0,.1.6.4.6.4.5.3,3.7,2.5,7,8.1,3.8,6.3,5.8,9.8,10.5,9.8s4.1-.9,5.5-2.6c.9-1,1.4-2.3,1.6-3.6.7-2.5,3.4-12.9,6.9-22.7,3-8.6,9.6-13.3,10.2-13.7h0s.2,0,.2,0c.5-.3,5-3,12.2-3h0M107.3,16.4c-10,0-16.1,4.1-16.1,4.1,0,0-9,5.7-13.1,17.3s-7.2,23.8-7.2,23.8c0,0,0,.3,0,.3-.3,0-1.2-.9-4.5-6.4-5-8.4-9.9-10.7-9.9-10.7,0,0-4.5-2.9-10.8-2.9s-5.9.6-9.2,2.2c-10.6,5.3-19.5,24.2-19.5,24.2,0,0-5.6,10-8.6,28.1-1.2,7.3,2.6,34,36.3,39.6l166.2,30.2s21.1,5.5,22.7,22.4c1.6,16.9,1.4,31.6,1.4,31.6,0,0,.9,20.2,16,25,3.5,1.1,6.7,1.6,9.5,1.6,9,0,13.9-4.6,13.9-4.6,0,0,11.9-8,8.2-25-3.7-17-12.5-42-12.5-42,0,0-7.3-25.1-21.3-37.1-14-12-46.3-20-46.3-20l-9.8-2.6s-3.8-1.9-.5-2.9c3.3-1,15.6-1,15.6-1,0,0,11.8.7,16.3,1.7,1.1.2,2.5.4,4.2.4,4.9,0,11.4-1.4,14.2-5.8,3.6-5.8,6.5-13.2.2-20.9,0,0-12-11-29.9-18.7,0,0-8.4-3.3-22.9-3.9-14.6-.6-23-2.4-23-2.4,0,0-8.6-.2-18.1-12.8-9.5-12.6-14.3-18.8-14.3-18.8,0,0-8.2-11.4-21.5-13.4-2-.3-3.8-.4-5.6-.4h0Z"/>
</svg>