<?xml version="1.0" encoding="UTF-8"?>
<svg id="Capa_1" xmlns="http://www.w3.org/2000/svg" version="1.1" viewBox="0 0 297 259.5">
  <!-- Generator: Adobe Illustrator 29.2.0, SVG Export Plug-In . SVG Version: 2.1.0 Build 108)  -->
  <defs>
    <style>
      .st0 {
        fill: none;
        stroke: #000;
        stroke-width: 6px;
      }

      .st0, .st1 {
        stroke-miterlimit: 10;
      }

      .st1 {
        font-family: AgencyFB-Bold, 'Agency FB';
        font-size: 41px;
        font-weight: 700;
        stroke: #fff;
        stroke-width: .2px;
      }
    </style>
  </defs>
  <text class="st1" transform="translate(-257.6 -35.6)"><tspan x="0" y="0">Phillip Island</tspan></text>
  <path d="M-188.7,41.9c3.1.8,4.1,3.6,4.3,4.3v.7c.1,0,.6.9.6.9,5.1,10.2,22.1,43.9,26.9,49.1,5.3,5.8,10.7,8.1,18.9,8.1s.8,0,1.3,0c8.6-.2,14.3-4.2,19.1-8.5,4.9-4.3,6.9-7.7,10.2-14.3,2.4-4.7,3.8-6.6,10.1-9.6.4-.2,1.2-.5,2.9-.5,4.4,0,9.9,1.9,12.2,2.9,14.3,9.3,50.8,32.9,55.2,36.2.4.3,1,1.3,1.4,2.2-.4,2.3-1.1,6.7-1.8,13.1-.5,4.4-2.1,6.8-3,7.7-22.1,7.7-87.5,30.8-94.1,35-5.8,3.7-6,8-5.7,10.3.9,6,7.3,8.2,9.2,8.7h.4c0,.1.4.2.4.2,5.7.9,11.9,2.2,13.4,2.8,5.5,3,8.4,9.8,8.8,20.8.4,9.6-1.6,16.8-6.1,22.8-.3.4-.8,1-2.6,1s-5.1-1.1-5.9-1.5h-.2c0,0-.2-.2-.2-.2-.3-.2-34.9-15.9-44.9-21.5-4.4-2.4-8.6-3.7-12.4-3.7s-8.5,2-10.5,4c-1.3,1.2-8.3,7.8-13.3,12.8-3.3,3.3-6.3,4.2-12.9,6-1.3.4-2.6.7-4,1.2-1.2.4-2.7.6-4.3.6-5.5,0-10.9-2.1-11.7-2.4-.5-.3-3.1-2.1-7.3-8.2-2-2.8-1.5-4.9-.6-6.3,46.1-22.2,162.4-77.9,167.7-80.1,9.3-3.8,13.3-9,12-15.3-.8-3.8-4.2-7.9-11.3-7.9s-5.5.6-6,.8h-.3c0,0-.3.2-.3.2l-188.9,70.5h0s-.2,0-.2,0c-.4.1-2,.6-4.6.6s-1.4,0-2.1,0c-3.7-.3-5.1-3.4-5.5-4.1v-.3c0-.5,0-1.9.7-4.4.5-1.7,2.6-2.3,3.3-2.4.7,0,1.9,0,3.5,0,2.3,0,4.4,0,6.4-.2,6-.3,8.2-3.6,9-5.6,1.5-3.8-.2-7.5-2.4-9.7l-.6-.6-.7-.4s-1.1-.7-6.7-4.2c-3.3-2.1-7-5.1-11.3-13-6-10.9-2.4-23.8-1.9-25.3,2.3-4.9,9.5-17.8,17.4-21.9,13-6.8,60.4-43.7,64.1-47.2,1.5-1.4,4.1-3.9,5.4-4.3M-188.7,34.9c-3.5,0-7,3.2-10.2,6.3-3.6,3.4-50.6,39.9-62.6,46.1-12,6.3-20.6,25.4-20.6,25.4-.2.2-5.7,16.8,2.2,31.3,4.4,8.1,8.6,12.4,13.8,15.6,5.8,3.7,6.8,4.3,6.8,4.3,0,0,3.1,3.1-2,3.4-2.2.1-4.3.1-6,.1s-3.8,0-3.8,0c0,0-7.7.6-9.7,7.5-1.9,6.9-.6,8.8-.6,8.8,0,0,2.7,8.1,11.5,8.9,1,0,1.9.1,2.8.1,4.7,0,7.3-1.1,7.3-1.1L-71,121.1s2.1-.5,4.2-.5,4.1.5,4.5,2.4c.4,2.1-1,4.5-7.8,7.3-6.8,2.8-169.4,80.9-169.4,80.9,0,0-7.2,6.8-.8,15.9,6.4,9.2,10.2,10.6,10.2,10.6,0,0,7.1,3,14.6,3s4.3-.2,6.3-.8c9.4-2.8,14.5-3.6,19.9-9,5.4-5.4,13.4-12.8,13.4-12.8,0,0,1.7-2,5.5-2s5.2.7,9,2.8c10.4,5.8,45.4,21.8,45.4,21.8,0,0,4.4,2.3,9.2,2.3s6-.9,8.2-3.8c5.8-7.6,8-16.5,7.6-27.3-.4-10.8-3.1-21.6-12.6-26.7-3-1.6-15.5-3.6-15.5-3.6,0,0-8.2-2.2-1.6-6.4,6.6-4.2,94-34.7,94-34.7,0,0,5.3-3.6,6.3-13.2,1-9.4,2-14.3,2-14.3,0,0-1.1-5-4.4-7.4-5.6-4.2-56-36.8-56-36.8,0,0-8.2-3.7-15.5-3.7-2.1,0-4.2.3-5.9,1.1-7.6,3.6-10.2,6.6-13.3,12.7-3.1,6.1-4.6,8.7-8.7,12.3-4,3.6-8.2,6.6-14.6,6.7-.4,0-.7,0-1.1,0-5.8,0-9.5-1.2-13.7-5.8-4.5-4.9-25.8-47.5-25.8-47.5,0,0-1.7-8-10-9.7-.4,0-.8-.1-1.2-.1h0Z"/>
  <path class="st0" d="M39.5,237.1c1.7-.5,231.3-94.1,231.3-94.1,0,0,16-3.3,13.1-25.3-2.7-20-9.9-71.3-11.2-80.4-.1-1-.4-1.9-.9-2.7-2-3.7-7.9-13.9-13.6-13.8-5.9,0-8.5,5.4-8.5,5.4l-17,34.8s-3.5,9.3.3,15.3c3.7,6,12.5,23.1,12.5,23.1,0,0,7.8,10.1,1.9,13.9-6,3.7-26.2,11.1-26.2,11.1,0,0-15.7,4.4-13.7-9.2,2-13.6,12.3-54.2,12.3-54.2,0,0,1.8-13.2-6.3-18.6-8.1-5.4-18.7-.6-18.7-.6l-67.7,27.7s-11.5,2.1-22,14.1c-10.5,12-22.1,26-22.1,26,0,0-9.5,14.5,1.5,22.5,11.1,7.9,15.3,6.2,15.3,6.2,0,0,27.3-5.1,34.5-10.5,7.2-5.4,9.9-11.9,13.8-22.2,3.9-10.2,7.2-12.5,7.2-12.5,0,0,11.5-8.3,19.4-9.4,7.8-1.1,7.5,1.1,7.5,1.1,0,0,3.2,1.6-1.7,7.3-4.8,5.7-53.8,57.9-53.8,57.9,0,0-1.7,4.7-10.4,1.7-8.6-3-23.4-9.5-42.1-4.1-18.7,5.5-30.2,14.4-39.8,26-9.6,11.6-14.6,29.7-15.4,34.5-.8,4.8-1.9,18.8,1,23.1,2.9,4.3,4.6,11,19.6,6.1Z"/>
</svg>