<?xml version="1.0" encoding="UTF-8"?>
<svg id="Capa_1" xmlns="http://www.w3.org/2000/svg" version="1.1" viewBox="0 0 297 259.5">
  <!-- Generator: Adobe Illustrator 29.2.0, SVG Export Plug-In . SVG Version: 2.1.0 Build 108)  -->
  <defs>
    <style>
      .st0 {
        font-family: AgencyFB-Bold, 'Agency FB';
        font-size: 41px;
        font-weight: 700;
        stroke: #fff;
        stroke-miterlimit: 10;
        stroke-width: .2px;
      }

      .st0, .st1 {
        fill: #010203;
      }
    </style>
  </defs>
  <text class="st0" transform="translate(203.7 -90.7)"><tspan x="0" y="0">Sachsenring</tspan></text>
  <path class="st1" d="M211.1,32.8c3.6,0,13.4.6,25.8,5.8,18.1,7.6,32,16,32.1,16.1l.3.2.5.2c1.3.6,10.4,5.7,7.2,19.5-.3,1.4-.6,2.7-.9,4-2.8,12.4-3.6,15.7-14.5,53.5v.4c-.1,0-.2.3-.2.3,0,.2-4.4,23-22.3,26.4-11.3,2.2-18.3,2.7-22.1,2.7s-3.9-.2-4.2-.3h-.2c-5.6-1.5-21.7-7.1-28.7-14.6-1.9-2-3.6-3.7-5.1-5.2-6.5-6.5-7.2-7.2-5.5-13,2.8-9.3,7.9-14.4,8.4-14.8h.2c0-.1.3-.5.3-.5.4-.4,6.2-6.1,14.5-6.1s5.5.6,8.3,1.9c12.5,5.5,15.8,11.1,16.4,12.1v.7c0,0,1,1.3,1,1.3l4.6,6.9.4.6.5.5c.9.8,5.4,4.9,11.4,4.9s8.7-2.4,11.4-6.8c5.2-8.4,6.5-14.1,6.7-14.8v-.5c.1,0,.1-.5.1-.5.5-8.3-3.5-17.9-13.5-19.5-3.3-.5-7.5-.8-12.5-.8-4.4,0-8.1.2-9.7.3-3.5-.5-11.6-2.6-15.7-7.4-3.2-3.7-4.4-9.4-4.8-11,0-.1,0-.3,0-.4.7-5.4,1.5-10,2.2-12.3,1.3-4.5-.8-9.5-2.9-12.4-2.7-3.6-6.3-5.5-10.3-5.5s-7.3,1.7-10.6,5l-.5.5-.4.6c-4.3,6.6-105,161.7-111.8,174.3-2.3,4.2-4,5.9-4.9,6.6l-.6-.3-2.3.7c-.2,0-.7.1-1.4.1-2.5,0-4-1.1-5-3.9-3.9-10.6-24.2-58.5-27-65-.3-2-1.2-9.8,4.8-16.9,5.9-7,31.7-19,46.5-24.9h.2c0,0,.1-.1.1-.1l48.5-21.9c2.2-.9,17-7.7,31.3-28.6,10.6-15.7,13.8-21.2,14.9-23.4,1.1-1.6,7.6-10.2,21.7-12.3,12.7-1.9,15.2-2.2,15.6-2.2h0s.5,0,1.4,0M211.1,25.8c-1.3,0-2,0-2,0,0,0,0,0,0,0,0,0-.8,0-16.1,2.3-19.1,2.8-26.9,15.8-26.9,15.8,0,0-.7,2.4-14.6,22.8-14,20.7-28.2,26.1-28.2,26.1l-48.6,22s-40,15.9-49.3,26.9c-9.3,11-6.2,23.5-6.2,23.5,0,0,23,54.3,27.2,65.4,2.7,7.2,8.1,8.4,11.5,8.4s3.2-.4,3.2-.4c0,0,.3.1.9.1,1.8,0,6.1-1.1,11.2-10.6,6.8-12.5,111.5-173.8,111.5-173.8,2.1-2.1,3.9-2.9,5.6-2.9,4.6,0,7.3,6.5,6.6,8.9-1.1,3.9-2.1,10.7-2.4,13.5-.1.9,0,1.7,0,2.6.5,2.8,2.2,9.4,6.3,14.3,7.2,8.5,20.8,9.9,20.8,9.9,0,0,4.5-.3,9.9-.3,3.8,0,8,.2,11.4.7,8.3,1.3,7.6,12.1,7.6,12.1,0,0-1,4.9-5.8,12.5-1.7,2.7-3.6,3.5-5.5,3.5-3.5,0-6.6-3-6.6-3l-4.6-6.9s-2.3-8.7-20.3-16.6c-4-1.8-7.8-2.4-11.2-2.4-11.9,0-19.6,8.4-19.6,8.4,0,0-6.8,6.1-10.4,18-3.6,11.9,2.2,14.3,12.2,25,10,10.7,32,16.5,32,16.5,0,0,1.6.6,6.1.6s11.9-.6,23.4-2.8c23-4.4,27.9-32.1,27.9-32.1,12.1-41.7,11.9-41.7,15.5-57.8,4.7-20.4-11.2-27.4-11.2-27.4,0,0-14.2-8.7-33.1-16.6-13.5-5.7-24.3-6.3-28.5-6.3h0Z"/>
</svg>