<?xml version="1.0" encoding="UTF-8"?>
<svg id="Capa_1" xmlns="http://www.w3.org/2000/svg" version="1.1" viewBox="0 0 297 259.5">
  <!-- Generator: Adobe Illustrator 29.2.0, SVG Export Plug-In . SVG Version: 2.1.0 Build 108)  -->
  <defs>
    <style>
      .st0 {
        font-family: AgencyFB-Bold, 'Agency FB';
        font-size: 41px;
        font-weight: 700;
        stroke: #fff;
        stroke-miterlimit: 10;
        stroke-width: .2px;
      }

      .st0, .st1 {
        fill: #010203;
      }

      .st2 {
        font-family: MyriadPro-Regular, 'Myriad Pro';
        font-size: 12px;
      }
    </style>
  </defs>
  <text class="st0" transform="translate(203.7 -90.7)"><tspan x="0" y="0">Sachsenring</tspan></text>
  <text class="st0" transform="translate(425 202.7)"><tspan x="0" y="0">Brno</tspan></text>
  <path class="st1" d="M-273.5,146.7c0,0,.1,0,.2,0l21.8,6.9h.2c0,0,.2.1.2.1,0,0,.6.3.7.9,0,0,0,1-.1,1.3-.6,1.2-.8,1.7-.9,1.9-.7,1.1-2.1,3.7-1.3,6.9.5,2.3,2,4.1,4,5.3,1.3.7,27.9,14.1,33.3,16.8.3.1,28.7,14.6,43.1,36.1l.2.3.2.3c1.6,1.9,5.6,8,5.5,13.2-.3,9-.4,21.6-.4,21.8v.2s0,.2,0,.2c.2,4.2,3.5,7.5,7.7,7.5s1.4,0,2.1-.3c.2,0,.5-.1.8-.3.5-.2,1.3-.4,2-.4s.9,0,1.4.5c.2.5.7,1.8,1.3,4.5,1.2,5.5,15.4,67.4,16,70.1v.6c.1,0,.4.5.4.5.2.4,1,3.2,0,4.8-1.1,1.8-2.8,2.3-3.3,2.5-.2,0-.5,0-.8,0-1.2,0-1.9-.2-2.2-.3-1.1-1.1-1.7-2-2.1-2.6-.2-.9-.4-2.4-.6-3.9-.3-2.7-2.8-22.7-3-24.3-.5-4.5-4.1-7.9-8.5-7.9s-1.8.1-2.8.4c-.9.3-2.1.6-2.9.8-.3,0-.7-.1-.9-.2-.2-.2-.4-.4-.5-.6l-5.6-20.2-15.5-57.1-1.3-5.3h0c-.3-1.2-2.3-8-9.9-12.9-5.7-3.7-14.1-9.1-14.1-9.1h0s0,0,0,0l-11.8-7.4c-1.6-1.3-4.3-2.7-8.7-2.7-1.1,0-2.3,0-3.6.3-5.5.8-11.4,1.5-11.5,1.5h0s0,0,0,0l-10.3,1.3c-.4,0-2.1,0-3.3-1.2-3.2-3-7.7-8.1-8.2-8.7-.9-1.1-4-4.4-8.8-4.4-2,0-3.9.6-5.6,1.7-2.4,1.5-4,4.4-5.7,7.9-2.3,4.7-59.6,116.8-61.8,121.3-.3.6-3.2,5-8.7,5s-1.7,0-2.5-.3h-.5c0-.1-.2-.1-.2-.1-.5-.1-3-1-6.2-4.8l-11.8-14.2c-.5-.6-7.7-10.2-3.7-18,5.9-11.7,7.1-13.8,7.1-13.9l.2-.2.2-.6c.2-.4.8-1.3,2.1-1.5.3,0,.6,0,1,0,1.6,0,2.8.6,3.3.9h-.2c0,0,.5.2.5.2.3.3,1,1.1,1,2.7,0,5.7.1,19.3.1,19.5,0,3.9,2.6,8.3,7.6,9.1.5,0,1,.1,1.6.1,3.6,0,6.4-2,7.8-3.8l.4-.5.3-.6,73.5-144.3h0c0-.1,0-.2,0-.2.4-.8,1.1-2,1.7-2.7.2,0,.4,0,.5,0M-348.7,315h0s0,0,0,0h0M-138.1,348.7h-.2s0,0,0,0h.2M-273.5,139.7c-.6,0-1.4,0-2.3.2-3.4.4-6.3,6.6-6.3,6.6l-73.5,144.3s-.9,1.1-2.3,1.1-.3,0-.4,0c-1.7-.3-1.7-2.2-1.7-2.2,0,0,0-13.7-.1-19.5,0-5.7-4-8.4-4-8.4,0,0-3.1-2.4-7.6-2.4-.7,0-1.4,0-2.1.2-5.6.9-7.5,5.9-7.5,5.9,0,0-1,1.9-7.2,14.1-6.2,12.3,4.6,25.6,4.6,25.6l11.9,14.3c5.9,7.1,10.9,7.3,10.9,7.3,1.4.3,2.7.4,3.9.4,10.2,0,14.8-8.7,14.8-8.7,0,0,59.6-116.7,62-121.5,2.4-4.9,3.1-5,3.1-5,.7-.5,1.3-.7,1.9-.7,1.9,0,3.4,1.9,3.4,1.9,0,0,5.1,5.9,8.9,9.4,3,2.7,6.6,3,8,3s.6,0,.6,0l10.6-1.3s6.1-.7,11.7-1.5c1-.1,1.8-.2,2.6-.2,3.5,0,4.4,1.3,4.4,1.3l12.4,7.7s8.4,5.4,14.1,9.1c5.7,3.7,6.9,8.8,6.9,8.8l1.3,5.3,15.6,57.2,5.8,21s.5,1.5,2.5,3.3c2,1.8,5.9,2,5.9,2,0,0,2.5-.6,4.5-1.2.2,0,.5-.1.7-.1,1.4,0,1.5,1.7,1.5,1.7,0,0,2.6,21.5,3,24.3s.9,5.5.9,5.5c0,0,1,2.4,4,5.3,1.9,1.8,5,2.2,7,2.2s2-.1,2-.1c0,0,5-.8,8.1-5.7,3-4.9.5-11.1.5-11.1,0,0-14.8-64.5-16-70-1.2-5.6-2.3-7-2.6-7.3-2.2-2.5-4.8-3.2-6.9-3.2s-4.2.8-4.7.9c0,0-.2,0-.2,0-.6,0-.7-.8-.7-.8,0,0,0-12.5.4-21.6.3-9.1-7.1-17.8-7.1-17.8-15.7-23.4-45.8-38.5-45.8-38.5,0,0-31.8-16-33-16.7-1.3-.7-.2-2.2-.2-2.2,0,0,.1,0,1.4-2.7,1.3-2.7.7-5.7.7-5.7-1-5.1-5.9-6.3-5.9-6.3l-22-6.9s-.5-.3-2.1-.3h0Z"/>
  <text class="st2" transform="translate(-265.1 156.7)"><tspan x="0" y="0">balaton</tspan><tspan x="0" y="14.4">hungria</tspan></text>
  <text class="st0" transform="translate(-73.8 376)"><tspan x="0" y="0">Misano</tspan></text>
  <path class="st1" d="M184,32.5c3.6,0,7.3.3,11,.9,21.8,3.5,38.6,6.6,38.7,6.6h.6c0,.1.6.1.6.1.5,0,11.8.3,23.3,11,3,2.8,5.8,5,8.2,7,3.9,3.2,6.7,5.5,7.8,7.8.7,1.5,1.4,4.1-.2,10.7-2.7,11.2-4.8,20.4-6.2,26.1-.3,1.3-1.4,2.2-2.5,2.2,0,0-.1,0-.2,0,0-.1-.4-.5-.7-1.3-3.6-10.5-8.9-32.6-9.4-34.4-.6-2.6-3.9-13.4-21.5-17.4-16.7-3.7-36.9-9.5-40-10.4-1-.4-2.9-1-5.1-1-6,0-10.7,4-12.6,10.6-1.7,5.7-28.7,74.1-46.7,119.1-.9,1.2-3.9,4.5-8.1,4.5h-.1c-8.3-.1-12.7-.4-13.3-.4-.2,0-.6,0-1,0-2,0-5.9.5-8.9,3.7-1.7,1.8-3.7,5.1-3.5,10.5.3,5.8-.2,13.5-.3,16.1-1.1,2.8-5.8,13.4-16.9,14.9-4.6.6-11.5.9-20.6.9s-26-.6-32.9-.9c-.5,0-.9-.3-1-.6-.7-1.4-1.1-3.3,1.2-6.2,2.1-2.6,6.3-7.9,8-8.8.1,0,.3,0,.6.2,5.5,2.4,14,6,14.5,6.3.8.3,2.5,1,5,1s7.5-1,11.7-5.7c3.4-3.7,75.7-83.4,88-122.2.8-2.6,3.4-10.6-.8-16.3-1.3-1.7-4.3-4.7-10-4.7-5.4,0-15.7,2.2-43.2,20.9-12.5,8.5-23.3,16.9-26.4,19.3-3.7,1.4-12.3,4.1-19.1,4.1s-5.6-.2-6.6-1.9c-1.2-2.1-1.5-4-.8-5.9,1.5-4.5,7.6-9.3,16.2-12.9,14.9-6.3,99.2-47.9,102.8-49.7h0s0,0,0,0c0,0,7.4-3.8,20.1-3.8M184,25.5c-14.8,0-23.4,4.6-23.4,4.6,0,0-87.6,43.2-102.4,49.5-14.9,6.3-25.6,16.9-18.7,28.8,2.4,4.1,7.2,5.4,12.6,5.4,10.3,0,22.6-4.9,22.6-4.9,0,0,49.5-39.4,66.1-39.4,4.8,0,6.8,3.3,4.1,11.8-12,37.9-86.5,119.7-86.5,119.7-2.5,2.8-4.9,3.4-6.5,3.4s-2.1-.4-2.1-.4c0,0-8.8-3.8-14.6-6.3-1.2-.5-2.4-.8-3.4-.8-3.9,0-7.1,3.6-13.3,11.5-4.4,5.5-3.6,10.4-2,13.6,1.3,2.6,4,4.3,7,4.5,6.5.3,20.3,1,33.2,1s16.1-.2,21.5-1c17.3-2.3,22.9-20.4,22.9-20.4,0,0,.7-10.2.4-17.8-.3-6.3,4-6.9,5.4-6.9.3,0,.5,0,.5,0,0,0,4.5.3,13.8.4,0,0,.1,0,.2,0,9.2,0,14.3-8.2,14.3-8.2,0,0,44.9-112.4,47.2-120.5,1.3-4.6,3.9-5.6,5.9-5.6,1.5,0,2.7.6,2.7.6,0,0,22.4,6.5,40.9,10.6,14.8,3.3,16.2,12,16.2,12,0,0,5.7,23.9,9.6,35.2,1.6,4.6,4.5,6,7.3,6.1,0,0,.1,0,.2,0,4.5,0,8.3-3.3,9.3-7.6,1.3-5.3,3.4-14.6,6.2-26.1,4.4-18.2-3.9-19.4-17.9-32.3-13.8-12.8-27.8-12.8-28-12.8h0s-16.8-3-38.9-6.6c-4.4-.7-8.5-1-12.1-1h0Z"/>
</svg>