<?xml version="1.0" encoding="UTF-8"?>
<svg id="Capa_1" xmlns="http://www.w3.org/2000/svg" version="1.1" xmlns:xlink="http://www.w3.org/1999/xlink" viewBox="0 0 273.2 159.3">
  <!-- Generator: Adobe Illustrator 29.2.0, SVG Export Plug-In . SVG Version: 2.1.0 Build 108)  -->
  <defs>
    <style>
      .st0 {
        fill: none;
      }

      .st1 {
        clip-path: url(#clippath);
      }
    </style>
    <clipPath id="clippath">
      <path class="st0" d="M250.7,60.3v58.7c0,7.8-6.3,14.2-14.2,14.2s-1.9,0-2.9-.3c0,0,0,.2,0,.3H41.7s0,0,0,0c-.1,0-.2,0-.3,0h-5.3c-6.6-1.2-11.5-7-11.5-13.9v-58.9c0-7.8,6.3-14.2,14.2-14.2h32.9c17.3-16,40.5-25.8,66-25.8s48.6,9.8,66,25.8h32.9c7.8,0,14.2,6.3,14.2,14.2Z"/>
    </clipPath>
  </defs>
  <g class="st1">
    <image width="600" height="300" transform="translate(21 18.7) scale(.4)" xlink:href="chile-1.png"/>
  </g>
</svg>