<?xml version="1.0" encoding="UTF-8"?>
<svg id="Capa_1" xmlns="http://www.w3.org/2000/svg" version="1.1" xmlns:xlink="http://www.w3.org/1999/xlink" viewBox="0 0 273.2 159.3">
  <!-- Generator: Adobe Illustrator 29.2.0, SVG Export Plug-In . SVG Version: 2.1.0 Build 108)  -->
  <defs>
    <style>
      .st0 {
        fill: none;
        stroke: #030303;
        stroke-miterlimit: 10;
      }

      .st1 {
        clip-path: url(#clippath);
      }
    </style>
    <clipPath id="clippath">
      <path class="st0" d="M251,50.9v74.3c0,3.5-2.5,6.5-5.8,7.2H29c-3.6-.5-6.4-3.6-6.4-7.4V51c0-4.1,3.3-7.4,7.4-7.4h34.4c.9,0,8.1-.2,16.9-6.6.5-.4,1-.7,1.5-1.1,0,0,0,0,0,0,10.1-8,20.9-12.4,20.9-12.4,0,0,18.1-4.7,23.3-4.7h0c5.3,0,15.6-.3,15.6-.3,0,0,0,0,0,0,0,0,0,0,0,0,0,0,0,0,0,0,0,0,0,0,.1,0,0,0,0,0,.1,0,0,0,0,0,.1,0,0,0,.2,0,.2,0,0,0,0,0,.1,0h.1c0,0,.1,0,.2,0,.2,0,.5,0,.7,0,0,0,.2,0,.3,0,5.7.5,20.5,2.1,28.4,6.4,9.8,5.4,16.1,9.6,16.1,9.6l6.7,4.8s4.8,3.9,12.1,4.3h36.5c3.6.5,6.3,3.6,6.3,7.3Z"/>
    </clipPath>
  </defs>
  <g class="st1">
    <image width="600" height="300" transform="translate(22.5 18.2) scale(.4)" xlink:href="estonia-1.png"/>
  </g>
  <path class="st0" d="M251,50.9v74.3c0,3.5-2.5,6.5-5.8,7.2H29c-3.6-.5-6.4-3.6-6.4-7.4V51c0-4.1,3.3-7.4,7.4-7.4h34.4c.9,0,8.1-.2,16.9-6.6.5-.4,1-.7,1.5-1.1,0,0,0,0,0,0,10.1-8,20.9-12.4,20.9-12.4,0,0,18.1-4.7,23.3-4.7h0c5.3,0,15.6-.3,15.6-.3,0,0,0,0,0,0,0,0,0,0,0,0,0,0,0,0,0,0,0,0,0,0,.1,0,0,0,0,0,.1,0,0,0,0,0,.1,0,0,0,.2,0,.2,0,0,0,0,0,.1,0h.1c0,0,.1,0,.2,0,.2,0,.5,0,.7,0,0,0,.2,0,.3,0,5.7.5,20.5,2.1,28.4,6.4,9.8,5.4,16.1,9.6,16.1,9.6l6.7,4.8s4.8,3.9,12.1,4.3h36.5c3.6.5,6.3,3.6,6.3,7.3Z"/>
</svg>