<?xml version="1.0" encoding="UTF-8"?>
<svg id="Capa_1" xmlns="http://www.w3.org/2000/svg" version="1.1" xmlns:xlink="http://www.w3.org/1999/xlink" viewBox="0 0 273.2 159.3">
  <!-- Generator: Adobe Illustrator 29.2.0, SVG Export Plug-In . SVG Version: 2.1.0 Build 108)  -->
  <defs>
    <style>
      .st0 {
        fill: none;
      }

      .st1 {
        clip-path: url(#clippath);
      }
    </style>
    <clipPath id="clippath">
      <path class="st0" d="M254.3,56.2v67c0,4.3-3,8-7.3,9.4-1.2.4-2.4.6-3.8.6H32.6c-1.5,0-2.8-.3-4.1-.7-4-1.5-6.9-5.1-6.9-9.3V56.2c0-5.5,4.9-10,11-10h32.4c3.2-2.8,6.5-5.5,10-8,12.7-9.1,38.8-16.4,62.8-16.4s39.1,3.8,54.9,11.9c6.3,3.3,12.5,7.5,18.2,12.4h32.5c6.1,0,11,4.5,11,10Z"/>
    </clipPath>
  </defs>
  <g class="st1">
    <image width="600" height="300" transform="translate(18.2 17.8) scale(.4)" xlink:href="europa-1.png"/>
  </g>
</svg>