<?xml version="1.0" encoding="UTF-8"?>
<svg id="Capa_1" xmlns="http://www.w3.org/2000/svg" version="1.1" xmlns:xlink="http://www.w3.org/1999/xlink" viewBox="0 0 273.2 159.3">
  <!-- Generator: Adobe Illustrator 29.2.0, SVG Export Plug-In . SVG Version: 2.1.0 Build 108)  -->
  <defs>
    <style>
      .st0 {
        fill: none;
      }

      .st1 {
        clip-path: url(#clippath);
      }
    </style>
    <clipPath id="clippath">
      <path class="st0" d="M251.8,68.1v53.2c-.2,4.2-3.4,7.6-7.4,8.2h-2.4c-1.4-.2-2.8-.8-3.9-1.6h0c0,.6,0,1.1,0,1.6H30.1c-4.8,0-8.7-3.9-8.7-8.8v-52.5c0-4.8,3.9-8.8,8.7-8.8h28.8c18.6-22.5,46.6-36.8,77.8-36.8s59.2,14.3,77.8,36.8h29.8c4.3.5,7.6,4.2,7.6,8.7Z"/>
    </clipPath>
  </defs>
  <g class="st1">
    <image width="600" height="300" transform="translate(18 19.5) scale(.4)" xlink:href="finlandia-1.png"/>
  </g>
</svg>