<?xml version="1.0" encoding="UTF-8"?>
<svg id="Capa_1" xmlns="http://www.w3.org/2000/svg" version="1.1" xmlns:xlink="http://www.w3.org/1999/xlink" viewBox="0 0 273.2 159.3">
  <!-- Generator: Adobe Illustrator 29.2.0, SVG Export Plug-In . SVG Version: 2.1.0 Build 108)  -->
  <defs>
    <style>
      .st0 {
        fill: none;
      }

      .st1 {
        clip-path: url(#clippath);
      }
    </style>
    <clipPath id="clippath">
      <path class="st0" d="M242.4,62v63.5c0,5.8-4.7,10.4-10.4,10.4H39.9c-5.1-.7-9.1-5-9.1-10.3v-63.6c0-5.9,4.1-11.3,9.6-12.7,0,0,0,0,0,0h0s0,0,0,0h0c0,0,.2,0,.3,0h.2s0,0,0,0h.6c0-.1.3-.2.3-.2h.1s0,0,0,0c1.7-.3,3.9-.7,4.1-.8.4,0,35.9-5.9,35.9-5.9,0,0,4.1-.5,6.6-3.2.2-.2.3-.4.5-.6,0,0,0,0,0,0,0,0,0,0,0,0,11.1-13.6,28.1-22.3,47.2-22.3s29.5,5.7,40.2,15l4.4,4.2,5.1,4.9s1.5,1.6,6.3,2.3c4.8.7,31.6,4.8,31.6,4.8l5.9,1,3.1,1c5.4,1.4,9.5,6.7,9.5,12.6Z"/>
    </clipPath>
  </defs>
  <g class="st1">
    <image width="600" height="300" transform="translate(16.7 16.1) scale(.4)" xlink:href="japan-1.png"/>
  </g>
</svg>