<?xml version="1.0" encoding="UTF-8"?>
<svg id="Capa_1" xmlns="http://www.w3.org/2000/svg" version="1.1" xmlns:xlink="http://www.w3.org/1999/xlink" viewBox="0 0 273.2 159.3">
  <!-- Generator: Adobe Illustrator 29.2.0, SVG Export Plug-In . SVG Version: 2.1.0 Build 108)  -->
  <defs>
    <style>
      .st0 {
        fill: none;
        stroke: #fff;
        stroke-miterlimit: 10;
      }

      .st1 {
        clip-path: url(#clippath);
      }
    </style>
    <clipPath id="clippath">
      <path class="st0" d="M250.1,74v42.3c-.2,5.3-4.4,9.7-9.7,10.2H33.7c-5.9,0-10.6-4.8-10.6-10.6v-40.6c0-5.9,4.8-10.6,10.6-10.6h34c13.6-23.9,39.4-40.1,68.9-40.1s55.2,16.1,68.9,40.1h35.4c4.9.6,8.7,4.5,9.2,9.4Z"/>
    </clipPath>
  </defs>
  <g class="st1">
    <image width="664" height="300" transform="translate(23.1 24) scale(.3)" xlink:href="rallySweeden-1.png"/>
  </g>
  <path class="st0" d="M250.1,74v42.3c-.2,5.3-4.4,9.7-9.7,10.2H33.7c-5.9,0-10.6-4.8-10.6-10.6v-40.6c0-5.9,4.8-10.6,10.6-10.6h34c13.6-23.9,39.4-40.1,68.9-40.1s55.2,16.1,68.9,40.1h35.4c4.9.6,8.7,4.5,9.2,9.4Z"/>
</svg>