<?xml version="1.0" encoding="UTF-8"?>
<svg id="Capa_1" xmlns="http://www.w3.org/2000/svg" version="1.1" xmlns:xlink="http://www.w3.org/1999/xlink" viewBox="0 0 273.2 159.3">
  <!-- Generator: Adobe Illustrator 29.2.0, SVG Export Plug-In . SVG Version: 2.1.0 Build 108)  -->
  <defs>
    <style>
      .st0 {
        fill: none;
        stroke: #160f0e;
        stroke-miterlimit: 10;
      }

      .st1 {
        clip-path: url(#clippath);
      }
    </style>
    <clipPath id="clippath">
      <path class="st0" d="M249.7,59.2v63.7c-1.2,7.1-7.4,12.6-14.9,12.6H38.6c-6.6-.9-11.9-6.2-12.8-12.8v-57.4c-.2-1.3-.2-2.3-.2-3.6,0-8.3,6.5-15.2,14.8-15.2h28.1c19-16.1,43.6-25.9,70.5-25.9s51.5,9.7,70.5,25.9h25.9c7.3.3,13.3,5.8,14.3,12.8Z"/>
    </clipPath>
  </defs>
  <g class="st1">
    <image width="584" height="300" transform="translate(25.6 20.4) scale(.4)" xlink:href="rallyMontecarlo-1.png"/>
  </g>
  <path class="st0" d="M249.7,59.2v63.7c-1.2,7.1-7.4,12.6-14.9,12.6H38.6c-6.6-.9-11.9-6.2-12.8-12.8v-57.4c-.2-1.3-.2-2.3-.2-3.6,0-8.3,6.5-15.2,14.8-15.2h28.1c19-16.1,43.6-25.9,70.5-25.9s51.5,9.7,70.5,25.9h25.9c7.3.3,13.3,5.8,14.3,12.8Z"/>
</svg>