<?xml version="1.0" encoding="UTF-8"?>
<svg id="Capa_1" xmlns="http://www.w3.org/2000/svg" version="1.1" xmlns:xlink="http://www.w3.org/1999/xlink" viewBox="0 0 273.2 159.3">
  <!-- Generator: Adobe Illustrator 29.2.0, SVG Export Plug-In . SVG Version: 2.1.0 Build 108)  -->
  <defs>
    <style>
      .st0 {
        fill: none;
      }

      .st1 {
        clip-path: url(#clippath-1);
      }

      .st2 {
        clip-path: url(#clippath);
      }
    </style>
    <clipPath id="clippath">
      <path class="st0" d="M250.8,52.2v75.1c0,3-2.5,5.4-5.4,5.4H27.9c-2.3,0-4.3-1.4-5.1-3.4-.1-.3-.2-.6-.3-.9,0-.2,0-.3,0-.5V53.1c0-.3,0-.5,0-.8.4-2.2,2.2-4,4.4-4.4,0,0,.1,0,.2,0,.2,0,.5,0,.7,0h60.4c9.4-17.4,27.8-29.2,49-29.2s39.5,11.8,49,29.2h59.5c2.5.2,4.6,2,5.1,4.4Z"/>
    </clipPath>
    <clipPath id="clippath-1">
      <rect class="st0" x=".3" y="17.8" width="272.7" height="115.6"/>
    </clipPath>
  </defs>
  <g class="st2">
    <g class="st1">
      <image width="1080" height="458" transform="translate(.3 17.8) scale(.3)" xlink:href="saudi-1.png"/>
    </g>
  </g>
</svg>