<?xml version="1.0" encoding="UTF-8"?>
<svg id="Capa_1" xmlns="http://www.w3.org/2000/svg" version="1.1" viewBox="0 0 297 259.5">
  <!-- Generator: Adobe Illustrator 29.2.0, SVG Export Plug-In . SVG Version: 2.1.0 Build 108)  -->
  <path d="M136.8,152.6l-.5-4.9c-1.4-10.1,2.8-21.1,14.6-32.3,10.6-9.9,16.5-17.2,16.5-25.6s-7.5-15.9-22.4-16c-8.5,0-17.9,2.2-23.8,5.8l-5.6-11.8c7.8-4.5,21.2-7.5,33.7-7.5,27.1,0,39.3,13.2,39.3,27.4s-8.9,21.8-20.2,32.5c-10.4,9.7-14.1,17.9-13.4,27.4l.2,4.9h-18.4ZM131.6,178.8c0-6.9,5.9-11.8,14.1-11.8s13.9,4.9,13.9,11.8-5.4,11.6-14.1,11.6-13.9-5-13.9-11.6Z"/>
</svg>