<?xml version="1.0" encoding="UTF-8"?>
<svg id="Capa_1" xmlns="http://www.w3.org/2000/svg" version="1.1" viewBox="0 0 221.6 148.6">
  <!-- Generator: Adobe Illustrator 29.2.0, SVG Export Plug-In . SVG Version: 2.1.0 Build 108)  -->
  <path d="M44.7,17.7c4.5,0,9.4,2.1,12.1,3.1,4.2,1.6,19.6,6.9,16.9,11.1-2.6,4.2,0,9.5,0,9.5,0,0,6.9,10,18.5,19.6,7.1,5.8,9.7,7.1,12.9,7.1s4.4-.5,8.3-.7c2.7-.1,3.9-.2,4.5-.2,1.6,0-1.8.5,5.5,1.3,4,.4,5.3.9,6,.9,1,0,.5-1.2,5.7-5.6,6.2-5.3,8.7-6,9.6-6,.3,0,.4,0,.4,0h23.9s23.3,9.5,35.4,14.3c12.2,4.8,4.2,11.6,4.2,11.6l-4.8,13.2c-2.3,6.5-6.3,8.1-9.8,8.1s-6.6-1.8-6.6-1.8l-13.8-6.9c-2.9-1.5-5.2-2-7.1-2-6.7,0-6.7,7.9-6.7,7.9v20.1c0,7.1-1.8,8.5-3.2,8.5s-1.6-.6-1.6-.6h-76.2c-7.4,0-4.2-1.6-4.2-1.6-2.5-12-9.5-13.3-12.5-13.3-.8,0-1.3,0-1.3,0l-40.7-1.1s5.8-3.2,10-9c4.2-5.8-1.6-10.6-1.6-10.6,0,0-15.9-13.2-17.5-14.8-1.6-1.6,0-5.6,0-5.6l-.7-21.7s0,0,0,0c-.1,0-.2-.7,3.7-8,4.8-9,4.5-13.5,4.5-13.5l7.4-2.1c7.4-2.1,6.3-3.7,11.6-9,1.9-1.9,4.4-2.6,6.9-2.6M44.7,12.7h0c-4.3,0-7.8,1.4-10.5,4-1.7,1.7-2.8,3.1-3.7,4.2-1.7,2.1-2,2.5-5.7,3.5l-7.4,2.1c-2.3.7-3.9,2.6-3.6,5,0,.6-.4,4.2-3.9,10.9-3.5,6.6-4.9,9.2-4.2,11.6l.6,19.5c-.7,2.3-1.6,6.8,1.5,9.9,1.7,1.7,15.1,12.8,17.8,15.1,1.4,1.3,1.7,2.5.8,3.8-3.5,4.8-8.4,7.5-8.4,7.5-2,1.1-3,3.4-2.5,5.6.5,2.2,2.5,3.8,4.7,3.8l40.7,1.1c.1,0,.2,0,.3,0,.2,0,.4,0,.7,0,0,0,.2,0,.4,0,3.2,0,5.7,2.6,7.1,7.3-.3.9-.4,1.9-.1,2.9,1.1,4.7,6.5,4.7,9.8,4.7h75c.8.3,1.7.6,2.8.6,2.8,0,5.2-1.6,6.6-4.3,1.1-2.2,1.6-5.1,1.6-9.1v-20.1c0-.3.1-1.3.5-2.1.3-.6.5-.8,1.2-.8s2.2.2,4.8,1.5l13.6,6.8c.9.5,4.6,2.4,9,2.4s10.9-1.5,14.5-11.4l4.4-12.2c1.5-1.7,3.8-5,3.1-9.3-.7-4.2-4-7.4-9.8-9.7-12-4.7-35.1-14.2-35.4-14.3-.6-.2-1.2-.4-1.9-.4h-23.2c-.4,0-.7,0-1.1,0-2.2,0-5.4.9-12.8,7.2-2,1.7-3.2,3-4.1,4-.9-.2-2.2-.3-3.8-.5-1.4-.1-2.2-.3-2.7-.3-.8-.6-1.9-.9-3.3-.9-.7,0-1.9,0-4.8.2-2.2.1-3.9.3-5.3.5-1.2.1-2.1.2-2.8.2-1.4,0-2.9-.4-9.7-6-9.7-7.9-16-16.4-17.3-18.2-.4-1-.9-3.1-.1-4.4,1.1-1.8,1.4-3.9.7-5.9-1.7-4.9-8.3-8.1-19.1-12.1-.4-.1-.7-.3-1-.4-.3-.1-.6-.2-.9-.4-3.2-1.2-8-3.1-12.9-3.1h0Z"/>
</svg>