<?xml version="1.0" encoding="UTF-8"?>
<svg id="Capa_1" xmlns="http://www.w3.org/2000/svg" version="1.1" viewBox="0 0 221.6 148.6">
  <!-- Generator: Adobe Illustrator 29.2.0, SVG Export Plug-In . SVG Version: 2.1.0 Build 108)  -->
  <path d="M158.6,14.2c4.4,0,7.6,5.4,7.6,5.4l40.7,98.1s2.7,1.7,1.6,7.3c-1,5.6-14.6,9.3-14.6,9.3l-175.7-.3c-10.6-2.3-2-11-2-11l12.3-6s7.3-5.6,3-16.6c-4.3-11-3.9-20.9-3.9-20.9,0,0,20.7-49.8,22.4-52.5.6-.9,1.5-1.5,2.7-1.5,2.3,0,5.9,1.9,11.2,6.8,6.6,6.1,10.7,6.7,12.1,6.7s.5,0,.5,0c0,0,.2,0,.6,0,2.3,0,10.7.5,10.7,7.7,0,8.3,4.3,15,4.3,15,0,0,11.3,5.3,9.9,12.4-.9,4.6-4.3,5.9-8.3,5.9s-4.3-.3-6.4-.7c-1.2-.2-2.7-.3-4.4-.3-6.4,0-14.6,1.2-14.6,1.2,0,0-14,9.3-17,16.6-3,7.3,6.6,10.3,6.6,10.3,0,0,23,.2,42.9.2s14.1,0,19.2-.1c19.3-.3,16.6.7,21.9-3.9,5.3-4.6,5-12.3,4-21.3-1-9-15.9-20-20.9-22.3-5-2.3-9.6-6.3-11.7-14.6-2-8.3,4.4-14.9,4.4-14.9,0,0,34.6-14.9,39.6-15.9.4,0,.7-.1,1.1-.1M158.6,9.2h0s0,0,0,0c-.7,0-1.4,0-2,.2-5.2,1-34.7,13.7-40.6,16.2-.6.3-1.2.6-1.6,1.1-.3.4-8.3,8.7-5.7,19.6,2.1,8.5,6.8,14.4,14.4,18,5,2.4,17.4,12.3,18,18.3,1,8.8.9,14.1-2.3,16.9-.4.4-.8.7-1.1,1-1.4,1.3-1.5,1.3-1.8,1.4-1,.2-3.6.3-7.5.3-2.2,0-4.9,0-8.3,0-4.6,0-11.1.1-19.2.1-17.5,0-37.6-.2-42-.2-1.2-.5-2.7-1.4-3.1-2.3,0-.1-.2-.4.1-1.1,1.6-3.8,8.9-10.1,14.2-13.7,2.4-.3,8.1-1,12.7-1s2.9.1,3.5.2c2.2.4,4.7.8,7.2.8,9.8,0,12.5-6.2,13.2-9.9,1.7-8.9-7.4-15-11.2-17.1-1-1.9-2.9-6.3-2.9-11.2,0-3.3-1.1-6.2-3.3-8.3-3.8-3.8-9.4-4.3-12.4-4.3s-.8,0-.8,0c-.1,0-.2,0-.3,0-.4,0-3.3-.5-8.6-5.4-6.1-5.6-10.6-8.2-14.6-8.2s-5.4,1.4-7,3.8c-1.7,2.7-16.5,38.1-22.7,53.2-.2.6-.4,1.1-.4,1.7,0,.4-.3,11.1,4.3,22.9,2.5,6.3-.2,9.7-1.1,10.6l-11.7,5.7c-.5.2-1,.6-1.3,1-1,1-6.2,6.5-4.4,12.4.7,2.5,2.8,5.7,8.9,7,.4,0,.7.1,1.1.1l175.7.3s0,0,0,0c.4,0,.9,0,1.3-.2.2,0,3.9-1,7.7-2.8,6.4-2.9,9.8-6.3,10.5-10.4.9-5.2-.5-9-2.4-11.1l-40.3-97.1c0-.2-.2-.4-.3-.6-.5-.8-4.8-7.9-11.9-7.9h0Z"/>
</svg>