<?xml version="1.0" encoding="UTF-8"?>
<svg id="Capa_1" xmlns="http://www.w3.org/2000/svg" version="1.1" viewBox="0 0 221.6 148.6">
  <!-- Generator: Adobe Illustrator 29.2.0, SVG Export Plug-In . SVG Version: 2.1.0 Build 108)  -->
  <path d="M44.1,12c1,0,2,.3,2.8.9l25.2,19.3c1.2.9,1.8,2.3,1.8,3.8l-.2,6.2c0,.9-.4,1.8-.9,2.6l-6.1,8c-.3.4-.5.8-.7,1.2-.6,1.6-1.4,5.2,2.4,6.5,3.4,1.2,14.5,5.8,20.7,7.9,1,.3,2,.5,3,.5,1.7,0,3.4-.5,4.9-1.4.4-.3.8-.6,1.1-1l.3-.3c.9-1.1,2.2-1.8,3.6-1.8s.6,0,1,.1c1.8.4,4.4,1.2,8.1,2.8,7.9,3.5,13.5,6.3,13.5,6.3,0,0,.7.6,2,.6s3.2-.6,5.6-3c3.2-3.2,6.8-7.9,8.8-10.7.9-1.2,2.3-1.9,3.7-1.9.9,0,1.9.3,2.7.9,0,0,0,0,.1,0l62.6,47.6c.5.4.9.8,1.2,1.3.7,1.2,1.3,3.5-.8,6.6-3.1,4.8-14.3,19.6-14.3,19.6,0,0-.8,1.8-3.1,1.8s-2.8-.5-4.8-1.9c-5.8-3.9-60.5-47.1-67.2-52.3-.4-.3-.9-.6-1.5-.8l-45.1-14.2c-.4-.1-.9-.2-1.4-.2-.3,0-.5,0-.8,0l-8.3,1.4c-.2,0-.5,0-.8,0s-.3,0-.5,0c-2.3-.3-10.5-1.3-14.9-3.1-4.2-1.7-9.1-2.3-10.8-2.4-.1,0-.3,0-.4,0-.3,0-.5,0-.8,0l-16.7,2.9s-.3,0-.7,0c-1.3,0-4-.5-4.5-4.9-.7-7.3-2.7-21.1-3.4-26.1-.2-1.2.1-2.4.9-3.4l11.6-15.6c.7-1,1.8-1.6,3-1.8l17.7-2.5c.2,0,.4,0,.6,0M44.1,7c-.4,0-.9,0-1.3,0l-17.7,2.5c-2.5.4-4.8,1.7-6.3,3.7l-11.6,15.6c-1.5,2-2.2,4.5-1.8,7.1.6,4.2,2.6,18.6,3.4,25.9.7,7,5.5,9.4,9.4,9.4s1.3,0,1.6-.1l16.6-2.9c1.3.1,5.7.6,9.3,2.1,4.8,2,12.9,3.1,16.2,3.4.4,0,.7,0,1.1,0,.5,0,1.1,0,1.6-.1l8.2-1.4,44.9,14.1c10.4,8.2,61.5,48.5,67.4,52.5,2.7,1.8,5.2,2.7,7.6,2.7,3.5,0,6.1-2,7.4-4.2,1.7-2.3,11.2-15,14.2-19.6,3.7-5.6,1.9-10.1.9-11.8-.6-1.1-1.4-2-2.5-2.8l-62.6-47.6h-.1c-1.6-1.3-3.6-2-5.7-2-3.1,0-6,1.5-7.8,4-1.8,2.5-5.2,7.1-8.2,10.1-.9.9-1.5,1.3-1.8,1.4-.7-.4-6.1-3-13.7-6.4-3.4-1.5-6.4-2.5-9-3.1-.7-.1-1.3-.2-2-.2-2.9,0-5.7,1.4-7.5,3.7l-.2.2c-.6.3-1.3.5-2.1.5s-.9,0-1.4-.2c-3.9-1.3-10.1-3.8-14.6-5.5-2.3-.9-4.1-1.6-5.4-2.1,0,0,0-.2,0-.3l6.1-8c1.2-1.6,1.9-3.4,1.9-5.4l.2-6.2c.1-3.1-1.3-6.1-3.7-7.9l-25.2-19.3c-1.7-1.3-3.7-2-5.8-2h0Z"/>
</svg>