<?xml version="1.0" encoding="UTF-8"?>
<svg id="Capa_1" xmlns="http://www.w3.org/2000/svg" version="1.1" viewBox="0 0 221.6 148.6">
  <!-- Generator: Adobe Illustrator 29.2.0, SVG Export Plug-In . SVG Version: 2.1.0 Build 108)  -->
  <defs>
    <style>
      .st0 {
        fill: none;
        stroke: #000;
        stroke-miterlimit: 10;
        stroke-width: 5px;
      }
    </style>
  </defs>
  <path class="st0" d="M65-207.6"/>
  <path d="M199.8,12.2c1.6,0,11.7.5,8.3,12.3-3.3,11.5-8.2,29.5-9.2,32.9,0,.2-.2.3-.4.3s-.2,0-.2,0c-.9-.5-2.8-1.5-4.8-1.5-1.7,0-3.6.7-5.1,3-3.8,5.9-7.3,9.1-12.5,13.7-5.2,4.6-2.1,8.2-2.1,8.2,0,0-.3,3.6-9.9,8.4-9.7,4.9-16.9,9.3-16.9,9.3,0,0-3.2,1.5-1.7,5.4,2.2,5.9,3.1,6.2,3.2,6.2s0,0,0,0c0,0,3.1,4,2.8,8.8-.4,6-3.3,10.6-13.2,10.9-11,.4-40,3.2-40,3.2l-19.6-6s.4-11.8-9.4-11.8c-.6,0-1.3,0-2,.2-11.9,1.7-28.3,2.9-28.3,2.9,0,0-9.1,4.3-14.5,7.1-5.5,2.8-9.9,4-9.9,4l21.3-17,19.3-22.6s2-2.6,8.8-6.1L199.6,12.2s0,0,.2,0M199.8,7.2c-.3,0-.5,0-.5,0-.7,0-1.5.2-2.1.6L61.4,79.5c-6.9,3.7-9.6,6.6-10.3,7.3l-19,22.2-20.9,16.7c-1.9,1.5-2.4,4.1-1.3,6.2.9,1.7,2.6,2.7,4.5,2.7s.9,0,1.3-.2c.2,0,5-1.4,10.9-4.4,4.4-2.2,11.2-5.5,13.6-6.6,3.7-.3,17.3-1.4,27.7-2.9.5,0,.9-.1,1.3-.1,1.5,0,2.2.5,2.6.9,1.5,1.5,1.8,4.8,1.7,5.8,0,2.3,1.4,4.3,3.5,4.9l19.6,6c.5.1,1,.2,1.5.2s.3,0,.5,0c.3,0,28.9-2.8,39.6-3.2,14.1-.5,17.6-8.7,18-15.6.4-6.5-3.4-11.6-3.9-12.1-.2-.3-.5-.5-.7-.8-.3-.5-.8-1.6-1.6-3.7,1.8-1.1,8.1-4.8,16.1-8.8,10.6-5.3,12.5-10.1,12.7-12.5,0-1.1-.2-2.3-.9-3.2,0-.2.4-.7,1.3-1.6,5.6-4.9,9.3-8.4,13.4-14.7.4-.7.7-.7.9-.7.6,0,1.5.3,2.2.8.8.5,1.8.8,2.8.8,2.4,0,4.6-1.7,5.3-4,.9-3.5,5.8-21.4,9.1-32.9,1.6-5.5,1.1-10-1.5-13.5-3.6-4.8-9.8-5.2-11.6-5.2h0Z"/>
</svg>