<?xml version="1.0" encoding="UTF-8"?>
<svg id="Capa_1" xmlns="http://www.w3.org/2000/svg" version="1.1" viewBox="0 0 273.2 159.3">
  <!-- Generator: Adobe Illustrator 29.2.0, SVG Export Plug-In . SVG Version: 2.1.0 Build 108)  -->
  <path d="M69.6,21.2c3.2,0,8.7,4.2,11.5,7.2,2.7,3.6,32.6,43.4,39.5,52.3,4,5.1,9.7,7.9,16.5,7.9s9.3-1.6,10.1-1.9l105-41.3s0,0,0,0c2.2,0,4.5,2,6.3,5.5.8,1.6.7,2.6.5,3.2-.8,2.3-4.2,4.4-5.7,5h0s0,0,0,0c-.3.2-34.9,16-51.6,23.8-16.7,7.8-53.5,24.4-53.9,24.6h-.3c0,.1-.3.3-.3.3l-31.4,18c-.6.3-.9.5-1.2.5-.1,0-.2-.2-.4-.3-.2-.2-.4-.4-.6-.5-1.4-1.2-3.1-1.8-4.9-1.8-2.7,0-4.7,1.4-5.5,2-1,.8-12.5,9.5-23.1,17.1-2,1.5-3.9,2.2-5.4,2.2s-3.1-1.3-3.4-1.7h0s-.2-.3-.2-.3l-6.8-8.7-27.3-35.9h0s0,0,0,0c-.2-.2-15.4-19.8-21.4-28.1-3.3-4.6-1-8.6-.5-9.4h0c0,0,6.6-9.7,11-14.7.6-.7.9-.9,1-.9.3,0,1.4.5,2.8,2.3.6.8.6,1.2.6,1.5l-.2.5v.2c-.4.7-1.6,2.7-4.8,7-6.5,8.8-2.6,17,.7,20.5,2.6,3.3,26.9,35.1,33.2,43.7,5.1,6.9,10.1,10.5,15,10.5s1,0,1.5-.1c3.1-.5,8.4-2.9,15.7-7.4,13.8-8.4,12.8-22.4,12.8-23v-.5s-.1-.4-.1-.4c0,0-1.7-7.4-2.6-13.6-1-6.8-3.1-10.1-4.3-11.5-1.9-2.5-21.2-28.1-28.8-37.9-3.8-5-4.9-7.8-5.2-9h0s0-1.1,0-1.1c.2-.6,1.1-3.3,5.4-5.6.2,0,.4-.2.8-.2h0M69.6,15.2c-1.3,0-2.5.3-3.7.9-8.1,4.3-8.6,10.3-8.6,10.3,0,0-1.7,4,6.4,14.4,8,10.4,28.9,38.1,28.9,38.1,0,0,2.1,2.1,3,8.5.9,6.5,2.7,14.1,2.7,14.1,0,0,.9,10.8-9.9,17.4-10.7,6.5-13.5,6.6-13.5,6.6h0s-.2,0-.5,0c-1.3,0-4.8-.8-10.1-8-6.7-9.2-33.5-44.1-33.5-44.1,0,0-5.8-5.6-.4-13,5.4-7.4,5.7-8.7,5.7-8.7,0,0,1.9-3.7-1.4-7.8-2-2.5-4.7-4.5-7.5-4.5-1.8,0-3.7.8-5.5,3-4.7,5.4-11.4,15.3-11.4,15.3,0,0-5.5,7.8.6,16.3,6.1,8.5,21.5,28.3,21.5,28.3l27.3,35.9,6.8,8.7s2.9,4.3,8.3,4.3,5.4-.9,8.9-3.4c11.2-8.1,23.3-17.3,23.3-17.3,0,0,.8-.7,1.8-.7.4,0,.8.1,1.1.4.9.7,2.2,2.3,4.6,2.3s2.6-.4,4.4-1.4l31.4-18s37-16.7,53.9-24.6c16.9-7.9,51.6-23.8,51.6-23.8,0,0,13.7-5.8,8.2-16.5-4-7.7-9-8.8-11.6-8.8-1,0-1.6.2-1.6.2l-105.7,41.5s-3.5,1.5-7.8,1.5-8.4-1.2-11.8-5.5c-7.2-9.3-39.6-52.5-39.6-52.5,0,0-8.6-9.4-16.1-9.4h0Z"/>
</svg>