<?xml version="1.0" encoding="UTF-8"?>
<svg id="Capa_1" xmlns="http://www.w3.org/2000/svg" version="1.1" viewBox="0 0 221.6 148.6">
  <!-- Generator: Adobe Illustrator 29.2.0, SVG Export Plug-In . SVG Version: 2.1.0 Build 108)  -->
  <path d="M69.6,9.8s0,0,0,0l140.5,1c.9,0,1.3,1,.7,1.7l-24.1,26.6s-3.5,4.5-6.4,4.5-1.4-.3-2.1-1c-2.8-3.2-5.7-9.3-13-9.3-.6,0-1.2,0-1.8.1-5.7.7-10,9.2-10,9.2l-2.4,6.2s-.7,4.1-4.8,4.1-2.5-.3-4.1-1c-5.2-2.3-10-3.9-14.2-3.9-2.2,0-4.2.4-6,1.3-5.5,2.7-6.9,6.1-6.9,6.1l-2.8,5.1s-1.1,3.3-3.9,4c-2.8.7-6.2,3.4-6.2,3.4,0,0-2.9,2.7-4.3,8.5-.7,2.8-12,6.9-16.7,8.5-1.6.5-3,1.4-4.2,2.4-3,2.5-8,7.6-9.2,13.3-1.6,7.3-.6,32-.3,37.6,0,.3-.2.4-.4.4s-.2,0-.3-.1L10.8,78.9c-.4-.4-.3-1.1.2-1.4l21.9-11.1c.4-.2.9-.3,1.3-.3.7,0,1.5.3,2,.8l11.3,10.6c.6.5,1.2,1,2,1.4,2.6,1.2,6.6,5.1,12.4,5.1s7.5-1.4,12.3-5.6c9.5-8.4,10.3-17.3,2.2-28-6.9-9-19.6-22.3-23.4-26.3-.9-1-1.1-2.5-.2-3.5.3-.3.7-.6,1.2-.6.8,0,1.9.5,3.3,2.1,3.5,3.8,13.9,16.1,19.1,22.3,2,2.4,4.8,3.9,7.8,3.9s1.7-.1,2.6-.4c1.4-.4,2.7-1.4,3.5-2.4,2.9-3.6,2.9-7.4-3.8-14.5-5.8-6.2-14.8-16.4-17.5-19.9-.4-.5,0-1.1.6-1.1M69.6,4.8h0c-2.2,0-4.2,1.2-5.1,3.2-1,2-.7,4.3.6,6,2.8,3.5,11.7,13.8,17.8,20.3,3.3,3.6,4.1,5.4,4.3,6.2,0,.4.2.7-.7,1.7-.4.4-.8.7-1.1.8-.4.1-.8.2-1.2.2-1.4,0-2.8-.8-4-2.1-5.7-6.7-15.7-18.6-19.2-22.4-2.3-2.5-4.6-3.7-7-3.7s-3.6.8-4.9,2.2c-2.7,2.9-2.5,7.5.3,10.4,3.7,3.8,16.3,17.1,23,25.9,6.6,8.6,6.1,14.6-1.5,21.3-3.3,2.9-6.3,4.4-9,4.4s-5-1.5-7.2-2.9c-1-.7-2-1.3-3.1-1.8-.1,0-.3-.2-.6-.5l-11.3-10.6c-1.5-1.4-3.4-2.2-5.4-2.2s-2.5.3-3.6.9l-21.9,11.1c-1.6.8-2.8,2.4-3.1,4.2-.3,1.8.2,3.7,1.5,5l55.6,59.8c1,1.1,2.5,1.7,4,1.7s2.9-.6,3.9-1.7c1-1.1,1.6-2.5,1.5-4-.6-13.5-.9-31.1.2-36.3.7-3.1,3.4-7,7.6-10.5.8-.7,1.6-1.2,2.6-1.5,17.1-5.8,19.2-9.2,19.9-12.1.9-3.6,2.4-5.5,2.8-6,1.1-.9,3-2.1,4-2.3,4.5-1.1,6.6-5.2,7.3-6.8l2.6-4.9.2-.4h0c.3-.5,1.5-2.1,4.5-3.6,1.1-.5,2.4-.8,3.8-.8,3,0,6.9,1.1,12.2,3.4,2.2,1,4.3,1.5,6.2,1.5,5.5,0,8.7-3.8,9.6-7.6l2.2-5.5c1.5-2.8,4.4-6.1,6.1-6.3.4,0,.8,0,1.2,0,3.2,0,4.9,2,7.3,5.2.6.8,1.3,1.7,1.9,2.4,1.5,1.7,3.6,2.6,5.8,2.6,4.9,0,9-4.6,10.3-6.2l24-26.5c1.6-1.8,2-4.3,1-6.5-1-2.2-3.1-3.6-5.5-3.6l-140.5-1h0Z"/>
</svg>