<?xml version="1.0" encoding="UTF-8"?>
<svg id="Capa_1" xmlns="http://www.w3.org/2000/svg" version="1.1" viewBox="0 0 221.6 148.6">
  <!-- Generator: Adobe Illustrator 29.2.0, SVG Export Plug-In . SVG Version: 2.1.0 Build 108)  -->
  <path d="M194.3,12.6c.4,0,.8.4.8.8v4.8c0,2.4,0,4.8,1.5,6.6,1.4,1.6,4.5,2.8,6.8,4.1,4.9,2.7-29.9,69.8-29.9,69.8,0,0-4.9,8.2,0,12.4,3.1,2.8,7.2,5.1,9.2,5.9.8.3.6.9,0,1.5l-19.4,20.2c-.2.2-.5.3-.8.3-.6,0-1.2-.5-1.2-1.2v-48.4c.1-2.2-.8-4.4-2.5-5.9l-4.8-1.7c-1.6-.6-3-1.7-3.9-3.2-.7-1.3-1.5-2.6-1.7-2.9-1.1-1.3-4.7-6.2-12-6.2-.5,0-1.1,0-1.6,0-5.8.6-13.5.9-15.4.9,0,0,0,0,0,0-.7,0-1-3.9-1.4-7-.2-2.2-1.5-4.1-3.5-5.1l-6.5-3.4s-7.5-4.3-18.9-4.3l-28.2-1.4c-1.9,0-4.8-1.5-5.6-3.2l-2-7.2c-.2-.3-1.9-5.8-2-6.2-1-3.2-3.7-5.9-7.3-5.9-.4,0-.7,0-1.1,0-6,.9-6.8,6.5-8.4,9.5-.1.3-.9.4-1.9.4-1.7,0-4-.3-4.8-.3,0,0-.2,0-.2,0h-10.5c-1.9,0-3.4-1.9-2.9-3.8.7-2.7,2-7,4.6-13.3,1.8-4.3,6.1-7,10.8-7,30.3,0,153.7,0,164.7,0M194.3,7.6H29.6c-6.8,0-12.9,4-15.4,10.1-2.3,5.4-3.9,10.2-4.8,14-.6,2.4,0,4.9,1.5,6.8,1.5,1.9,3.8,3.1,6.3,3.1h10.4c0,0,.3,0,.3,0h0c.3,0,.8,0,1.2,0,1.1,0,2.4.2,3.5.2s4.6,0,6.2-2.9c.5-.9.9-1.8,1.2-2.7,1.3-3.1,1.9-4,3.6-4.3.1,0,.3,0,.4,0,1.7,0,2.5,2.2,2.5,2.4,0,0,.1.4.3.8,1.1,3.4,1.5,4.7,1.7,5.4l1.9,6.9v.5c.1,0,.4.5.4.5,1.8,3.6,6.5,5.8,9.9,5.9l28.1,1.4h.1s.1,0,.1,0c9.8,0,16.4,3.6,16.4,3.6h0s0,0,0,0l6.5,3.4c.5.2.8.7.8,1.2v1c.3,1.5.4,3.1.6,4.4.9,5,3.6,6,5.7,6,2.1,0,10.1-.4,15.9-1,.4,0,.8,0,1.1,0,4.4,0,6.6,2.6,7.8,4,0,0,.1.1.2.2.3.4.8,1.4,1.2,2v.2c1.6,2.6,3.9,4.5,6.7,5.5l3.6,1.3c.3.5.5,1,.4,1.6v48.4c-.1,0-.1,0-.1,0h0c0,3.4,2.8,6.1,6.2,6.1s3.2-.6,4.3-1.8h0c0,0,0-.1,0-.1l19.4-20.2c2.1-2.2,2-4.4,1.8-5.5-.4-1.9-1.7-3.3-3.6-4.1-1.3-.5-4.8-2.5-7.7-5-1.1-.9.1-4.5,1.1-6.1h0c0-.1,0-.2,0-.2,0-.2,8.8-17,16.9-34,4.7-10,8.3-18.2,10.7-24.2,3.3-8.6,5.5-15.4.4-18.2-.7-.4-1.5-.8-2.2-1.1-1.1-.6-2.9-1.5-3.4-2-.2-.3-.2-2-.2-2.9v-.4s0-4.8,0-4.8c0-3.2-2.6-5.8-5.8-5.8h0Z"/>
</svg>