<?xml version="1.0" encoding="UTF-8"?>
<svg id="Capa_1" xmlns="http://www.w3.org/2000/svg" version="1.1" viewBox="0 0 221.6 148.6">
  <!-- Generator: Adobe Illustrator 29.2.0, SVG Export Plug-In . SVG Version: 2.1.0 Build 108)  -->
  <path d="M41.2,8.2c2.4,0,4.6,3.6,4.6,3.6l6.1,13.2c.7,1.5,1.1,3.1,1.1,4.7.2,4.8.7,14.9.7,16.8v15c0,2.7.7,5.4,1.9,7.7,1.2,2.3,5.2,5.6,6.5,5.9,2.9.7,4.5,1.2,6,1.2s2.7-.4,5-1.3c4.8-1.9,5.5-6.1,6.3-8.4,0-.2,2.7-6.4,2.8-6.7l1.6-2.9c1.9-5.2,8.3-6.6,13.4-8.7l31.6-13.1c3.8-1.6,7.9-2.4,12.1-2.4.6,0,1.3,0,1.9,0,1.4,0,2.9.2,4.4.3.3,0,.6,0,.9,0,4.9,0,7.2-2.5,7.6-3.1,0-.1.2-.2.3-.3l16.3-16c2-1.9,4.6-3.1,7.4-3.1.3,0,.5,0,.8,0,.8,0,1.6.2,2.4.4,4.4,1,4.1,9.1,4.1,9.1,0,0,1.6,24,0,24s0,0,0,0c-.2,0-.3,0-.5,0-4.5,0-7.1,4.4-7.1,4.4,0,0-3.7,9-7.7,18.6-2.9,7.1-1.1,10.9.3,12.6.9,1,2.2,2.1,3.1,3,3.3,3.4,6.4,6.6,11.6,11.5,6.4,6.1,2.5,8.7,2.5,8.7l-22.6,12.9s-12.9,5.5-14.8,14.1c-2,9.1-11.7,10-11.7,10h-11.8s0,0-.1,0c-2.5,0-17.4-1.2-26.6-1.3l-21-1.1c-3-.2-6.8-.3-7.1-3.3l.4-8c1.3-17.9,1.2-10.3,1.4-21.4.2-8.1-1.7-10.4-3.4-12.6,0,0-3.7-2.3-7.7-2.3-.2,0-.5,0-.7,0-8.5.6-9.5,9.6-9.5,9.6,0,0-.2,5.8-.8,17.6-.4,8.3-.8,14.3-.8,14.3,0,0-1.6,6-7.1,6s-1.4,0-2.2-.3c-9.3-2.2-7.8-11.3-7.8-11.3V14.9c0-2.2,1.9-4.7,1.9-4.7,0,0,.9-1.4,3.4-1.9.1,0,.3,0,.4,0M41.2,3.2h0c-.4,0-.9,0-1.3.1-3.9.7-5.8,2.9-6.5,3.9-.8,1.1-2.9,4.2-2.9,7.6v110.6c-.7,5.5,1.7,14.2,11.6,16.5,1.1.3,2.2.4,3.3.4,7.5,0,11.1-6.3,12-9.7v-.5c.1,0,.2-.5.2-.5,0,0,.3-6,.8-14.3.5-10.4.8-16.1.8-17.4.2-1.1,1.1-4.8,4.9-5.1.1,0,.2,0,.4,0,1.6,0,3.3.7,4.4,1.2,1.1,1.5,1.8,3.2,1.7,8.6-.1,6.3-.2,6.4-.4,8.8-.2,1.8-.5,4.9-1,12.4h0s0,0,0,0l-.4,8v.4s0,.4,0,.4c.3,3.3,2.5,5.9,5.9,7,2,.6,4.1.8,5.8.8h.1s21,1.1,21,1.1h.1s.1,0,.1,0c5.8,0,13.8.6,19.7.9,3.9.2,6,.4,7,.4h.1s0,0,0,0h11.8s.2,0,.2,0h.2c5-.5,13.9-3.9,16.2-13.9,1.1-4.9,9.1-9.4,11.9-10.6h.3c0-.1.2-.2.2-.2l22.6-12.9h.2c0-.1.2-.3.2-.3,1.4-1,3-3.1,3.2-5.9.3-3.4-1.5-7-5.2-10.5-5.1-4.9-8.1-7.9-11.5-11.4-.5-.5-1-.9-1.5-1.4-.5-.5-1.1-1-1.5-1.5-.8-.9-1.1-3.3.5-7.3,3.4-8.3,6.7-16.2,7.5-18.2.4-.5,1.5-1.8,2.7-1.8s0,0,.1,0h.2s.2,0,.2,0c1.4,0,2.8-.6,3.8-1.7,1.5-1.6,2.8-3,1.2-27.4.2-5.6-1.8-12.6-8-13.9-1-.2-2-.4-3.1-.5-.4,0-.8,0-1.2,0-4.1,0-7.9,1.6-10.9,4.5l-16.3,16c-.3.3-.5.5-.7.8,0,.1-1.1,1.2-3.7,1.2s-.4,0-.6,0c-1.5,0-3-.2-4.4-.3-.7,0-1.5,0-2.2,0-4.8,0-9.5.9-14,2.8l-31.6,13.1c-.8.3-1.7.7-2.6,1-4.9,1.8-11,4.1-13.4,10.2l-1.5,2.6-.2.4v.3c-.3.4-1,2.2-1.6,3.6-1.3,3-1.3,3-1.4,3.3-.1.3-.2.7-.4,1.1-.7,2.2-1.2,3.5-3.1,4.3-2,.8-2.7.9-3.1.9-.7,0-1.8-.3-3.4-.7-.3,0-.7-.2-1-.3-1-.6-3.2-2.6-3.6-3.5-.9-1.7-1.3-3.5-1.3-5.4v-15c0-1.8-.4-10.2-.7-17-.1-2.3-.6-4.5-1.6-6.5l-6.1-13.2v-.2c-.1,0-.2-.2-.2-.2-.9-1.4-4-6.1-8.9-6.1h0Z"/>
</svg>