<?xml version="1.0" encoding="UTF-8"?>
<svg id="Capa_1" xmlns="http://www.w3.org/2000/svg" version="1.1" viewBox="0 0 273.2 159.3">
  <!-- Generator: Adobe Illustrator 29.2.0, SVG Export Plug-In . SVG Version: 2.1.0 Build 108)  -->
  <path d="M249.8,13.7c.9,0,1.6.4,2.3,1.3,2.4,4.8,9.5,14.5,6.9,15.4l-27.4,10.7c-1.1.5-2.1,1.2-2.9,2.1l-14.3,15.4c-.5.6-1.1,1-1.7,1.4l-16.3,8.5c-1.1.7-1.9,1.1-2.6,1.1-1.4,0-2.2-1.4-3.8-3.7-1.5-2.1-5.6-1.8-8.4-2.1-5.4-.5-12.5-.7-19.6-.7-10.3,0-20.6.4-25.3.6h-.4c-1.7,0-3.3-.5-4.7-1.3l-7.7-4.8s-1.5-1.5-3.7-1.5-2.8.5-4.4,2.1c-4.4,4.4-8.1,8.8-8.1,8.8,0,0-4.4,2.5-.6,10s8.1,19,8.1,19c0,0,4.2,8.3,2.3,13.5-2.8,7.7-7.3,21.3-7.3,21.3,0,0-2.6,6-7.5,6s-1.9-.2-3-.7c-6.7-3.2-15.1-5.9-18-8-1.3-.9-4.9-2.3-6.5-2.4h-.8c-3.3,0-7.3,1.2-12.3,3.9-7.1,3.8-21.5,9.2-27.8,11.5-.9.3-4.5,1.4-5.3,2-1.1.9-6.6,3.5-10.7,3.5s-2.9-.4-3.8-1.4c-3.7-4.2,3-10.4,5.2-12.1.5-.3,11.6-11,12-11.5l10.9-11.6s3.9-4.9,1.6-7.2l-2.3-2.8c-2-2.5-3.5-4.3-2.3-7.3l18.7-45.4c.8-2,2.3-3.6,4.2-4.6l6.8-3.4c1.5-.7,3,0,6-1.6,1.3-.7,1.8-2.4,3-5.7,1.2-3.5,2.1-3.5,5.8-3.5h131.2c1.3.1,2.6-.2,3.8-.7l24.6-11.6c2.6-1.2,4.5-2.5,6.1-2.5M251.8,14.4l.5.8s-.1-.2-.2-.2c-.1-.2-.2-.4-.3-.6M252.3,15.2c.2.3.4.6.6,1l-.6-1M249.8,6.7c-2.9,0-5.2,1.2-7.4,2.3-.5.3-1.1.5-1.7.8l-24.6,11.6c-.2.1-.5.2-.8.2H84.2c-5-.1-9.8.5-12.5,8.1l-.2.5c-.2.6-.4,1.2-.6,1.7h-.5c-1,.1-2.6.3-4.3,1.1l-6.8,3.4c-3.4,1.7-6.1,4.6-7.6,8.2l-18.7,45.4c-2.7,6.6.9,11.2,3,14l.2.2h0v.2l.8,1h0l-10.6,11.2c-1,1-9.9,9.5-11.4,10.9-1.7,1.3-8.1,6.5-8.9,13.3-.4,3.3.6,6.4,2.8,8.9,1.5,1.7,4.3,3.8,9.1,3.8s11.9-2.9,14.4-4.5c.6-.3,2-.7,2.7-.9.6-.2,1.1-.4,1.4-.5,9-3.3,21.8-8.2,28.7-11.9,5-2.7,7.8-3.1,9-3.1s.2,0,.2,0c.7.1,2.5.8,3.1,1.2,2.3,1.7,5.9,3.1,10.4,4.9,2.9,1.2,5.9,2.4,8.6,3.7,2,.9,4,1.4,6,1.4,9.1,0,13.4-9.1,13.9-10.1v-.3c0,0,.2-.3.2-.3,0-.1,4.6-13.6,7.3-21.1,2.6-7.3-1.3-16.2-2.5-18.7-.8-2-4.7-12.2-8.3-19.4-.4-.9-.6-1.5-.7-1.9l.4-.5s3.4-4,7.4-8l7.6,4.7c2.5,1.6,5.4,2.4,8.4,2.4s.4,0,.7,0c5-.2,15-.6,25-.6s14.3.2,18.9.7c.7,0,1.3,0,2,0s1.5,0,2.2.2c1.6,2.3,4.1,5.5,8.7,5.5s4.7-1.1,6.1-2l15.9-8.3h.3c0,0,.3-.3.3-.3,1.1-.7,2.2-1.6,3.1-2.6l14.3-15.4c.1-.2.3-.3.5-.4l27.2-10.6c2.1-.8,3.8-2.5,4.6-4.7,1.7-4.7-1.2-9.5-5.2-16.1-.6-1-1.2-2-1.7-2.8h0c-.3-.6-.6-1.2-.9-1.7l-.3-.6h0v-.2c-2.1-2.7-4.9-4.2-8-4.2h0Z"/>
</svg>