<?xml version="1.0" encoding="UTF-8"?>
<svg id="Capa_1" xmlns="http://www.w3.org/2000/svg" version="1.1" viewBox="0 0 221.6 148.6">
  <!-- Generator: Adobe Illustrator 29.2.0, SVG Export Plug-In . SVG Version: 2.1.0 Build 108)  -->
  <path d="M171.2,14.6c8,0,15.4,0,20.7.1,18.7.3,17.8,15.4,17.5,18.1,0,.3,0,.6,0,.9v32.3c.1,5.8-4.6,10.1-9.9,10.1s-2.4-.2-3.7-.7l-14.5-5.6c-.3-.1-.6-.3-.9-.4-1.9-.9-3.5-1-5.9-5-3.3-5.4-1.3-10-.2-12.1.2-.4,2.3-3,2.5-3.3,2.2-2.4,13.3-14.4,16.3-18.7,5.2-7.5-3.4-9.4-3.4-9.4,0,0-2.9-1-11.6-1.2-.2,0-.4,0-.6,0-6.4,0-12.7,2.5-15.4,3.8-.9.4-1.7,1-2.5,1.8-2.8,2.9-10.5,11.1-13.6,14.8-1.6,2-3.2,2.7-4.6,2.7s-3.4-1.2-4.3-2.3c-.5-.6-.7-1.3-.9-2.1-.4-2,0-4.2.9-6,1.1-2.1,4.2-6.6,2.9-9.7-1.2-2.9-2.9-3.9-4.6-4.4-.5-.1-1-.2-1.6-.2-1.4,0-3.1.3-4.2.8l-22.7,10.7s-8.7,2.8-10.5,15.9c-1.6,11.1,7.7,18.6,10.7,20.6.5.4,1,.6,1.6.9,5.6,2.3,41.3,16.7,53.8,21.9,13.6,5.6,12.4,16.3,12.4,16.3,0,0,.2,3.2,0,16.5-.2,12-7.9,12.5-9.8,12.6,0,0,0,0,0,0-.2,0-.4,0-.6,0l-129.7-.3c-.3,0-.6,0-.8,0-1.5-.2-6.4-.8-9.2-2.5-3.3-2-7.4-6.7-8.9-13.9-1.5-7.2,1.8-11.2,6.6-16.5,4-4.4,4-9.9,2.9-13.3-.1-.4-.4-1.2-.6-1.5-1.5-3.1-9.6-19.7-10.9-24-1.1-3.8,2.5-6.6,4-7.6.4-.2.8-.5,1.2-.6,5.8-2.4,58-24.4,73.6-31.3,16.6-7.3,28.8-7.8,28.8-7.8,0,0,27.3-.3,49.8-.3M171.2,9.6c-22.3,0-49.6.3-49.9.3h-.2c-.5,0-13.4.6-30.6,8.3-15.6,6.9-67.6,28.8-73.5,31.3-.7.3-1.4.7-2,1-5.3,3.4-7.6,8.4-6.1,13.2,1.3,4.4,8.2,18.8,11.2,24.8,0,.2.3.7.4.9.2.5,1.4,4.7-1.9,8.3-4.6,5.1-9.9,10.9-7.8,20.8,2.2,10.8,9.1,15.8,11.2,17.1,3.4,2.1,8.5,3,11.3,3.3.5,0,.9,0,1.4,0l129.5.3c.2,0,.5,0,.8,0s.2,0,.3,0c8.9-.5,14.3-7,14.5-17.6.2-11.3,0-15.4,0-16.6.1-2.8-.3-14.6-15.5-20.9-12.4-5.1-47-19.1-53.9-21.9-.2,0-.4-.2-.6-.3-2.3-1.6-9.8-7.6-8.6-15.9,1.4-9.6,7-11.7,7.2-11.8,0,0-.1,0-.1,0l.6-.2,22.7-10.7c.3-.2,1.2-.4,2-.4s.4,0,.4,0c.3,0,.6.2,1.1,1.2,0,1-1.4,3.4-1.9,4.3-.3.5-.6,1-.8,1.5-1.5,3-2,6.2-1.3,9.3.4,1.7,1,3.1,1.9,4.3,2.2,2.6,5.2,4.2,8.2,4.2s5.4-.8,8.5-4.5c3-3.7,11-12,13.4-14.5.3-.3.6-.5.9-.7,2.2-1,7.8-3.3,13.3-3.3s.3,0,.5,0c7.5.2,10.2,1,10.2,1,0,0-.1,0-.1,0l.6.2h0c.4,0,.8.3,1.1.5-.1.3-.3.7-.7,1.2-2.2,3.1-9.9,11.7-15.9,18.2-.2.3-2.7,3.3-3.3,4.3-3,5.7-2.9,11.7.3,17,2.7,4.4,5,5.6,7.4,6.6.2,0,.4.2.7.3h0c.3.2.7.4,1.1.5l14.5,5.6c1.8.7,3.6,1,5.5,1,4,0,7.9-1.6,10.7-4.5,2.8-2.8,4.4-6.6,4.4-10.7v-32.3c-.1-.1-.1-.2,0-.3.3-2.3.7-10.5-4.7-16.7-4-4.5-9.9-6.9-17.7-7-4.9,0-11.9-.1-20.8-.1h0Z"/>
</svg>