<?xml version="1.0" encoding="UTF-8"?>
<svg id="Capa_1" xmlns="http://www.w3.org/2000/svg" version="1.1" viewBox="0 0 221.6 148.6">
  <!-- Generator: Adobe Illustrator 29.2.0, SVG Export Plug-In . SVG Version: 2.1.0 Build 108)  -->
  <path d="M202.3,11.5c2.8,0,3.6,3.7,3.6,3.7,0,0,1.1,7.3,0,20.6-.6,8-1,10.4-1.1,11.1,0,0-.1.1-.1.1,0,0,0,0,0,.1-.7.8-3.2,3.3-10.7,10.7-12.7,12.4-14.7,12.9-14.9,12.9s0,0,0,0l-19.6.8s-3.8,1.1-9.5,6.8c-5.7,5.8-4.9,10.8-4.9,10.8v2.8s0,2.1-4.8,2.1-1.6,0-2.7-.2c-4.3-.5-7.9-.6-10.2-.6s-2.7,0-2.7,0c0,0-11.2,3.6-15,7.9s-.4,3.2-6.4,9.8c-3.6,4-8.6,4.8-11.9,4.8s-3.5-.3-3.5-.3c0,0-1.1-.4-2.8-.4s-5.9.8-9.4,4.6c-4.5,4.9-8.2,6.5-10.5,6.5s-1.3-.2-1.7-.4c-1.5-1-3.2-2.8-8.2-2.8s-.8,0-1.3,0c-3.9.2-4.6.7-6.1.7s-1.8-.1-3.7-.5c-.7-.1-1.3-.2-2-.2-4.6,0-8.3,2.8-8.3,2.8,0,0-4.3,3.9-6,7.9-.9,2.2-3.1,3.5-5.6,3.5s-3.9-.8-5.5-2.5c-3.8-3.9,0-8.9,0-8.9,0,0,10.2-4.9,21.8-9.9,4.2-1.8,7.3-2.4,9.4-2.4,3.8,0,4.9,1.8,4.9,1.8l5.4,3.4c.7.5,1.6.7,2.4.7s.1,0,.2,0l5.4-.2c.7,0,1.3-.2,1.9-.5,1.4-.7,3.9-2.1,5-3.9,1.3-2,4.9-6.5,7-7.8.2-.1.5-.2.8-.2.4,0,.7.1,1,.4.8.8,2.5,2.2,5.9,5.1.6.5,1.4.7,2.2.7,2.4,0,5.4-1.7,7.6-3,1.2-.7,2.9-2.3,2.6-3.7l2.2-5.5,21.9-10s0,0,.8,0,3.6-.1,9.5-.6c10.7-.9,7.6-10.8,4.5-13.3-3.1-2.4-2.7-3.8-2.7-3.8l48.6-46.7s3.6-2.6,11.2-11c2.5-2.8,4.4-3.7,5.8-3.7M204.9,46.8s0,0-.2.2c0,0,0,0,0-.1,0,0,.1,0,.1,0M204.8,47.1c0,0,0,.1,0,.1s0,0,0,0c0,0,0,0,0,0M202.3,6.5c-3.1,0-6.2,1.8-9.5,5.4-7,7.7-10.4,10.3-10.4,10.4-.2.1-.3.3-.5.4l-48.6,46.7c-.7.6-1.1,1.5-1.4,2.4-.4,1.7-.4,5.1,4.4,9,.6.6,1.3,2.5,1,3.4-.2.5-1.3.9-2.8,1-6,.5-8.2.6-9.1.6-.3,0-.5,0-.8,0-.7,0-1.4.1-2.1.5l-21.9,10c-1.2.5-2.1,1.5-2.6,2.7l-2.2,5.5c-.1.3-.2.7-.3,1,0,0-.2.1-.2.2-2.2,1.3-3.7,2-4.6,2.2-3-2.5-4.4-3.7-5.1-4.4-1.2-1.1-2.8-1.7-4.4-1.7-1.2,0-2.3.3-3.3.9-3.5,2.1-7.6,7.7-8.7,9.5-.1.2-1,1.1-2.9,2l-5.3.2-4.6-2.9c-1.6-1.6-4.3-2.9-8.2-2.9s-7.1.9-11.4,2.8c-11.6,5-21.9,9.9-22,9.9-.7.3-1.3.9-1.8,1.5-3.1,4-4.3,10.6.4,15.4,2.5,2.6,5.7,4,9.1,4s8.6-2.6,10.2-6.6c.8-2,3.1-4.6,4.5-5.9.8-.5,3-1.7,5.1-1.7s.7,0,1,0c2.2.4,3.5.6,4.6.6s1.9-.1,2.7-.3c.8-.1,1.8-.3,3.7-.4.3,0,.7,0,1,0,2.6,0,3.5.6,4.6,1.4.3.2.6.4.9.6,1.2.8,2.8,1.2,4.4,1.2,4.4,0,9.4-2.9,14.2-8.1,1.8-2,3.7-3,5.7-3s.9,0,1.1.1c.3.1.3.1.6.2.3,0,2.1.4,4.6.4,6.3,0,11.9-2.3,15.6-6.4,3.8-4.1,4.6-6,5.2-7.9.2-.5.3-.8,1.3-2,1.8-2.1,8-4.8,12.1-6.2.4,0,1,0,1.8,0,2.2,0,5.6.1,9.6.6,1.2.1,2.3.2,3.3.2,3.5,0,6.1-.9,7.8-2.6,1.8-1.8,2-3.7,2-4.5v-2.8c0-.4,0-.4,0-.7,0-.6.2-3.2,3.5-6.5,3.5-3.5,6-4.9,7-5.4l18.6-.8c2,0,3.8,0,18.4-14.3,5.6-5.5,9.1-9,10.5-10.4.4-.3.7-.7.9-1.1.9-1.2,1.1-2.4,1-3.4.2-1.5.5-4.3,1-10.2,1.1-13.7,0-21.4,0-21.8,0-.1,0-.2,0-.3-.8-3.8-3.8-7.7-8.5-7.7h0Z"/>
</svg>