<?xml version="1.0" encoding="UTF-8"?>
<svg id="Capa_1" xmlns="http://www.w3.org/2000/svg" version="1.1" xmlns:xlink="http://www.w3.org/1999/xlink" viewBox="0 0 221.6 148.6">
  <!-- Generator: Adobe Illustrator 29.2.0, SVG Export Plug-In . SVG Version: 2.1.0 Build 108)  -->
  <defs>
    <style>
      .st0 {
        fill: none;
        stroke: #000;
        stroke-miterlimit: 10;
        stroke-width: 5px;
      }
    </style>
  </defs>
  <image width="299" height="168" transform="translate(-47.1 -176.3)" xlink:href="lasVegas-1.png"/>
  <path d="M59.9,16c4.2,0,8.1.7,10.8,2,3.5,1.7,5.2,4.3,5.4,8.3.6,14.2.6,18,.5,18.8,0,1.5.5,2.9,1.5,3.9,1,1,2.4,1.6,3.9,1.6h0s0,0,0,0l98.8-2h.5s.5-.1.5-.1c7-1.5,13.5-6.3,12.4-13.5-.8-5.5-3.7-9.3-5.3-11.1,0,0,0-.1,0-.1-.4-1.3-.7-3.7.6-5.2.1-.1.2-.2.3-.3l16.4,19.4h0c0,0,.2.3.2.3.5.5,3.9,4.9,3.5,14.9-.5,11.1-1,48.8-1.1,60.1,0,1.1-.5,2.1-1.2,2.9l-3.9,3.9c-1.5,1.5-2.4,3.6-2.4,5.7h-119.1s-.1,0-.1,0c0,0-.3,0-.6,0-2.2,0-10.1-.3-20.3-4.5-18-7.3-45.2-25.5-45.5-25.7l-.3-.2-.4-.2c-2.2-1-4.2-1.9-5.7-2.5.7-2.8,1.9-7.2,3.1-10.9.2-.5,1.6-3.4,4-4.1,5.1-1.5,12.2-4.3,13.2-4.8,2-.7,15.2-6,15.8-21.5.4-9.7.5-25.4.5-32.8,2.9,2.3,4.5,3.1,6.2,3.1h1.2s.2,0,.2,0c2.8-.4,5.1-2.2,6.1-4.7.1-.3.2-.5.3-.8,0,0,0,0,.1,0M59.9,11c-2.4,0-4,.2-4,.2,0,0-.4,2.1-1,3.8-.6,1.5-2.2,1.6-2.6,1.6s-.1,0-.1,0c0,0,0,0,0,0-.2,0-1-.2-4.3-3-1.1-.9-2.1-1.3-3.1-1.3-2.3,0-3.9,2-3.9,2,0,0,0,23.6-.5,36.7-.5,13.1-12.6,17-12.6,17,0,0-7.6,3.1-12.8,4.7-5.2,1.5-7.3,7.1-7.3,7.1,0,0-5.1,15.8-3.5,16.1,1.6.3,8.8,3.6,8.8,3.6,0,0,27.7,18.6,46.4,26.2,11,4.5,19.6,4.9,22.2,4.9s.8,0,.8,0h121c1.7,0,3.1-1.4,3.1-3.2v-1.7c0-.9.2-1.7.9-2.3l3.9-3.9c1.7-1.7,2.7-4,2.7-6.4.1-11.9.6-49,1.1-59.9.6-13.2-4.9-18.6-4.9-18.6l-17.1-20.3s-1-1.3-2.8-1.3c-1.1,0-2.6.5-4.2,2.3-3.1,3.2-2.5,7.7-1.9,9.9.2.8.6,1.6,1.2,2.2,1.2,1.3,3.4,4.3,4.1,8.5.9,5.8-8.5,7.8-8.5,7.8l-98.8,2s0,0,0,0c-.2,0-.4-.2-.4-.4,0-1.2,0-5.3-.5-19.2-.6-13.4-14.2-15.1-21.1-15.1h0Z"/>
  <path class="st0" d="M65-207.6"/>
</svg>