<?xml version="1.0" encoding="UTF-8"?>
<svg id="Capa_1" xmlns="http://www.w3.org/2000/svg" version="1.1" viewBox="0 0 284.2 266">
  <!-- Generator: Adobe Illustrator 29.2.0, SVG Export Plug-In . SVG Version: 2.1.0 Build 108)  -->
  <defs>
    <style>
      .st0 {
        fill: #fff;
      }

      .st1 {
        isolation: isolate;
      }

      .st2 {
        fill: #ff0001;
      }
    </style>
  </defs>
  <rect class="st2" width="284.2" height="266"/>
  <g class="st1">
    <path class="st0" d="M53.8,247.3c0,4.4-2.2,6.6-6.6,6.6h-18.4c-4.5,0-6.7-2.8-6.7-8.3s0-1.6,0-2.9c0-1.3,0-2.2,0-2.8h7.6v7.5h16.2v-14.9h-12.8c-3.5,0-6.3-1.2-8.6-3.5-2.3-2.3-3.4-5.2-3.4-8.7v-33.2c0-3.3,1-6.1,3-8.4,2-2.2,4.7-3.4,8-3.4s5.5.6,13.8,1.9v-1.6h7.7v71.7ZM46.1,225.6v-42.9c-6.1-.4-9.7-.6-10.7-.6-4.3,0-6.4,2.2-6.4,6.5v30.4c0,4.4,2.1,6.5,6.4,6.5h10.7Z"/>
    <path class="st0" d="M99.2,220.2c0,3.5-1.1,6.4-3.4,8.7-2.3,2.3-5.2,3.5-8.6,3.5h-12.8v21.5h-7.8v-78.2h7.8v1.6c3.1-.4,6.1-.8,9.2-1.2,3.9-.5,6.9-.8,9.2-.8,4.3,0,6.5,2.1,6.5,6.4v38.5ZM91.4,219.1v-36.4l-17.1.5v42.5h10.7c4.2,0,6.4-2.2,6.4-6.5Z"/>
    <path class="st0" d="M143.8,232.4h-7.7v-1.6c-8.3,1.3-12.9,1.9-13.8,1.9-3.3,0-6-1.1-8-3.4-2-2.2-3-5-3-8.4v-33.2c0-3.5,1.1-6.4,3.4-8.7,2.3-2.3,5.2-3.5,8.6-3.5h12.8v-34.5h7.7v91.2ZM136.1,225.4v-42.9h-10.7c-4.3,0-6.4,2.2-6.4,6.6v30.3c0,4.4,2.1,6.5,6.4,6.5s4.6-.2,10.7-.6Z"/>
    <path class="st0" d="M188.6,232.4h-7.6v-1.6c-3.1.4-6.1.8-9.2,1.2-3.8.5-6.9.7-9.2.7-4.2,0-6.4-2.1-6.4-6.3v-20.7c0-4.4,2.2-6.5,6.6-6.5h18.2v-17.1h-16.7v9.7h-7.5v-9.6c0-4.4,2.2-6.6,6.5-6.6h18.7c4.4,0,6.5,2.2,6.5,6.6v50.1ZM181.1,225.4v-20.1h-17.3v20.4l17.3-.3Z"/>
    <path class="st0" d="M221.8,232.4h-11c-4.4,0-6.5-2.2-6.5-6.6v-43.3h-6.8v-6.8h6.8v-17.7h7.6v17.7h9.9v6.8h-9.9v43.1h9.9v6.8Z"/>
    <path class="st0" d="M263.7,232.4h-7.6v-1.6c-3.1.4-6.1.8-9.2,1.2-3.8.5-6.9.7-9.2.7-4.2,0-6.4-2.1-6.4-6.3v-20.7c0-4.4,2.2-6.5,6.6-6.5h18.2v-17.1h-16.7v9.7h-7.5v-9.6c0-4.4,2.2-6.6,6.5-6.6h18.7c4.4,0,6.5,2.2,6.5,6.6v50.1ZM256.2,225.4v-20.1h-17.3v20.4l17.3-.3Z"/>
  </g>
</svg>