<?xml version="1.0" encoding="UTF-8"?>
<svg id="Capa_1" xmlns="http://www.w3.org/2000/svg" version="1.1" viewBox="0 0 221.6 148.6">
  <!-- Generator: Adobe Illustrator 29.2.0, SVG Export Plug-In . SVG Version: 2.1.0 Build 108)  -->
  <defs>
    <style>
      .st0 {
        fill: none;
        stroke: #000;
        stroke-miterlimit: 10;
        stroke-width: 5px;
      }
    </style>
  </defs>
  <path class="st0" d="M65-207.6"/>
  <path d="M87.4,11.3c1.5,0,3,.3,4.3.7,2.7.8,4.8,3,5.7,5.6,1.7,4.8,4.4,10.5,6.8,17,2.7,7.1,3.6,11.3,3.9,13.7.2,1.3,0,2.6-.4,3.8-.8,2.2-2.4,6.4-4,11.3-2.3,7.1,3,11.7,3,11.7,0,0,6.2,4.8,17.5,5.3.2,0,.4,0,.6,0,11,0,17.4-11.9,17.4-11.9,0,0,15.8-37.8,18.1-44.2,2.3-6.4,6.4-6.4,6.4-6.4l9.6-.5c.4,0,.8,0,1.2,0,8.4,0,8.6,4.6,8.6,4.6,0,0,1.6,3.2,5.3,11.9,3.7,8.7-.7,11.2-.7,11.2,0,0-21.1,19.7-26.1,27-5,7.3,1.1,14.2,1.1,14.2,0,0,15.8,15.8,23.4,23.8,7.6,8,10.5,8.9,10.8,16.5.1,4.4-3,7.1-5.6,8.6-1.8,1-3.9,1.5-5.9,1.5l-138.2.3c-6.4-.9-11.5-2.5-12.7-9.9-1.4-9.5,5.2-12.1,5.2-12.1,0,0,14.4-6.5,19.8-8.7,8.5-3.5,9.4-4.6,11.1-10.1,1.2-3.9-1.5-7.7-3.3-9.7-.8-.8-1.7-1.5-2.8-2-2.4-1.1-7.7-3.3-14.4-5.8-9.2-3.4-11-6.2-11-6.2,0,0-14-33.9-16-39.4-.9-2.3-1.4-3.6-1.7-4.4-.4-.8-.1-1.8.5-2.4,1.1-.9,3.1-2.2,7.2-3.8,2.3-.9,3.9-1.2,5-1.2s1.5.2,1.8.4c.2.1.4.3.5.5l6.3,13.8,4.5,10.3c1.4,2.7,3.6,4.9,6.3,6.2.9.4,1.9.7,2.8.8.1,0,.2,0,.3,0,7.4,0,9.7-9,9.7-9,0,0,8.9-22,12.1-29.5,1.2-2.7,3.4-3.6,5.9-3.6M87.4,6.3h0c-4.9,0-8.7,2.4-10.5,6.6-3.2,7.5-11.8,28.7-12.2,29.6,0,.2-.2.4-.2.6,0,0-1.5,5.3-4.9,5.3s-.1,0-.2,0c0,0,0,0,0,0,0,0-.3,0-1-.3-1.6-.7-3-2-3.9-3.8l-4.4-10.2s0,0,0,0l-6.2-13.7c-.5-1.2-1.4-2.3-2.6-2.9-1.2-.7-2.6-1-4.3-1s-4.2.5-6.8,1.5c-3.8,1.5-6.7,3-8.6,4.6-2.4,2-3.1,5.3-1.9,8.2.3.6.8,1.8,1.6,4.2,2.1,5.5,15.5,38.1,16.1,39.5.1.3.3.6.5.9.8,1.2,3.8,4.5,13.4,8.1,6.5,2.4,11.6,4.6,14.1,5.7.4.2.8.4,1,.7,1.7,1.9,2.6,3.8,2.2,4.8-1.3,4-1.3,4.1-8.3,7-5.2,2.2-18.6,8.2-19.8,8.7-3.6,1.5-9.8,7-8.1,17.5,1.8,12,12,13.4,16.9,14.1.2,0,.5,0,.7,0s0,0,0,0l138.2-.3c3,0,5.9-.7,8.4-2.1,5.4-3.1,8.4-7.7,8.2-13.1-.2-7.9-3.3-11-8-15.6-1.2-1.2-2.6-2.5-4.2-4.2-7.1-7.6-21.7-22.2-23.3-23.8-.7-.9-3.2-4.3-.7-8,3.8-5.6,19.2-20.3,25.1-25.9,2.9-2.1,6.1-7.7,2.2-17.1-2.9-6.9-4.5-10.4-5.1-11.6-.7-2.6-3.4-7.9-13.4-7.9-.5,0-1,0-1.4,0l-9.6.5h0c-1.5,0-7.7.9-10.9,9.7-2.1,5.9-16.4,40.2-17.9,43.7-.7,1.2-5.7,9.1-12.9,9.1s-.3,0-.4,0c-8.5-.3-13.5-3.5-14.5-4.1-.6-.6-2.5-2.9-1.4-6.3,1.6-4.8,3.1-9,3.9-11.1.8-2,1-4.1.7-6.2-.4-2.6-1.4-7.3-4.2-14.8-1.2-3.2-2.5-6.2-3.6-8.9-1.2-2.9-2.4-5.6-3.2-8-1.5-4.2-4.8-7.5-9-8.7-2.1-.6-4-.9-5.8-.9h0Z"/>
</svg>