<?xml version="1.0" encoding="UTF-8"?>
<svg id="Capa_1" xmlns="http://www.w3.org/2000/svg" version="1.1" viewBox="0 0 221.6 148.6">
  <!-- Generator: Adobe Illustrator 29.2.0, SVG Export Plug-In . SVG Version: 2.1.0 Build 108)  -->
  <defs>
    <style>
      .st0 {
        fill: none;
        stroke: #000;
        stroke-miterlimit: 10;
        stroke-width: 5px;
      }
    </style>
  </defs>
  <path class="st0" d="M65-207.6"/>
  <path d="M209.1,45.2c0,.2,0,.4-.1.6-1.5,5.7-1.6,6.5-1.6,6.7h0c0,.1,0,.2,0,.2-.1,1.6.4,3.8,2.2,5.3-.8,1.6-1.7,3.1-2,3.5,0,0-.1.2-.2.3-.2.4-1.2,1-3.5,1s-.7,0-1.1,0c-.8,0-1.5,0-2.2,0-6.4,0-8.7,2.7-9.5,4.5-.8,1.5-2.5,5.6-.2,9.2,2,3.2,7.3,6.1,7.5,6.2,0,0,.4.3.9.7-1.6,1.1-3.8,2.4-5.3,3.1-1.4.7-34.5,17.3-48.9,22-12.6,4.1-20.3,4.3-21.7,4.3s-.3,0-.3,0h-.1s-.1,0-.1,0h-.2c-3.2,0-8.7-.3-13.4-1.1.2,0,.4,0,.5,0,3.6,0,7.2-.6,10.5-1.8,14-5,13.4-14.1,13-16.4h0c-.3-1.9-.2-4.4.2-5.2,2.2-2.1,4.4-3.3,4.4-3.4h0s0,0,0,0c1.9-1.1,4-3.4,3.9-6.4,0-1.5-.6-4.2-4.1-6.2-3.5-2-46.5-23.9-48.6-25-.4-.2-2.1-1-4.7-1.9h124.7M63.9,45.3c-1.3.4-2.6,1-3.8,1.6-4.3,2.2-6.1,2.8-7.1,3.1-.5.2-1,.3-1.5.6-.6.1-1.6.3-3,.3s-3.8-.2-5.7-1.3c-2.8-1.6-5.1-3.1-6.6-4.2h27.6M25.4,91.1c2.8,0,5.3,1.1,7.4,3.2,4.2,4.1,8.3,5,11.1,5,4.9,0,8.4-2.6,9.3-3.3,2.5-1.9,6.3-4,7.9-4,.1,0,.3,0,.4,0h.3s.2,0,.2,0c1.1,0,3.3,0,8.5,3.6,2.8,2,9.8,5.5,16,8.5-1,0-2-.1-3.1-.1-1.1,0-2.3,0-3.5.2-8.7.7-18.6,1.5-37.6,1.8h-.3c-5.5,0-10-1.5-11.2-2-.8-.3-1.7-.5-2.6-.6-.9,0-2.3-.2-4.1-.2-2.5,0-4.9.2-7.3.6-.4,0-.8.1-1.2.1s-1.7,0-2.2-1h0c0,0-.3-.7-.3-.7-.3-.9-1.1-3.8,1.7-6.1,3.6-2.9,5.3-3.5,6.5-3.9.2,0,.4-.2.6-.2,0,0,1.3-.5,3.3-.5M210.1,40.2h0l-175,.2c-.2,0-.4,0-.6,0-4,.5-4.5,3.2-4.2,5.1.2,1.2.9,2.3,1.9,3.1,1.6,1.2,4.5,3.2,8.2,5.3,2.7,1.6,5.7,2,8.1,2s3.2-.2,4-.4c.4,0,.7-.2,1.1-.4,1-.5,2.5-.6,8.8-3.7,4-2,8-2.7,11.6-2.7,7.4,0,12.9,2.9,12.9,2.9,0,0,45,22.9,48.5,24.9,3.5,1.9,0,4,0,4,0,0-2.7,1.6-5.5,4.2-2.8,2.6-1.6,9.5-1.6,9.5,0,0,1.8,6.7-9.8,10.8-3.1,1.1-6.2,1.5-8.9,1.5-6.1,0-10.5-2-10.5-2,0,0-20.9-9.6-25.8-13.1-6.2-4.4-9.5-4.6-11.4-4.6s-.3,0-.5,0-.2,0-.3,0c0,0,0,0-.1,0-4.5,0-11,5.2-11,5.2,0,0-2.5,2.2-6.1,2.2s-4.9-.8-7.6-3.5c-3.7-3.7-7.8-4.6-10.9-4.6s-4.9.8-5,.8c-1.6.6-3.8,1.1-8.6,5-6.2,5-3.2,12-3.2,12,0,0,1.2,4.8,7.1,4.8s1.3,0,2-.2c2.5-.4,4.7-.5,6.5-.5,1.6,0,2.9,0,3.6.2.4,0,.9.1,1.3.3,1.6.6,6.7,2.4,13,2.4s.2,0,.4,0c18.4-.2,28-.9,37.9-1.8,1.1,0,2.2-.1,3.1-.1,7.9,0,11.4,2.9,18.2,5.7,7,2.9,18.8,3,20.9,3s.3,0,.3,0c0,0,.2,0,.5,0,2,0,10.2-.3,23.3-4.6,15.2-5,49.7-22.4,49.7-22.4,0,0,5.7-3,8-5.1,1.5-1.4,1-3,.5-4.1-.3-.5-.6-.9-1.1-1.3-.7-.6-2.1-1.8-2.9-2.2-1.1-.6-4.6-2.8-5.7-4.4-1.1-1.7.5-4.4.5-4.4,0,0,.3-1.7,5-1.7.5,0,1.2,0,1.8,0,.5,0,1,0,1.5,0,6.1,0,7.6-3.1,7.8-3.4.2-.2,2-3.1,3-5.6,1-2.5-.3-3.2-.3-3.2,0,0-1.1-1-1.6-1.3-.6-.3-.5-1.1-.5-1.1,0,0,0-.7,1.5-6.1,1.1-4.1-.5-5.8-1.8-6.4-.6-.3-1.3-.4-2-.4h0Z"/>
</svg>