<?xml version="1.0" encoding="UTF-8"?>
<svg id="Capa_1" xmlns="http://www.w3.org/2000/svg" version="1.1" viewBox="0 0 221.6 148.6">
  <!-- Generator: Adobe Illustrator 29.2.0, SVG Export Plug-In . SVG Version: 2.1.0 Build 108)  -->
  <defs>
    <style>
      .st0 {
        fill: none;
        stroke: #000;
        stroke-miterlimit: 10;
        stroke-width: 5px;
      }
    </style>
  </defs>
  <path class="st0" d="M65-207.6"/>
  <path d="M36.3,26c.3,0,1.2,0,1.4.4l15.6,23.5h0c0,0,0,.1,0,.1.8,1.1,4.7,6.5,6.9,8.6,2,1.9,37.6,36,39.1,37.4,1.2,1.1,2.7,1.7,4.3,1.7s1.1,0,1.7-.2c.9-.3,1.9-.5,2.9-.5s.3,0,.4,0h.3c2,.2,2.9.3,4.8,2.1.4.4.7.7.9,1,.1.1.2.3.3.4,1.1,1.4,2.8,2.2,4.6,2.3l86.5,1.8c.7.1,3.1.8,3.9,3.1,1,3,.3,5,0,5.5h0s-.2.5-.2.5c-.3.5-3.4,6.5-11.5,8.1-10.2,2-16.2,2-16.5,2h0l-94.2-.4c-.8-2-2.7-3.3-4.9-3.3s-1.5.2-2.2.5c-2.1,1-7.4,3.1-10.4,3.1-2,0-5,0-8.7,0s-4.4,0-4.9,0c-.8,0-10.4-.8-15.8-6.8-5.7-6.4-8.3-14-8.7-15.3l-4.1-23.6-1.7-11.9v-.6c-.3-2.4-2.1-4.2-4.4-4.5-.8-2.8-1.4-4.3-1.4-4.4v-.2c0,0-.1-.2-.1-.2l-8.9-20.6c-.2-.8-.5-2.5,0-3.5.7-1.2,1-1.5,1.3-1.8.1-.1.3-.2.4-.4,0,0,.2-.1.4-.2,0,0,.8-.3,3.9-.8,4.5-.8,18.2-3.1,18.2-3.1h0s.1,0,.1,0c0,0,.3,0,.5,0M36.3,21c-.9,0-1.5.1-1.5.1,0,0-13.7,2.3-18.2,3.1-3.6.6-4.7.9-5.4,1.3-.2,0-1.1.5-1.2.7-.5.6-1.6.9-3.1,3.8-1.8,3.4-.3,7.5-.3,7.5l9,20.9s.5,1.6,1.4,4.5c.8,2.7,3.5,3.1,4,3.2,0,0,0,0,0,0v.7c0,0,1.8,12.1,1.8,12.1l4.2,24s2.6,9.5,9.8,17.5c7.2,8,19.3,8.5,19.3,8.5,0,0,2.2,0,5.1,0s6.3,0,8.8,0c4.4-.1,11-3,12.3-3.6,0,0,0,0,0,0,.1,0,.2,0,.2.2,0,.2.1,1.3.6,1.9.8,1.1,1.9,1.2,2.1,1.2s0,0,0,0l96.2.4s0,0,0,0c.7,0,6.9,0,17.4-2.1,11.2-2.2,15.1-10.9,15.1-10.9,0,0,2.3-3.7.4-9.6-1.9-5.9-8.2-6.6-8.2-6.6l-86.8-1.8c-.3,0-.6-.1-.8-.4-.3-.4-.7-1-1.6-1.9-3.2-3.1-5.7-3.3-8.1-3.5-.3,0-.6,0-.9,0-1.6,0-3.1.4-4.2.7-.1,0-.2,0-.3,0-.3,0-.6-.1-.8-.3-4.4-4.2-37.2-35.6-39.1-37.4-2-1.9-6.3-7.9-6.3-7.9l-15.6-23.5c-1.5-2.3-4-2.7-5.6-2.7h0Z"/>
</svg>