<?xml version="1.0" encoding="UTF-8"?>
<svg id="Capa_1" xmlns="http://www.w3.org/2000/svg" version="1.1" viewBox="0 0 221.6 148.6">
  <!-- Generator: Adobe Illustrator 29.2.0, SVG Export Plug-In . SVG Version: 2.1.0 Build 108)  -->
  <path d="M14.8,12.8c.2,0,.4,0,.6,0l10.1,1.3c29.8,3.8,108.9,14.1,114.8,14.9.8.1,1.4.3,1.8.4h0c0,0,0,.3,0,.3-.4,1.1-1.5,3.5-4.3,8.4-2.6,4.6-7.6,6.7-9.9,7.5-.2,0-.6,0-1.3,0-1.2,0-2.4,0-2.9-.1-2.6-.3-5.7-.7-15.6-2.1-.9-.1-1.8-.2-2.6-.2-9.5,0-14.5,7.8-14.5,15.4,0,4.5,2.4,8.2,4.7,11.3,2.9,3.9,8,10.6,13.2,17.1,3.4,4.3,7.4,5.2,10.1,5.2,6.1,0,11-4.5,13-7.1.9-1.2,1.6-2.5,2-4,.5-1.7,1.6-5.3,2.5-9.2,1.4-5.5,10.5-7.6,15.7-7.9,0,0,.1,0,.2,0s.1,0,.2,0c1.9.1,9.9.8,32,3.8,11.6,1.6,14.9,4.3,15.6,5l.3.7c0,.1,5,12,7.8,22.2,2.2,7.8.2,11.2-1.4,12.1-6.7,1.8-94.8,25.1-105.2,27.5-.7.2-1.5.3-2.1.3-4.4,0-6-4.5-6.2-5h0s-4.4-14.2-4.4-14.2l-.3-.9-.5-.7L12.9,16.5c-.5-.9-.6-1.6-.4-2.1.2-.7,1-1.2,1.3-1.3.3-.1.6-.2,1-.2M14.8,7.8c-1,0-1.9.2-2.9.5-2.6,1-6.7,5.1-3.2,10.9l75.5,98.7,4.4,14.2s2.5,8.5,11,8.5,2.1-.1,3.2-.4c11-2.5,105.8-27.6,105.8-27.6,0,0,8.7-3,4.5-18.1-2.9-10.6-8-22.8-8-22.8,0,0-.3-6-19.8-8.8-22.3-3.1-30.4-3.7-32.3-3.9-.2,0-.3,0-.5,0s-.3,0-.5,0c-3,.2-17.8,1.6-20.3,11.7-.9,3.8-1.9,7.2-2.5,9-.3.9-.7,1.7-1.2,2.4-1.5,2-5.1,5.1-9,5.1s-4.2-.9-6.1-3.3c-5.3-6.8-10.3-13.3-13.1-17-1.8-2.4-3.7-5.3-3.7-8.3,0-4.6,2.5-10.4,9.5-10.4s1.3,0,1.9.1c10.2,1.4,13.2,1.8,15.7,2.1.7,0,2.1.2,3.5.2s2.2,0,2.7-.2c3.2-1.1,9.4-3.8,12.8-9.8,5.5-9.6,5.1-11.1,5.1-11.1,0,0,1.4-4.3-6.3-5.4-6.9-1-111.4-14.5-125-16.2-.4,0-.8,0-1.2,0h0Z"/>
</svg>