<?xml version="1.0" encoding="UTF-8"?>
<svg id="Capa_1" xmlns="http://www.w3.org/2000/svg" version="1.1" viewBox="0 0 221.6 148.6">
  <!-- Generator: Adobe Illustrator 29.2.0, SVG Export Plug-In . SVG Version: 2.1.0 Build 108)  -->
  <path d="M122.9,9.7c3.8,0,7.5,1.3,10.6,3.5,1.2.9,2.7,2,4.5,3.3,1.5,1.2,2.3,4.2,2.1,5.8-.5,3-3.2,4.8-6,4.8s-3-.5-4.2-1.7c-1.4-1.3-2-2.4-2.5-3.2-1.8-2.7-4.7-4.4-8.2-4.4s-3.7.5-5.6,1.5c-1.4.7-3.1,2.4-3.9,3.8-1.2,2-2.6,6.1,3.6,15.4,5.1,7.6,11.1,9.3,15.5,9.3s5.9-1.1,5.9-1.1c0,0,6.4-1.8,19.6-8.2,7.1-3.4,11.5-4.2,14-4.2,2.1,0,2.9.6,2.9.6l27.4,13.7s-10.1.2-21.6.2-11.8,0-17.2-.2c-.2,0-.3,0-.5,0-16,0-18.6,21.1-10.9,32.4,7.8,11.4-3.7,13.2-3.7,13.2l-9.6.5c-9.6.5-11.9,8.2-9.1,18.3,2.7,10.1,11.9,11,11.9,11,0,0,4.3,0,10,0,8.5,0,20.1-.2,24.7-1,5.4-1,6.4-6.3,6.6-9.4.1-2.7,1.1-5.4,2.9-7.4,1.3-1.5,3.1-2.8,5.4-2.8,2.4,0,5.4,1.4,8.9,5.4,11.2,12.7-.5,20.1-7.5,23.1-2.5,1.1-5.1,1.6-7.8,1.6H18.7s-.2,0-.6,0c-1.2,0-3.8-.3-3.1-2.8.9-3.2,11.9-4.6,11.9-4.6h27.9c14.2,0,18.7-15.1,18.7-15.1,0,0,29.7-84.9,33.8-94.1,2.4-5.2,8.9-6.9,14.1-7.3.5,0,1,0,1.5,0M122.9,4.7c-.6,0-1.3,0-1.9,0-11.7,1-16.3,6.1-18.2,10.2-4.2,9.2-32.7,91-33.9,94.5,0,0,0,.1,0,.2-.1.4-3.8,11.6-14,11.6h-27.9c-.2,0-.4,0-.6,0-.1,0-3.1.4-6.2,1.2-3.9,1-8.6,2.7-9.8,6.9-.6,2.3-.3,4.5,1,6.2,1,1.4,3,3,6.9,3s.6,0,.8,0h162.3c3.4,0,6.7-.7,9.8-2,5.8-2.5,13.1-7.1,14.8-14.6,1.2-5.3-.7-10.8-5.6-16.4-4.1-4.7-8.4-7.1-12.6-7.1-3.4,0-6.6,1.5-9.1,4.4-2.5,2.9-4,6.6-4.2,10.5-.2,4.2-1.9,4.5-2.4,4.6-3.3.6-11.8.9-23.9.9s-8.5,0-9.6,0c-1.1-.2-5.8-1.3-7.4-7.3-1.2-4.6-1.2-8.4.1-10.2.3-.4,1.2-1.6,4.4-1.8l9.6-.5c.2,0,.4,0,.6,0,.7-.1,7.3-1.3,9.7-7,1.7-4.1.8-8.8-2.7-14-3.8-5.5-4.4-14.2-1.5-19.7,1.8-3.3,4.5-4.9,8.2-4.9s.2,0,.4,0c4.9.1,10.7.2,17.3.2,11.5,0,21.6-.2,21.7-.2,2.3,0,4.3-1.7,4.8-3.9.5-2.2-.6-4.5-2.6-5.6l-27.2-13.6c-1-.6-2.7-1.2-5.3-1.2-4.2,0-9.6,1.6-16.2,4.7-12.6,6.1-18.8,7.9-18.9,7.9-.2,0-.4.1-.6.2-.2,0-1.8.7-3.9.7-4.4,0-8.2-2.4-11.4-7.1-1.5-2.2-4.8-7.7-3.4-10.1.3-.6,1.4-1.6,1.9-1.9,1.1-.6,2.2-.9,3.3-.9,2.2,0,3.4,1.4,4,2.2,0,.1.1.2.2.3.6.9,1.4,2.2,3,3.7,2.1,1.9,4.8,3,7.6,3,5.4,0,10-3.8,10.9-9,.5-3.2-.8-8.2-4-10.6-1.7-1.3-3.2-2.4-4.5-3.4-3.9-2.9-8.8-4.5-13.5-4.5h0Z"/>
</svg>