<?xml version="1.0" encoding="UTF-8"?>
<svg id="Capa_1" xmlns="http://www.w3.org/2000/svg" version="1.1" viewBox="0 0 221.6 148.6">
  <!-- Generator: Adobe Illustrator 29.2.0, SVG Export Plug-In . SVG Version: 2.1.0 Build 108)  -->
  <defs>
    <style>
      .st0 {
        fill: none;
        stroke: #000;
        stroke-miterlimit: 10;
        stroke-width: 5px;
      }
    </style>
  </defs>
  <path class="st0" d="M65-207.6"/>
  <path d="M138.3,7.8c2,0,4.1,1,4.1,1,0,0,9.5,3.4,20.5,6.9,11,3.5,15,12.9,15,12.9,0,0,22,42.4,26.2,51.4,4.1,9-8.3,15.5-8.3,15.5l-17.7,8.5s-7.6,3.3-10.2,14c-2,8.4-8.6,9.3-11.3,9.3s-1.2,0-1.2,0c0,0,.4.2.3.2-.1,0-1.6-.5-9.1-3.3-2.1-.8-4.1-1.1-6-1.1-8.1,0-12.8,6.5-12.8,6.5l-7.4,10.9s-1.4,1.1-3.6,1.1-4.3-.9-6.8-4.2c-5.2-7.1-12-10.9-12-10.9l-67.5-21.5c-11.7-4.6-8.2-12.6-8.2-12.6l1.1-3.3,6.9-15.4s.7-.5,3.4-10.5c2.9-10.9-10.9-13.8-12.6-14.7-1.8-.8-.5-5.2-.5-5.2,0,0,.5-1.5,3.6-9,1.6-3.7,4.1-4.7,6.2-4.7s4,1,4,1c0,0,28,9.8,47.9,15.9,16.9,5.2,17,8.8,17,8.8l3.4,28s2.4,6.2,10.4,12.1c2.2,1.6,2.4,1.7,3.3,2.4,2,1.7,4.2,2.7,2.2,3.7-1.3.7-5.9,1.5-8.1,5.4-4.7,8.3,4.4,10.9,4.4,10.9,0,0,0,.1.9.1,1.4,0,5.1-.3,14.7-1.9,15.4-2.6,16.2-14.1,16.2-14.1,0,0,17.8-54.8,20.3-62.9,2.5-8.1-.3-12.6-.3-12.6,0,0-3.1-8.2-10.9-8.2s-3.8.4-6.1,1.5c-3.6,1.7-6.4,2.3-8.5,2.3-5,0-6.2-3.3-6.2-3.3,0,0-1.8-3.1-.4-8,.6-2.1,2.1-2.7,3.7-2.7M138.3,2.8s0,0,0,0c-4.2,0-7.3,2.4-8.5,6.4-1.7,5.8,0,10.1.7,11.5,1.1,2.5,4.4,6.2,10.8,6.2s6.7-.9,10.6-2.7c1.5-.7,2.8-1,4-1,4.2,0,6.1,4.8,6.2,5l.2.7h.1c.3.7,1.3,3.6-.2,8.7-2.5,8-20.1,62.3-20.3,62.8l-.2.7v.5c-.1,1-1.3,7.8-12,9.6-9.1,1.5-12.5,1.8-13.6,1.8-.8-.3-1.7-.9-1.9-1.4-.1-.3,0-1.1.7-2.2.9-1.5,2.8-2.2,4.3-2.7.6-.2,1.1-.4,1.7-.7,2.8-1.4,3.4-3.6,3.5-4.8.3-3.3-2.2-5.2-3.7-6.3-.4-.3-.7-.5-1.1-.8-.8-.7-1.2-.9-2.2-1.6-.4-.3-.8-.6-1.4-1-5.4-3.9-7.8-8-8.5-9.4l-3.2-27.1c-.4-4.8-6.9-9-20.5-13.1-18.5-5.7-44.4-14.7-47.4-15.8-1-.5-3.2-1.4-5.9-1.4-4.8,0-8.8,2.8-10.8,7.7-3.1,7.4-3.7,9.2-3.8,9.5-1.6,5.2-.4,9.5,3.1,11.2.5.2,1,.4,1.7.6,7.9,2.7,9,5.2,8.2,8.2-1.3,5-2.1,7.4-2.5,8.4h0s-.6,1.3-.6,1.3l-6.9,15.4v.2c0,0-.2.2-.2.2l-1.1,3.3c-.4,1.1-1.6,5.1.3,9.5,1.7,4.1,5.4,7.3,10.8,9.4h.2c0,0,.2.1.2.1l66.9,21.3c1.4.8,6.2,4.1,10,9.3,3.8,5.2,8,6.3,10.8,6.3s6.2-1.8,6.7-2.2l.6-.5.4-.6,7.4-10.8c.3-.4,3.5-4.4,8.8-4.4s2.8.3,4.2.8c9.7,3.6,9.7,3.6,10.8,3.6h4.1v-.4c5.5-1.1,11-4.8,12.9-12.8,1.8-7.7,6.8-10.3,7.4-10.6h.1c0,0,0,0,0,0l17.7-8.5h0s0,0,0,0c5.7-3,15.3-11.5,10.5-22-4.1-8.9-24.7-48.6-26.2-51.5-.8-1.6-5.8-11.5-18-15.4-9.8-3.1-18.5-6.2-20.1-6.7-1-.4-3.3-1.4-6-1.4h0Z"/>
</svg>