<?xml version="1.0" encoding="UTF-8"?>
<svg id="Capa_1" xmlns="http://www.w3.org/2000/svg" version="1.1" viewBox="0 0 203.4 128.1">
  <!-- Generator: Adobe Illustrator 29.2.0, SVG Export Plug-In . SVG Version: 2.1.0 Build 108)  -->
  <defs>
    <style>
      .st0 {
        fill: none;
        stroke: #000;
        stroke-miterlimit: 10;
        stroke-width: 5px;
      }
    </style>
  </defs>
  <path class="st0" d="M192.2,44.4c-5.4,4.8-10.4-.4-10.4-.4l-7.7-8.7s-3.5-5.2-8.6-2.8-20.6,9.2-20.6,9.2c0,0-5.8,4.5-4,9.1,0,0,0,0,0,.1,1.5,3.9,4.5,7.1,8.3,8.9,4.1,1.9,9.5,4.4,13.2,5.9,6.6,2.7,5.3,8.5,5.3,8.5l-.6,1.4c-.8,2.2-.2,4.6,1.6,6.1.7.6,1.6,1.3,2.8,2.2,5.5,4.5,8.7,6.4,8.7,6.4,0,0,3.1,5,.2,8.8-4.4,5.7-5,6-5,6,0,0-6.5,6-14.6,1.8-8.1-4.2-39.8-41-39.8-41,0,0-2.2-4-7.2-4.7-5-.6-9.1-.6-9.1-.6,0,0-2.9.5-5.4,3.5-1.7,2-3.3,3.3-4.3,3.9-.4.3-.9.5-1.3.7l-11.2,5c-.8.3-7.6,7.6-8.5,7.7-2.4.2-1.2-6.7-4-7.9-1.3-.6-2.7-.2-3.7.7l-45.6,42.9s-16.2,10.4-10-2.6c5.1-10.7,12.4-27.2,14.9-32.7.6-1.2,1.4-2.4,2.4-3.3l18.2-16.6c1.9-1.7,3.3-3.8,4.2-6.2.5-1.4,1.1-2.9,1.6-4.3,1.6-4.3,11.2-6.2,11.2-6.2,0,0,3.3-.4,8-7.2,5.7-8.2,49.3-21.1,49.3-21.1l26.9-10s7.5-1.9,10.2,5.8c2.7,7.7,11.1.1,11.1.1,0,0,4.8-3,9.8,4.2,5.4,7.7,12.3,15.6,12.3,15.6,0,0,7,6.9,1.6,11.7"/>
</svg>