<?xml version="1.0" encoding="UTF-8"?>
<svg id="Capa_1" xmlns="http://www.w3.org/2000/svg" version="1.1" viewBox="0 0 221.6 148.6">
  <!-- Generator: Adobe Illustrator 29.2.0, SVG Export Plug-In . SVG Version: 2.1.0 Build 108)  -->
  <defs>
    <style>
      .st0 {
        fill: none;
        stroke: #000;
        stroke-linejoin: round;
        stroke-width: 5px;
      }
    </style>
  </defs>
  <path class="st0" d="M108.3,22.1l77.9-2c3.6,0,7.2.5,10.6,1.7s6.4,3.4,7.3,4.6c5.2,6.6,5.4,8.6,5.4,8.6,0,0,6,17.7-7.4,17.5-13.5-.2-16.8-.3-16.8-.3,0,0-9.3,2.4-14.1,4.9s-9.1-4.9-9.1-4.9c0,0-8-4.4-13.9,1.7-2.5,2.6-5,6.2-5,6.2,0,0-6.3,3-11.5-3-5.2-6-10.3-11.2-10.3-11.2,0,0-4.3-3.3-12.4.5-11.2,5.3-16.6,9.7-17,17.4-.6,10.1,2.4,14.6,2.4,14.6,0,0,4.5,4.8-.3,10s-13.6,13.4-13.6,13.4l-17.6-9.2s-10.6-3-11.9-11.9c-.9-6.8-4.2-9.3-4.2-9.3,0,0-.9-.4-3.8,2s3.4,16.3,3.4,16.3c0,0,.5,17.5-7.4,20.9-7.9,3.4-9.9,3.8-9.9,3.8,0,0-6.6-5.3-12.1-.2-6.8,6.2-5.3,7.1-6,11-.2,1.3-.5,14,10.7,10.4,6.8-2.2,12.4-5.4,12.4-5.4l43.8-43.1s5.2-4.2,3.1-25.3,2.8-14.3,5.6-15.6,3.3-2.5,3.8-4.4l3.2-13.4s7.1-5.5,15.2-6.3"/>
</svg>