<?xml version="1.0" encoding="UTF-8"?>
<svg id="Capa_1" xmlns="http://www.w3.org/2000/svg" version="1.1" viewBox="0 0 221.6 148.6">
  <!-- Generator: Adobe Illustrator 29.2.0, SVG Export Plug-In . SVG Version: 2.1.0 Build 108)  -->
  <path d="M206.3,11.6c3.7,0,3.9,1.2,4,1.6.6,2.8-2.9,4.9-3.5,5.2-3.7,1.5-26.5,11.3-32,22.5-3.5,7.2-4.6,9.4-4.4,11-.5,4.1-1.5,14.9,1.4,28.2,1.5,7.1,2.8,12.9,3.4,17.6.7,5,.5,7.1.3,7.8-1.4.7-2.3.9-2.6.9h-.7c-.4,0-10.3,0-13.8-5.5-3.7-5.8-6.6-21-7.5-26.7-.2-3.7-1.3-14.4-8.5-16.3-1.2-.3-2.4-.5-3.7-.5-3.9,0-7.1,1.5-8.5,2.2-.4,0-1.2.2-2.4.2s-4.5-.3-8.3-1.6c-5.1-1.8-6.9-2.7-7.3-3-.7-.7-1.6-1.2-2.7-1.5-1-.3-3.1-.7-5.8-.7-5.8,0-10.9,2.1-14.9,6.1-4.7,4.7-7,7.5-7.8,9.7-1.1,2.2-2.6,7.4-1.1,17.7,1.7,11.5,3.6,21.9,3.6,22h0v.2s2.1,9.9-1.9,18.2c-3.2,6.5-5.4,9-6.1,9.7h0c-.8-.5-2-1.6-2.2-2.2,0-3.4.2-9.8.2-9.9v-.8l-.2-.8c-.5-1.5-2.6-5.7-12.2-13.7-8.7-7.3-44.1-38.2-49.2-42.7-.5-.9-1.1-2.7-.6-4,1-2.7,2.5-4.7,3-5.4,1-.7,3.3-2.1,5.5-2.1s2.8.6,4.1,1.8c7.5,6.9,24.9,27.4,25,27.6l.5.6.7.4c.5.3,3.2,1.8,6.2,1.8s7.4-2.8,8.3-7.3c1.3-6.5-.9-16.3-1.3-17.9-.2-1.2-.4-3-.4-4.1l11.1-10.9c1.8-1.3,13.6-9.2,28.8-12.2,17.7-3.4,96.1-22.3,99.4-23,0,0,1.7-.4,3.7-.4M76.3,136.3l-.3.2h0l.3-.2M206.3,6.6c-2.6,0-4.8.5-4.8.5,0,0-81.4,19.6-99.2,23-17.8,3.5-31.1,13.2-31.1,13.2l-12.4,12.1c-1.2,2.1,0,7.8,0,7.8,0,0,2.4,10.1,1.3,15.8-.5,2.6-2,3.3-3.4,3.3s-3.6-1.1-3.6-1.1c0,0-17.7-20.8-25.4-28-2.5-2.3-5.1-3.1-7.5-3.1-5,0-9,3.4-9,3.4,0,0-2.7,2.9-4.3,7.3-1.6,4.5,1.4,8.9,1.4,8.9,0,0,40.3,35.4,49.9,43.3,9.5,7.9,10.6,11.4,10.6,11.4,0,0-.2,6.6-.2,10.1s4.6,6.8,6.3,7.1h.6c1.5,0,2.8-.7,2.8-.7,0,0,3.1-1.8,8-11.8s2.3-21.5,2.3-21.5c0,0-1.8-10.4-3.6-21.9-1.7-11.5.9-15.1.9-15.1,0,0-.3-.9,6.7-8,3.7-3.8,8.1-4.7,11.3-4.7s3.7.4,4.5.6c.2,0,.4.2.6.3.3.4,1.9,1.5,9,4,4.3,1.5,7.6,1.9,10,1.9s4.4-.6,4.4-.6c0,0,3-1.8,6.5-1.8s1.6,0,2.4.3c4.4,1.2,4.9,12,4.9,12,0,0,3,20.9,8.3,29,4.9,7.5,16.5,7.8,18,7.8s.2,0,.2,0h.5c.9,0,2.9-.2,5.8-1.9,4-2.3,1.4-14.7-2-30.5s-1.2-27.9-1.2-27.9h0s.2-.8,3.8-8.1c4.9-10.1,29.6-20.1,29.6-20.1,0,0,7.6-3.8,6.3-10.7-.9-4.6-5.3-5.6-8.9-5.6h-.3Z"/>
  <path d="M-69.2-193.4c4.4,0,7.6,5.4,7.6,5.4L-21-89.9s2.7,1.7,1.6,7.3c-1,5.6-14.6,9.3-14.6,9.3l-175.7-.3c-10.6-2.3-2-11-2-11l12.3-6s7.3-5.6,3-16.6c-4.3-11-3.9-20.9-3.9-20.9,0,0,20.7-49.8,22.4-52.5.6-.9,1.5-1.5,2.7-1.5,2.3,0,5.9,1.9,11.2,6.8,6.6,6.1,10.7,6.7,12.1,6.7s.5,0,.5,0c0,0,.2,0,.6,0,2.3,0,10.7.5,10.7,7.7,0,8.3,4.3,15,4.3,15,0,0,11.3,5.3,9.9,12.4-.9,4.6-4.3,5.9-8.3,5.9s-4.3-.3-6.4-.7c-1.2-.2-2.7-.3-4.4-.3-6.4,0-14.6,1.2-14.6,1.2,0,0-14,9.3-17,16.6-3,7.3,6.6,10.3,6.6,10.3,0,0,23,.2,42.9.2s14.1,0,19.2-.1c19.3-.3,16.6.7,21.9-3.9,5.3-4.6,5-12.3,4-21.3-1-9-15.9-20-20.9-22.3-5-2.3-9.6-6.3-11.7-14.6-2-8.3,4.4-14.9,4.4-14.9,0,0,34.6-14.9,39.6-15.9.4,0,.7-.1,1.1-.1M-69.2-198.4h0s0,0,0,0c-.7,0-1.4,0-2,.2-5.2,1-34.7,13.7-40.6,16.2-.6.3-1.2.6-1.6,1.1-.3.4-8.3,8.7-5.7,19.6,2.1,8.5,6.8,14.4,14.4,18,5,2.4,17.4,12.3,18,18.3,1,8.8.9,14.1-2.3,16.9-.4.4-.8.7-1.1,1-1.4,1.3-1.5,1.3-1.8,1.4-1,.2-3.6.3-7.5.3-2.2,0-4.9,0-8.3,0-4.6,0-11.1.1-19.2.1-17.5,0-37.6-.2-42-.2-1.2-.5-2.7-1.4-3.1-2.3,0-.1-.2-.4.1-1.1,1.6-3.8,8.9-10.1,14.2-13.7,2.4-.3,8.1-1,12.7-1s2.9.1,3.5.2c2.2.4,4.7.8,7.2.8,9.8,0,12.5-6.2,13.2-9.9,1.7-8.9-7.4-15-11.2-17.1-1-1.9-2.9-6.3-2.9-11.2,0-3.3-1.1-6.2-3.3-8.3-3.8-3.8-9.4-4.3-12.4-4.3s-.8,0-.8,0c-.1,0-.2,0-.3,0-.4,0-3.3-.5-8.6-5.4-6.1-5.6-10.6-8.2-14.6-8.2s-5.4,1.4-7,3.8c-1.7,2.7-16.5,38.1-22.7,53.2-.2.6-.4,1.1-.4,1.7,0,.4-.3,11.1,4.3,22.9,2.4,6.2-.2,9.6-1.2,10.6l-11.7,5.6c-.5.2-1,.6-1.3,1-1,1-6.2,6.5-4.4,12.4.7,2.5,2.8,5.7,8.9,7,.4,0,.7.1,1.1.1l175.7.3h0c.4,0,.9,0,1.3-.2.2,0,3.9-1,7.7-2.8,6.4-2.9,9.8-6.3,10.5-10.4.9-5.2-.5-9-2.4-11.1l-40.3-97.1c0-.2-.2-.4-.3-.6-.5-.8-4.8-7.9-11.9-7.9h0Z"/>
</svg>