<?xml version="1.0" encoding="UTF-8"?>
<svg id="Capa_1" xmlns="http://www.w3.org/2000/svg" version="1.1" viewBox="0 0 221.6 148.6">
  <!-- Generator: Adobe Illustrator 29.2.0, SVG Export Plug-In . SVG Version: 2.1.0 Build 108)  -->
  <defs>
    <style>
      .st0 {
        fill: none;
        stroke: #000;
        stroke-miterlimit: 10;
        stroke-width: 5px;
      }
    </style>
  </defs>
  <path class="st0" d="M65-207.6"/>
  <path d="M133.9,24.9c38.4,0,73.9.2,73.9.2,0,0,6.8,3,2.2,6.9-1.9,1.6-4.3,2.1-6.5,2.1-3.1,0-5.8-1-5.8-1,0,0-.3,0-.7,0-1.8,0-6.3.3-7,3.4-.6,2.4,1.1,4.2,1.3,5.6.1.8-.3,1.6-1.1,1.9l-39.8,16.8s-6.3-3.8-12.7-3.8c-1.9,0-3.8.3-5.6,1.2-7.7,3.8-11,15-11,15l-3.2,10.5s-.8,4.5-8,7.8c-9.5,4.4-10.9,4.6-10.9,4.6l-26.4-63s-2.3-5.7-6.6-5.7c-1.6,0-3.4.8-5.5,2.8-7.8,7.8-16.5,18.1-16.5,18.1,0,0-3.4,2.6-.1,9.8,2.9,6.4,8,18.8,9.1,21.5.1.3,0,.6-.3.7l-5.7,2.4c0,0-.1,0-.2,0-.2,0-.3-.1-.4-.3l-3.2-7.6c-.4-1-1.3-1.9-2.4-2.2-.5-.1-1.1-.2-1.8-.2-1.4,0-3.4.4-5.9,1.5l-6,2.7c-1,.4-1.7,1.3-2,2.3l-2.4,8.6c-.2.7-.2,1.5.1,2.2l12.4,30.6c.4,1,0,2.1-1,2.5l-10.2,4.2c-.3.1-.7.2-1.1.2-.5,0-1.1-.1-1.5-.4l-7.1-4.6c-.9-.6-1.5-1.7-1.5-2.8v-24.1s15.7-41.1,15.7-41.1l12-12c2.3-2.3,3.1-5.7,2-8.8-.6-1.7-1.5-4-2.8-6.9-.6-1.3,48.8-1.6,94.2-1.6M133.9,19.9v5-5c-26.6,0-48,.1-63.6.3-9.5.1-16.9.3-22,.5-9.1.3-11.1.5-12.8,3-.9,1.4-1.1,3.2-.4,4.8,1.1,2.5,2,4.7,2.6,6.5.4,1.3.1,2.6-.8,3.6l-12,12c-.5.5-.9,1.1-1.1,1.8l-15.8,41.1c-.2.6-.3,1.2-.3,1.8v24.1c0,2.8,1.5,5.5,3.8,7l7.1,4.6c1.3.8,2.7,1.2,4.2,1.2s2-.2,2.9-.6l10.2-4.2c3.5-1.4,5.2-5.5,3.8-9l-12.2-30.1,2.1-7.4,5.4-2.4c1.9-.9,3.1-1.1,3.7-1.1l2.9,7c.9,2,2.8,3.3,5,3.3s1.4-.1,2.1-.4l5.7-2.4c2.8-1.2,4.1-4.4,3-7.2-1-2.5-6.2-15.1-9.1-21.6-1.1-2.4-1-3.8-.9-4.2.1-.1.2-.2.3-.3,0-.1,8.7-10.2,16.2-17.8,1.3-1.3,2-1.4,2-1.4.4.1,1.5,1.4,2,2.6l26.4,63.1c.8,1.9,2.6,3.1,4.6,3.1s.6,0,.9,0c.5,0,2.1-.4,12.1-5,8.2-3.8,10.3-9.3,10.7-11.1l3.1-10.4c.8-2.5,3.8-9.6,8.5-11.9.9-.5,2.1-.7,3.4-.7,4,0,8.6,2.2,10,3.1.8.5,1.7.7,2.6.7s1.3-.1,1.9-.4l39.8-16.8c2.8-1.2,4.5-4.2,4.1-7.2-.2-1.2-.6-2.2-1-2.9,0,0,0-.1-.1-.2.4,0,1-.2,1.7-.2,1.3.4,3.8,1,6.6,1s7.2-1.1,9.7-3.2c3.4-2.9,3.5-6,3.3-7.6-.7-4.7-5.3-7-6.7-7.6-.6-.3-1.3-.4-2-.4-.4,0-36-.2-73.9-.2h0ZM47.1,52.3h0s0,0,0,0h0Z"/>
</svg>