<?xml version="1.0" encoding="UTF-8"?>
<svg id="Capa_1" xmlns="http://www.w3.org/2000/svg" version="1.1" viewBox="0 0 221.6 148.6">
  <!-- Generator: Adobe Illustrator 29.2.0, SVG Export Plug-In . SVG Version: 2.1.0 Build 108)  -->
  <path d="M185.2,20.8h0c1,0,1.8.1,2.7.4,7.2,2.4,15.3,10.6,18.3,16.7,3.1,6.3,2.6,10.4,2.1,12.3-1.1,4.2-4.5,7.9-9.9,11.1-.7.4-89.4,53.4-93.2,55.6h0s-.2.1-.2.1c-.3.1-1.2.6-2.7.6s-2.5-.3-3.9-.9c-1.5-.6-3.1-.9-4.7-.9-7.7,0-12.7,7.3-13.9,9.1-.4.5-2.7,2.9-6.4,2.9s-1.4,0-2.2-.2c-3.8-.8-37.5-11-59.3-17.7h-.2c0,0-.3-.1-.3-.1-.6-.1-1.3-.5-1.7-.7,0,0,0,0,.1,0l10.5-.8c.1,0,.3,0,.5,0,2.4,0,7.3-.6,13.4-4.4,6.3-4,48.8-30.6,51.2-32.1,1.3-.7,4.9-2.4,7.8-2.4s.8,0,1.1.1c2.2.5,3.9,2,4.1,2.2,1,1,5.1,5,10,5s2.5-.3,3.6-.8c.6-.3,1.1-.5,1.6-.7,2.6-1.1,4-1.8,8.2-5.2,4.7-3.8,46.9-40.2,48.7-41.8h.1c0,0,0-.2,0-.2,2.1-2,8.7-7.2,14.6-7.2M185.2,15.8c-9.2,0-18.1,8.6-18.1,8.6,0,0-43.9,37.8-48.6,41.7s-5.1,3.6-8.6,5.2c-.5.2-1,.3-1.5.3-3.2,0-6.5-3.5-6.5-3.5,0,0-2.7-2.7-6.6-3.5-.7-.2-1.5-.2-2.2-.2-5,0-10.3,3.1-10.3,3.1,0,0-44.7,28-51.3,32.2-5.2,3.3-9.3,3.7-10.7,3.7s-.5,0-.5,0l-11.9.9s-3.6,1.4-3.8,4.3c-.5,5.2,5.8,6.4,5.8,6.4,0,0,54.4,16.6,59.7,17.8,1.1.2,2.2.3,3.2.3,6.9,0,10.6-5.1,10.6-5.1,0,0,4.1-7,9.7-7,.9,0,1.8.2,2.7.6,2.2.9,4.2,1.2,5.8,1.2,3.5,0,5.5-1.4,5.5-1.4,0,0,92.5-55.2,93.2-55.6,9.4-5.5,11.5-11.5,12.2-14.1,1-3.5,1-8.8-2.4-15.9-3.6-7.3-12.7-16.4-21.2-19.3-1.4-.5-2.8-.7-4.2-.7h0Z"/>
</svg>