<?xml version="1.0" encoding="UTF-8"?>
<svg id="Capa_1" xmlns="http://www.w3.org/2000/svg" version="1.1" viewBox="0 0 221.6 148.6">
  <!-- Generator: Adobe Illustrator 29.2.0, SVG Export Plug-In . SVG Version: 2.1.0 Build 108)  -->
  <path d="M166,9.6c1.2,0,2.6.4,4.4,1.2,3.3,1.5,2.6,6.3,2.5,6.8-.2.7-1.3,5.4-3.3,13.2-1.6,6.2-5,8.5-5.3,8.7-11.5,6.8-28.9,17.2-30.8,18.3-3.2,1.5-8.4,6.5-6.6,13.9,1.2,5.2,5.8,8.5,11.9,8.5s1.8,0,2-.1h.2s.2,0,.2,0c.3,0,26-5.7,36.7-8.2,4-.9,7.1-3.2,9-6.5,3.8-6.8.9-15.6.6-16.6-.1-.3-2.5-7.9,2.6-15.9,2.6-4,5.6-5.9,9.3-5.9,3.2,0,6.2,1.4,7.7,2.3,4.2,2.4,2.6,10.7,2.3,11.8-1.6,4.4-22.3,60.6-28.9,77.3-5.2,13.3-25.1,14-27.1,14.1L13.1,120c-.5-.2-1.2-.7-1.3-1.3-.2-2.2,1.6-3,3.1-3.2h.3s.5-.2.5-.2c.1,0,13.4-4.2,24.2-7.1,10.9-2.9,17.1-8.7,18.5-10,5.8-4.9,91.8-77.4,98.7-83.6,4.1-3.6,6.5-5,8.8-5M166,4.6c-3.9,0-7.4,2.1-12.1,6.2-7.1,6.2-98.9,83.6-98.9,83.6,0,0-5.4,5.9-16.4,8.9-11,3-24.4,7.2-24.4,7.2,0,0-8.1,1-7.5,8.6.4,4.5,5.2,5.8,5.2,5.8l141.1,12.3s0,0,0,0c1.2,0,25.1-.2,31.9-17.2,6.9-17.4,29-77.6,29-77.6,0,0,3.5-12.9-4.6-17.6-2.4-1.4-6.1-3-10.2-3-4.5,0-9.4,1.9-13.5,8.2-6.7,10.3-3.2,20.2-3.2,20.2,0,0,4.8,14.1-5.9,16.6-10.8,2.5-36.7,8.2-36.7,8.2,0,0-.5,0-1.3,0-2.1,0-6.1-.5-7-4.6-1.3-5.6,3.7-8.2,4-8.2.3,0,31.2-18.5,31.2-18.5,0,0,5.3-3.1,7.5-11.7,2.2-8.6,3.3-13.5,3.3-13.5,0,0,1.8-9.2-5.3-12.4-2.4-1.1-4.5-1.6-6.4-1.6h0Z"/>
</svg>