<?xml version="1.0" encoding="UTF-8"?>
<svg id="Capa_1" xmlns="http://www.w3.org/2000/svg" version="1.1" viewBox="0 0 221.6 148.6">
  <!-- Generator: Adobe Illustrator 29.2.0, SVG Export Plug-In . SVG Version: 2.1.0 Build 108)  -->
  <path d="M180.7,15c1.4,0,19.2,1.4,21.1,12.8,2.3,14.1,2.5,37.7,2.6,41.9-.8,2.9-2.2,6.1-3.1,6.9-1.1.6-4.8,2-8.9,2-5.9,0-7.9-2.9-9-5.1-5.6-11.9-15.1-35.6-15.2-35.9l-.3-.7-.5-.6c-.3-.4-7.4-8.7-22.5-8.7s-25.5.5-25.6.5c-.6,0-6.7.4-17.4,4.9-9.4,4-27.2,10.9-29.4,11.7-.5.1-2.1.5-3.7.5s-2-.3-2.1-.4c-2.5-5.2-3.5-6.8-3.8-7.2l-1.2-1.7-2-.4c-.3,0-1.3-.2-2.7-.2-4.3,0-7.9,1.7-10,4.7-2.8,3.9-6,15.7-6.9,19.2v.4c0,0-.1.4-.1.4,0,.5-.4,4.7,1.9,9.4,1.7,3.5,7.5,16.2,7.5,16.3v.2c0,0,.2.2.2.2,1.2,2,3.8,4.4,7.3,4.4s2.4-.3,3.5-.8c3-1.5,4.5-2.6,4.7-2.9l.5-.4.4-.5c.8-1.1,2-2.4,2.5-2.7.9-.4,2-.8,2.7-1,1.3,0,4.3.5,5.5,3.2,1.9,4.3,2.4,6.8,2.5,7.7-1,6.4-2.1,13.5-2.3,14.5-.9,3.4.5,7.1,3.4,9,1,.7,3.6,2.3,4.9,3,.7,1,1.4,2.4,1.1,2.9-2.2,3.1-7.2,8.6-9.4,10.9-1.9,1.3-5.5,3.1-7.9,3.1s-.4,0-.6,0c-5-.9-11.9-2.6-14.3-7.2-3.4-6.6-37.7-80.5-39-83.2-.3-.7-4.6-11.6.8-20.7,5.2-8.8,13.8-10.2,15.1-10.3h149.7M180.8,10H30.7s-12.1,1-19.1,12.8c-7,11.8-1.1,25.3-1.1,25.3,0,0,35.6,76.6,39.2,83.5,3.6,6.9,12.4,8.9,17.9,9.8.5,0,1,.1,1.4.1,5.2,0,11.2-4.3,11.2-4.3,0,0,7.2-7.5,10.2-11.9,3-4.4-1.9-9.6-1.9-9.6,0,0-4.2-2.6-5.4-3.4-1.2-.8-1.6-2.4-1.3-3.6s2.5-15.6,2.5-15.6c0,0,0-3.3-3-9.9-2.6-5.7-8.8-6.1-10.4-6.1s-.4,0-.4,0c0,0-2.3.6-4.1,1.5-1.9.9-4.4,4.3-4.4,4.3,0,0-1.2,1-3.8,2.2-.5.2-.9.3-1.3.3-1.8,0-2.9-1.9-2.9-1.9,0,0-5.9-12.9-7.6-16.4-1.8-3.6-1.4-6.7-1.4-6.7,0,0,3.7-14.1,6.1-17.6,1.5-2.2,4.2-2.6,5.9-2.6,1,0,1.7.1,1.7.1,0,0,.9,1.2,3.4,6.5,1.2,2.5,4.1,3.2,6.6,3.2s5.3-.8,5.3-.8c0,0,19.5-7.6,29.8-11.9,10.2-4.3,15.7-4.5,15.7-4.5,0,0,12.4-.5,25.4-.5s18.7,6.9,18.7,6.9c0,0,9.6,23.9,15.3,36.1,2.9,6.2,8.3,7.9,13.5,7.9s9.8-1.7,11.4-2.7c3.4-1.9,5.5-10.5,5.5-10.5,0,0,0-27.3-2.6-43.3-2.6-16-25.9-17-25.9-17h0Z"/>
</svg>