<?xml version="1.0" encoding="UTF-8"?>
<svg id="Capa_1" xmlns="http://www.w3.org/2000/svg" version="1.1" viewBox="0 0 221.6 148.6">
  <!-- Generator: Adobe Illustrator 29.2.0, SVG Export Plug-In . SVG Version: 2.1.0 Build 108)  -->
  <path d="M13,12.9c2.9,0,5.8,1.8,6.9,2.6,1.4,1.3,9.2,8.8,15.5,14.2,6.9,6,18.4,17.1,20.1,18.9,1.9,2.4,17,21.8,20.8,28.7,1.7,3,2.3,4.6,2.5,5.4v.9s-.2,6.1-.2,6.1c-.2,5.9,1.3,8.9,2.7,10.5,1.6,2.7,7.9,13.3,10.1,17.5,3.7,7,9.4,7.8,10.3,7.9h0c.1,0,.6,0,1.3,0,2.3,0,6.6-.4,10.1-2.9,1.9-1.4,7.7-3.9,11.2-5.3h.1s.1,0,.1,0c1.3-.6,4.7-1.5,13-1.5,13.9,0,31.4,2.7,31.5,2.7h.4c0,0,.4,0,.4,0h0c22.4,0,31-22.9,32.1-26.1.5-1.1,2.5-5.5,3.2-7.2.5-1.3,2-4.2,4-6.6,3.4,3.6,3.1,4.9,2.6,7.6-.1.6-.2,1.1-.3,1.7-.9,3.4-11.8,24.6-21.8,43.3,0,0,0,0,0,0-.3-.2-.7-.4-1.3-.8-1.8-1.2-4.3-1.8-7.5-1.8-2.6,0-5,.4-5.7.5-3.3.4-50.1,5.5-56.2,6.2-.9,0-1.7.1-2.4.1-2,0-3.2-.4-3.5-.7-3.8-3.7-7-5.5-9.8-5.5s-1,0-1.5.2c-.4,0-2.1.5-6.6,1.5-.7.2-1.4.2-2,.2-3.1,0-5-1.7-5.3-2h0c0,0-.2-.3-.2-.3,0,0-2.7-2.5-6.3-7.3-2.8-3.8-3.4-7.4-3.4-7.9-.6-12.5-2.8-14.6-3.8-15.5-3.4-3.2-8.8-9.3-9.8-10.4l-28.4-39.7h0c0-.1-.1-.3-.1-.3L11.4,18.3h0s0-.1,0-.1c-1.2-1.4-2.1-3.4-1.9-4,0,0,0-.1.4-.3,1-.6,2-1,3.2-1h0M13,7.9c-1.9,0-4,.5-6,1.8-6.3,4.1.5,11.8.5,11.8l24.5,29.8,28.5,39.9s6.3,7.2,10.3,10.9c1.7,1.6,2.2,12.3,2.2,12.3,0,0,.4,5.1,4.4,10.5,4,5.4,7,8,7,8,0,0,3.3,3.5,8.9,3.5s2-.1,3.1-.3c5.4-1.2,6.7-1.5,6.7-1.5,0,0,0,0,.3,0,.7,0,2.6.4,6.3,4.1,1.6,1.5,4,2.2,7,2.2s1.9,0,2.9-.2c6.4-.7,56.4-6.2,56.4-6.2,0,0,2.4-.5,5-.5,1.8,0,3.6.2,4.8,1,2.8,1.8,3.8,1.8,3.8,1.8,0,0,.3.1.7.1.9,0,2.5-.4,3.9-3.1,0,0,21.6-40.3,22.3-44.8.7-4.6,2.5-7.6-4.7-14.8,0,0-1.2-.8-2.7-.8-1,0-2.1.4-3.2,1.5-2.6,2.9-4.6,6.7-5.4,8.5-.8,1.8-3.3,7.3-3.3,7.3,0,0-7.2,22.9-27.4,22.9s0,0,0,0c0,0-17.8-2.8-32.3-2.8-6.2,0-11.8.5-15.1,2,0,0-9.1,3.5-12.4,5.9-2.4,1.7-5.6,2-7.1,2s-.9,0-.9,0c0,0-3.7-.3-6.3-5.3-2.6-5-10.6-18.4-10.6-18.4,0,0-1.9-1-1.7-7.1l.2-6.1s1.2-1.1-3.1-8.9c-4.4-7.8-21.5-29.6-21.5-29.6,0,0-12.9-12.7-20.6-19.3-6.7-5.8-15.5-14.2-15.5-14.2,0,0-4.7-3.8-10.2-3.8h0Z"/>
</svg>