<?xml version="1.0" encoding="UTF-8"?>
<svg id="Capa_1" xmlns="http://www.w3.org/2000/svg" version="1.1" viewBox="0 0 221.6 148.6">
  <!-- Generator: Adobe Illustrator 29.2.0, SVG Export Plug-In . SVG Version: 2.1.0 Build 108)  -->
  <defs>
    <style>
      .st0 {
        fill: none;
        stroke: #000;
        stroke-miterlimit: 10;
        stroke-width: 5px;
      }
    </style>
  </defs>
  <path class="st0" d="M154,137.8s7-4.1,9.1-13.6c2-9.4,19-82.4,19-82.4,0,0,.9-9.8-3.6-11.9-4.5-2.1-8.2-1.9-8.2-1.9h-8.1s-7.2-.4-9.7,11.5c-2.6,12-4.7,26.2-4.7,26.2l-3.5,15.1s-3,6.4-9.3,6.8c-6.3.4-9.2-.5-9.2-.5l-25.2-6s-7.9-3-7.8-6.4.4-6,3.1-11.9,14.9-38,14.9-38c0,0,2.6-8.2-3.7-13.2-6.3-5-8.2-5.3-8.3-5.3s-7.6-3.2-12.9,3.1-10.4,15.3-10.4,15.3L31.6,91.6s-4.7,5.7-2.3,9.7,6.1,4.6,6.1,4.6c0,0,.7.7,4.6-.3,3.9-1,8-2,8.1-1.9s4.1-1.3,12.7,2.9l65.9,33.7s14.1,7.9,27.2-2.5Z"/>
</svg>