<?xml version="1.0" encoding="UTF-8"?>
<svg id="Capa_1" xmlns="http://www.w3.org/2000/svg" version="1.1" viewBox="0 0 221.6 148.6">
  <!-- Generator: Adobe Illustrator 29.2.0, SVG Export Plug-In . SVG Version: 2.1.0 Build 108)  -->
  <defs>
    <style>
      .st0 {
        fill: none;
        stroke: #000;
        stroke-miterlimit: 10;
        stroke-width: 5px;
      }
    </style>
  </defs>
  <path class="st0" d="M182.9,59.6c-1,7-4.4,21.8-4.4,21.8,0,0-7.1,19.4-25.2,18.4-18-1-131.2-9.3-131.2-9.3,0,0-10.7-2.6-11.4,4.3s-2.4,18.1-2.4,18.1c0,0,0,9,9.4,9h167.3s20-1.8,24.4-18,4.8-17.2,2.4-33.9-6.1-38.9-6.1-38.9c0,0-1.4-11.5-16.5-11.1s-122.9,3.6-122.9,3.6c0,0-22.7-.7-29.4,14.4s1.7,20.6,1.7,20.6c0,0,9.8,12.4,22.3,12.4s15.1-3,15.1-3c0,0,13.7-10.5,20-12.9s33.1-7.1,33.1-7.1l36.1-6.3s20.9-4.9,17.7,18h0Z"/>
</svg>