<?xml version="1.0" encoding="UTF-8"?>
<svg id="Capa_1" xmlns="http://www.w3.org/2000/svg" version="1.1" viewBox="0 0 221.6 148.6">
  <!-- Generator: Adobe Illustrator 29.2.0, SVG Export Plug-In . SVG Version: 2.1.0 Build 108)  -->
  <path d="M146.2,22.5c.4,0,1.8.4,3,1.4,1.8,1.5,2.6,3.5,4.8,9.7.3.8.6,1.7,1,2.6,4,10.9,16.3,12.8,16.8,12.9h.1s.1,0,.1,0l11.8,1.2h0s0,0,0,0c0,0,3.8.4,7.1,2.9,3,2.3,3.5,5.5,1.6,9.7-.9,2.1-5.7,3.7-8.9,4.1l-31,.9c-.6,0-1.2.1-1.7.3-3.5,1-11.9,4.1-13.3,10.8-1.4,6.5,3.7,11.6,6.9,13.6l.4.2.4.2,53.1,21.2c5.1,2.1,11.5,5.6,12.8,7.4,2.1,3,2.9,8.5.5,12.3-2.1,3.2-5,4.8-8.9,4.8s-4.9-.8-4.9-.8c0,0,0,0,0,0L21.9,69.5c-11.7-4.6-14.3-19.8-13-26.9.9-5.1,6.4-10.5,8.7-12.5.8-.4,3.7-1.9,8.9-3.7,1.5-.5,3.7-.8,6.2-.8,3.8,0,7.5.6,8.5.8,3.5,1.2,32.2,11.4,37.4,13.2,1.4.5,2.7.7,4.1.7,5.6,0,8.8-4.3,9.8-6.8v-.2c0,0,.2-.2.2-.2.6-2,1.8-5.7,2.8-7.4.8-1.4,2.2-1.6,2.7-1.6h0s.4,0,.4,0l47.7-1.8M146.4,17.5l-48,1.8s0,0-.2,0c-.9,0-4.9.2-7.1,4.1-1.7,2.9-3.3,8.5-3.3,8.5,0,0-1.4,3.6-5.2,3.6s-1.5-.1-2.4-.4c-5.5-2-37.7-13.3-37.7-13.3,0,0-4.6-1-9.8-1s-5.5.3-7.9,1.1c-6.9,2.4-10,4.3-10,4.3,0,0-9.4,7.3-10.8,15.7-1.5,8.4,1.4,26.7,16.1,32.4l176,68.5s2.9,1.1,6.7,1.1,9.4-1.4,13.1-7c3.7-5.7,2.5-13.5-.6-17.8-3-4.3-15-9.2-15-9.2l-53.1-21.2s-5.7-3.4-4.6-8.3c.9-4.3,8.3-6.7,9.8-7.1.2,0,.3,0,.5,0l31.2-.9s10.5-1.1,13.1-7c3-6.6,1.5-12.2-3.1-15.7-4.6-3.6-9.7-4-9.7-4l-11.8-1.2s-9.8-1.5-12.8-9.7c-3-8.2-4-11.7-7.3-14.4-2.9-2.4-6.1-2.6-6.1-2.6h0Z"/>
</svg>