<?xml version="1.0" encoding="UTF-8"?>
<svg id="Capa_1" xmlns="http://www.w3.org/2000/svg" version="1.1" viewBox="0 0 221.6 148.6">
  <!-- Generator: Adobe Illustrator 29.2.0, SVG Export Plug-In . SVG Version: 2.1.0 Build 108)  -->
  <path d="M173,15.8c1.5,0,5.3,2.5,7.8,5.1.4.5,3.1,3.7,5.1,8.3.3.7-.8,1.6-1.4,2-4.6,1.6-29.2,10-36.2,11.9-8,2.2-10.3,3.4-11.6,5.2-.4.5-1.6,1.8-4.3,4.7-.8.8-1.9,1.2-3.4,1.2s-.8,0-.9,0l-12.6-3.3c-.6-.2-2.2-.6-4.1-.6-3.7,0-6,1.6-7.2,2.9-1.2,1.3-2.6,3.6-2.4,7.3.5,7.5,6.3,11.1,10,12.1,3,1.1,29.6,10.5,38.3,13.1,1.8.5,3.7.8,5.5.8,9.4,0,15.6-6.8,16.2-7.5,0,0,0,0,0,0,.2-.2,4.4-5.2,9.2-12.1.7-1,1.9-2.3,4.3-2.3.2,0,.5,0,.6,0,2,1.1,7,4,11.1,6.3,1.5.8,2.6,4.4,3,6.9-.2,2.1-.5,8.2.4,20.4.8,11.4-6.7,24.8-10.8,30.3-.5.6-2.7,1.5-6.1,1.5s-.4,0-.5,0l-54.2-4.1c-1.5-.2-10.2-1.3-20.3-1.3s-11.4.4-16,1.2c-7.7,1.4-16.6,1.7-22.8,1.7s-7.8-.2-8.9-.2c-3.3-.6-27-5-33.9-6.8-3.5-.9-4.7-2.6-4.9-3.1-.1-.7,0-.5-.5-1.1-.1-.4-.4-1.8.2-4,.4-.3,1.9-.8,4.1-.8.2,0,.4,0,.5,0l142.4,14.8c.3,0,1.9.2,3.9.2,9.3,0,11.9-4,12.5-7.4,1-5.5-2.7-9.7-6.4-11.2,0,0-.1,0-.2,0L60.8,63.8c-.2,0-.4-.1-.6-.2-5.8-1.5-13.5-4.4-15.3-6.2-.3-.7.1-2.8.9-4.7,4.5-4,24.3-21.6,29.4-26.4,1.1-1.1,2.8-1.6,5-1.6s2.8.3,3.3.4c2.7,1.3,16.1,7.7,26.1,12.7,3.8,1.9,7.7,2.8,11.5,2.8,6.7,0,11.3-3,13-4.4,13.1-7.2,34.6-18.8,38.7-20.4M172.9,9.8c-.7,0-1.3,0-1.9.3-5.7,2.1-40.2,21.1-40.2,21.1,0,0-3.5,3.3-9.6,3.3s-5.5-.6-8.8-2.2c-11.3-5.6-26.7-12.9-26.7-12.9,0,0-2.4-.8-5.4-.8s-6.4.7-9.2,3.3c-5.7,5.4-30.1,27.1-30.1,27.1,0,0-4.5,8.3-.4,12.5,4.1,4.2,18.1,7.9,18.1,7.9l117.6,43.9s3.3,1.4,2.8,4.7c-.3,2-3.8,2.4-6.6,2.4s-3.3-.2-3.3-.2l-142.6-14.8s-.4,0-1,0c-2.4,0-8.5.5-9.8,4.8-1.7,5.5.2,8.8.2,8.8,0,0,1.5,5.1,9.2,7.1,7.7,2,34.7,6.9,34.7,6.9,0,0,3.9.2,9.6.2s15.8-.3,23.8-1.7c4.7-.8,10-1.1,14.9-1.1,10.5,0,19.7,1.3,19.7,1.3l54.5,4.2s.3,0,.8,0c2.2,0,8.2-.3,10.9-3.9,3.3-4.4,13.1-19.8,12-34.4-1.1-14.5-.4-19.9-.4-19.9,0,0-.7-9.1-6-12.1-5.3-3-12-6.8-12-6.8,0,0-1.1-.3-2.7-.3-2.6,0-6.4.8-9.2,4.9-4.6,6.7-8.8,11.6-8.8,11.6,0,0-4.8,5.5-11.7,5.5s-2.5-.2-3.8-.6c-8.9-2.6-38.2-13-38.2-13,0,0-5.4-1.3-5.8-6.8-.2-3.1,1.9-3.8,3.6-3.8s2.5.4,2.5.4l12.9,3.4s.9.2,2.2.2c2.1,0,5.3-.5,7.8-3.1,4-4.2,4.9-5.3,4.9-5.3,0,0,.4-.7,8.3-3,8-2.2,37.3-12.3,37.3-12.3,0,0,6.8-3.9,4.2-9.9s-6.2-10-6.2-10c0,0-6.8-7-12.3-7h0Z"/>
</svg>