<?xml version="1.0" encoding="UTF-8"?>
<svg id="Capa_1" xmlns="http://www.w3.org/2000/svg" version="1.1" viewBox="0 0 221.6 148.6">
  <!-- Generator: Adobe Illustrator 29.2.0, SVG Export Plug-In . SVG Version: 2.1.0 Build 108)  -->
  <path d="M176.8,19.1c2.3,0,9.8.5,11.5,6.5,2.1,7.6,5.6,32,5.7,33,.6,4.6,2,17.4,1.7,22.5-.4,6.5-1.3,12.3-2.5,16-1.4,4.2-5.4,13.4-8.5,16.8-3.5,3.9-9.8,9-19.9,11.8-11.4,3.1-17.2,3.6-20.5,3.7-3.3,0-77,.1-115.7.1-1.1-.1-7.4-1.1-8.2-5.6-.9-5.4-.7-7.7-.6-8.4h0c0,0,.1-.6.1-.6.2-.7,1.2-3.7,2.8-4.9,2.9-2.1,5.7-3,7.2-3,2.1,0,10,.4,13.1.5.4,0,1,0,1.9,0,5.3,0,9.5-1.8,11.9-5.2,3-4.1,3.8-6.3,4.1-7v-.3c0,0,.1-.3.1-.3.2-.8.6-2,.8-2.4.6-.6,1.6-1.2,3-1.2s.7,0,1.1.1c4.1.8,29.7,6,29.9,6.1h.3c0,0,.4,0,.4,0,0,0,5.3.3,8.2.5,3,.2,53.6,2.4,55.8,2.5,0,0,0,0,.3,0,1.5,0,7-.3,11.7-4.7,2.9-2.7,4.9-4.9,5.6-6.4l.2-.4v-.4c.3-.6,1.9-6.1,2-9.9,0-3.3-.5-9.7-.6-10.3-.1-1.7-1.3-15-6.9-22.5-5.4-7.2-10.6-10.4-11.1-10.7h-.2c0,0-.2-.2-.2-.2-.5-.3-5.5-2.6-12.2-2.6-2.4,0-4.7.3-6.9.9-8.1,2.1-13.4,5.4-14.6,6.2l-43.2,24.3c-3.7,1.7-13.9,5.9-19.1,6.4-6.4.6-19.2,1.1-21.7,1.3-1.1-.2-3.8-.9-4.9-2.7-.8-1.2-.9-3-.3-5.4,3.3-12.2,8.2-27.6,8.6-29,.4-.9,4.9-12.1,17.6-12.6l111.6-2.8h0s0,0,0,0c0,0,.1,0,.3,0M176.8,14.1c-.3,0-.5,0-.5,0l-111.7,2.8c-16.7.7-22.1,16-22.1,16,0,0-5.2,16.3-8.7,29.3-3.6,13,9.8,14.4,9.8,14.4,0,0,15.1-.6,22.4-1.3,7.3-.6,20.9-6.9,20.9-6.9l43.6-24.5s4.9-3.4,13.2-5.7c2-.5,3.9-.7,5.6-.7,5.7,0,10,2.1,10,2.1,0,0,4.7,2.8,9.7,9.4,5,6.6,5.9,19.9,5.9,19.9,0,0,.6,6.7.5,9.9,0,3.2-1.7,8.5-1.7,8.5,0,0-.7,1.4-4.5,4.9-3.5,3.2-7.6,3.3-8.3,3.3s0,0,0,0c0,0-52.7-2.3-55.6-2.5-2.9-.2-8.2-.5-8.2-.5,0,0-25.9-5.3-30-6.1-.7-.1-1.4-.2-2-.2-3.1,0-5.3,1.4-6.6,2.6-1.5,1.4-2.2,4.9-2.2,4.9,0,0-.5,1.7-3.3,5.6-2,2.7-5.8,3.1-7.9,3.1s-1.5,0-1.5,0c0,0-10.8-.5-13.5-.5s-6.4,1.4-10.1,3.9c-3.6,2.6-4.8,7.8-4.8,7.8,0,0-1,2.1.4,11,1.5,8.9,12.9,9.8,12.9,9.8,0,0,111.8,0,116.1-.1,4.3-.1,10.5-.8,21.7-3.9,11.2-3.1,18.3-8.9,22.2-13.3,4-4.4,8.2-14.4,9.6-18.6,1.4-4.2,2.3-10.5,2.7-17.2.4-6.7-1.8-23.5-1.8-23.5,0,0-3.7-25.5-5.9-33.6-2.6-9.6-13.8-10.1-16.3-10.1h0Z"/>
</svg>