<?xml version="1.0" encoding="UTF-8"?>
<svg id="Capa_1" xmlns="http://www.w3.org/2000/svg" version="1.1" viewBox="0 0 221.6 148.6">
  <!-- Generator: Adobe Illustrator 29.2.0, SVG Export Plug-In . SVG Version: 2.1.0 Build 108)  -->
  <path d="M26.8,32.4c.6,0,1,0,1,0s0,0,0,0h.4c0,0,.4,0,.4,0,0,0,1.9,0,5.8,0,8.4,0,26.9.2,56.1,1.4,35.8,1.5,55.2,7.2,66.7,10.6,1.9.6,3.5,1,5,1.4,6,1.6,8,3.1,8.4,3.5h0c0,0,6.2,9.4,6.2,9.4,1.2,1.7,3.7,3.6,7.3,3.6s.9,0,1.4,0c4.6-.6,7.1-4.8,7.7-8.3.2-.8,1.8-6,8.5-6.8.4,0,.7,0,1.1,0,4.7,0,6.5,4.7,6.9,6,0,.9.2,4.1,0,12.3-.2,5.8-4.4,6.8-6,7H57.9c-9.3,0-14.8,3.2-16.3,4.2-.9.5-4,2.2-6.7,3.7-1.6.9-5.1,2.8-5.5,6.1-.2.9-.2,2.3.3,3.9.6,1.7,2,3.4,4.2,5h.2c0,.1.2.3.2.3.3.2,8.6,5.1,17.9,9.5,9.9,4.6,17.7,4.7,18.6,4.7h0s126.5-1.3,126.5-1.3h0s0,0,0,0c0,0,.1,0,.2,0,.6,0,2.6,0,4.5.7.7.2,1.4,1.8,1.6,2.6.3,1.4-.5,2.8-1.4,3.7-.6.4-2.4.8-3.9.9H43.8c-19.6,0-19.9-.2-25.3-2.8-.6-.3-1.3-.6-2-1-4.9-2.4-4.5-11.6-4.5-11.7,0-.4,2.4-39.3,3.6-57.1.5-7.4,4.3-11.2,11.2-11.2h0M26.8,27.4c-4.3,0-15.2,1.4-16.2,15.9-1.2,18-3.6,57.1-3.6,57.1,0,0-.9,12.6,7.3,16.5,8.1,3.9,6.7,4.3,29.5,4.3h155s5.2-.3,7.2-2.3c2-2,3.4-5.1,2.8-8.2-.2-1.3-1.5-5.3-4.8-6.4-2.6-.9-5.2-1-6.2-1-.3,0-.4,0-.4,0l-126.5,1.3s0,0,0,0c-.1,0-7.3,0-16.4-4.3-9.2-4.3-17.4-9.2-17.4-9.2,0,0-2.1-1.6-2.4-2.6-.3-1,0-1.7,0-1.7,0,0-.1-.7,2.9-2.4,3.1-1.7,6.9-3.8,6.9-3.8,0,0,4.6-3.5,13.6-3.5h146s10.4-.7,10.7-11.8c.3-10.9,0-13.3,0-13.3,0,0-2.5-10.1-11.8-10.1s-1.1,0-1.7.1c-10.7,1.3-12.8,10.7-12.8,10.7,0,0-.7,4.1-3.5,4.4-.3,0-.5,0-.8,0-2.2,0-3.2-1.4-3.2-1.4l-6.1-9.3s-1.2-2.9-11.3-5.6c-10.1-2.7-30.5-10.5-72.8-12.2-29.1-1.2-47.6-1.4-56.3-1.4-3.9,0-5.8,0-5.8,0,0,0-.7,0-1.7,0h0Z"/>
</svg>