<?xml version="1.0" encoding="UTF-8"?>
<svg id="Capa_1" xmlns="http://www.w3.org/2000/svg" version="1.1" viewBox="0 0 221.6 148.6">
  <!-- Generator: Adobe Illustrator 29.2.0, SVG Export Plug-In . SVG Version: 2.1.0 Build 108)  -->
  <path d="M204.6,10.5h0c1.6,0,3,.3,3.7.8.9.6.9,1,.8,1.6-.1.8-.6,1.6-.8,2h-.1c0,.1-.2.5-.2.5-.3.4-2.6,3.9-8.3,6.3l-31,13.2c-5.5,1.7-12.6,7.9-10.3,18.4,1.4,6.4,2.9,9.1,4.3,11.4.9,1.5,1.6,2.7,2.3,5.2,1.8,6.7,2.2,10.1-1.8,14.5-5.1,5.6-11,8.5-17.6,8.5s-1.2,0-1.8,0c-9.6-.7-49.9-3.2-53.1-3.4-.6,0-1.8-.2-3.4-.2-5,0-14.6,1.2-22.1,9.6-4.6,5.2-6.9,11.7-9.1,18-2.4,6.9-4.6,13.3-9.7,17.8-2.5,2.3-5.9,3.5-9.4,3.5s-5.8-.9-8-2.7c-4.1-3.3-9-13.7-11.1-19.5v-.2c0,0-.1-.2-.1-.2l-5.4-12.3c-.4-2.9-.7-14.3,16.5-20.5l79.9-28.9h.2c0,0,.2-.2.2-.2L195.8,12.2c.8-.3,5-1.8,8.8-1.8M204.6,5.5c-5.3,0-10.8,2.2-10.8,2.2l-86.8,41.6-79.9,28.9c-21.7,7.8-20.1,23.7-19.7,26.3,0,.2,0,.4.2.6l5.5,12.6s5.8,16.4,12.7,21.7c3.2,2.5,7.1,3.7,11.1,3.7s9.1-1.6,12.7-4.8c11.1-9.8,10.5-26.4,19.2-36.2,6.1-6.9,14.1-7.9,18.3-7.9,1.8,0,2.9.2,2.9.2,0,0,43.3,2.7,53.3,3.4.7,0,1.5,0,2.2,0,9,0,16-4.3,21.4-10.1,5.7-6.4,4.8-12,2.9-19.1-1.9-7.2-4.4-6.4-6.5-16.4-2.1-10,7.1-12.6,7.1-12.6,0,0,23.4-10,31.2-13.3,7.8-3.3,10.7-8.5,10.7-8.5,0,0,4.7-6.4-1.1-10.6-1.8-1.3-4.2-1.8-6.6-1.8h0Z"/>
</svg>