<?xml version="1.0" encoding="UTF-8"?>
<svg id="Capa_1" xmlns="http://www.w3.org/2000/svg" version="1.1" viewBox="0 0 221.6 148.6">
  <!-- Generator: Adobe Illustrator 29.2.0, SVG Export Plug-In . SVG Version: 2.1.0 Build 108)  -->
  <path d="M202.1,17c1.4,0,2.8.4,4.3,1.2,2.1,1.2,2.3,5.8,2.1,8l-19.2,67.1v.3c0,0-.1.3-.1.3,0,.2-2.6,15.9-11.7,27.7-5.7,7.4-20.8,10-33,10s-1.2,0-1.4,0c-11.3-1-40.6-3.7-43.5-4.1-2-.3-6-.4-11.8-.4s-4.2,0-4.2,0h-.2s-.2,0-.2,0l-49.7,4.1h0c-2.4,0-3-.5-4.4-1.6-.6-.5-1.3-1.1-2.3-1.7-1.6-1.4-7.7-9-12.4-15.3-.1-.2-1-1.7-1.4-4.5.3-.1.7-.3,1-.3.7,0,6.5-.9,10.2-1.2.2,0,.7.6,1,1.1h0c0,.1.2.5.2.5l4.9,8,.2.4.3.3c.4.5,4.4,4.9,12.9,7.2,1.7.5,3.7.7,5.8.7,7.3,0,14.9-2.8,15.2-2.9h.1c0,0,.1-.1.1-.1l10.8-4.9c7.2-3.2,15.9-6.7,18.4-7.3,0,0,0,0,0,0,.2.7.7,2.8,1.1,5.8.6,5.1,3.2,7,5.4,7.7.6.3,1.3.4,2.1.4s.3,0,.4,0c1.1,0,4.3.4,13.4,1.4,3.3.4,7,.6,10.9.6,16,0,31.8-3.2,32.5-3.3h.6c0-.1.5-.4.5-.4,13.7-6.3,15.8-9.8,14.7-13.8-.2-.9-.9-3.3-11.4-15.7h0c0-.1,0-.2,0-.2-.8-.8-2.4-2.2-4.7-2.2s-1.3.1-1.9.4c-.5.2-1.9.7-3.5,3h0c0,0,0,.2,0,.2-.1.2-2.8,4.3-4.8,10.7-.8,2.6-2.7,3.4-3.2,3.6h0s-.4.1-.4.1c0,0-2.5.9-8.9,2.6-.9.3-1.9.4-2.9.4-2.8,0-4.9-1.1-5.2-1.2h0c-.8-.5-3.9-2.9-4.6-5.9-.5-2.1,1.6-6.3,3.4-8.7,1.2-1,5.6-4.9,13.4-10.8,9.5-7.2,10.9-12.4,11.5-14.9,0-.1,0-.2,0-.3.7-1.6,3.4-8,3.8-9.1,2.1-4.1,7.6-14.9,9.8-18.1.1-.2.2-.2.5-.2.6,0,1.4.3,1.6.4l7.2,3.6,4,2,2.4-3.7c4.5-6.9,13.5-20.5,14.8-22.4,1-1.4,2.9-3.4,3.8-4.3.4-.1,1-.2,1.7-.2h0M202.1,12c-2.5,0-4,.8-4.1.8-.2,0-3.7,3.4-5.5,5.9-1.7,2.5-14.9,22.5-14.9,22.5l-7.3-3.7s-1.7-.9-3.8-.9-3.3.5-4.6,2.3c-3,4.2-10.3,18.9-10.3,18.9,0,0-3.2,7.8-3.9,9.4-.7,1.6-.3,5.8-10,13.1-9.6,7.3-14.1,11.4-14.1,11.4,0,0-5.9,7.5-4.6,13.2,1.3,5.7,6.9,9,6.9,9,0,0,3.2,2,7.8,2s2.7-.2,4.2-.6c6.8-1.8,9.3-2.7,9.3-2.7,0,0,4.9-1.2,6.7-7s4.2-9.4,4.2-9.4c0,0,.8-1.1,1.3-1.3,0,0,.1,0,.2,0,.5,0,1.1.6,1.1.6,0,0,9.8,11.5,10.4,13.7.6,2.2-12,8-12,8,0,0-15.8,3.2-31.5,3.2s-7-.2-10.3-.6c-10.3-1.2-13.5-1.5-14.3-1.5,0,0,0,0,0,0,0,0,0,0,0,0-.1,0-.3,0,0,0,0,0,0,0,.1,0-.2-.2-2.1.5-2.6-3.7-.5-4.2-1.3-6.8-1.3-6.8,0,0-1.1-3.4-4.5-3.4-.3,0-.6,0-1,0-4.1.7-19.7,7.6-19.7,7.6l-10.8,4.9s-7,2.6-13.5,2.6-3.1-.2-4.5-.5c-7.3-2-10.5-5.6-10.5-5.6l-4.9-8s-1.8-4-5.5-4-.4,0-.5,0c-4,.4-10.4,1.3-10.4,1.3,0,0-5.9.8-5.3,5.5.6,4.7,2.4,7.1,2.4,7.1,0,0,11.2,15.1,13.7,16.6,2.5,1.5,3.7,4.1,9.4,4.1s.2,0,.3,0l49.8-4.1s1.8,0,4.1,0c3.7,0,8.9,0,11.1.4,3.7.5,43.9,4.1,43.9,4.1,0,0,.6,0,1.7,0,6.2,0,28.3-.8,36.9-11.9,10-13,12.6-30,12.6-30l19.3-67.4s1.6-10-4.5-13.4c-2.6-1.4-4.9-1.8-6.7-1.8h0Z"/>
</svg>