<?xml version="1.0" encoding="UTF-8"?>
<svg id="Capa_1" xmlns="http://www.w3.org/2000/svg" version="1.1" viewBox="0 0 221.6 148.6">
  <!-- Generator: Adobe Illustrator 29.2.0, SVG Export Plug-In . SVG Version: 2.1.0 Build 108)  -->
  <path d="M87.8,23.7c5.7,0,10.1,1,10.1,1.1h0s0,0,0,0l49.2,11.4h.2s.2,0,.2,0c0,0,6.2,1,12.7,3.9,2.8,1.3,3,3.1,2.8,4.1,0,0,0,.1,0,.2-.2.8-.6,1.9-2.3,3-.8.5-2.1.7-3.8.7s-3.1-.3-3.5-.3c-3.1-1-32-10.2-40-12.5-1.3-.4-2.6-.6-3.9-.6-9.3,0-14.8,9.1-15.6,10.6-1.2,2.1-18.6,31.1-22.1,38.2-3.1,6.2-2.6,9.9-1.9,11.8.6,1.6,2.3,4.7,7.7,6.3.9.3,2,.4,3,.4,5.1,0,10.1-3.4,11-4.1h.2c0-.1.1-.2.1-.2.3-.2,27.3-23.2,36.2-30.4,2.2-1.8,5-2.7,8.3-2.7,4.1,0,7.5,1.5,7.5,1.5h.1s.1,0,.1,0c.4.2,43.1,17.1,51.7,21.6,6.5,3.4,9.4,7.7,9.9,8.5.3.6.6,1.2.8,1.7,1.1,2.2,2.3,4.6,1.3,14-1.3,12.1-17.5,13.2-18.9,13.3H30.2c-7.7,0-12.6-1.9-15.9-12.1-3.1-9.4,3.5-18.3,3.6-18.3h0s0,0,0,0c.4-.5,35.5-47.1,47.8-62.2,5.8-7.1,15.2-8.6,22-8.6M87.8,18.7c-8.2,0-18.9,1.9-25.9,10.4-12.5,15.3-47.9,62.3-47.9,62.3,0,0-8.3,10.8-4.4,22.9,3.9,12.1,10.5,15.6,20.6,15.6h158.8s21.9-.8,23.7-17.7c1.4-13-1.1-14.8-2.6-18.4,0,0-3.2-6-12.1-10.6-8.9-4.7-52.1-21.8-52.1-21.8,0,0-4.2-1.9-9.5-1.9-3.6,0-7.7.9-11.4,3.8-9,7.3-36.3,30.5-36.3,30.5,0,0-4.4,3.2-8.1,3.2s-1.1,0-1.6-.2c-3.9-1.2-4.4-3.2-4.4-3.2,0,0-1.1-2.2,1.7-7.8,3.5-7.1,22-37.9,22-37.9,0,0,4.4-8.1,11.3-8.1s1.7.1,2.5.4c8.3,2.4,40.1,12.6,40.1,12.6,0,0,2.2.5,4.8.5s4.5-.3,6.4-1.5c3.7-2.3,4.3-5.2,4.6-6.1,0-.1,1.8-6.7-5.6-10-7.3-3.3-14.1-4.3-14.1-4.3l-49.2-11.4s-4.8-1.2-11.3-1.2h0Z"/>
</svg>