<?xml version="1.0" encoding="UTF-8"?>
<svg id="Capa_1" xmlns="http://www.w3.org/2000/svg" version="1.1" viewBox="0 0 221.6 148.6">
  <!-- Generator: Adobe Illustrator 29.2.0, SVG Export Plug-In . SVG Version: 2.1.0 Build 108)  -->
  <path d="M174.4,32.8h0c8.8,0,15.6,4.3,15.7,4.4h0s0,0,0,0c0,0,4.8,3,11.4,9.5,8.6,8.4,8.9,21.3,8.9,21.4,0,1.5.3,36.9.4,42.7,0,1.7-.2,2.7-.4,3.2l-.3.4c-.4.2-1.7,1-4.2,1.3-.2,0-.4,0-.6,0-2.1,0-4.4-1.2-5.2-1.7-.3-.2-1.7-1.3-5.5-4.7-6-5.3-10.9-6.1-13.3-6.1s-.5,0-.7,0H31.6c-7.1,0-12.6-2.3-16.3-6.8-2.9-3.5-3.7-7.1-3.7-7.1h0v-.3s-.2-.3-.2-.3c-.1-.3-1.2-4.1-.4-10,1.4-11.1,5.4-16.3,5.7-16.7l.2-.2.2-.4s2.7-4.1,9.5-9.8c6.3-5.3,14.8-6.2,14.9-6.2-.1,0-.3,0-.3,0s0,0,0,0q.4,0,28.9-2.9c19.1-1.9,42.9-4.3,46.4-4.7.3,0,.5,0,.7,0,2.8,0,4,1.8,4.5,2.7.3.9.5,3.9.5,6.4h0s0,.1,0,.1c0,.4-.1,4.4-2.8,9.2-2,3.6-8.2,4.1-8.5,4.1l-52,1.3c-.5,0-1,0-1.4.2-1.3.3-4.9,1.1-9.8,2.8-5.1,1.8-8.8,5.1-10.6,6.9-1.2,1.2-1.8,3-1.6,4.7.2,1.7,1.3,3.3,2.8,4.1,1.7.9,5,2.7,7.6,3.6,3.6,1.2,9.1,1.5,9.7,1.5h.1s.1,0,.1,0c.8,0,83.6-.1,89.3-.1s10.8-7.3,10.8-14.1h0s0,0,0,0l-.3-24.2c0-1.2.8-9.7,11.3-12.9,2.4-.7,4.9-1.1,7.5-1.1M200.1,114.1h0s0,0,0,0c0,0,0,0,0,0M174.4,27.8c-2.8,0-5.8.4-8.9,1.3-14.6,4.5-14.8,17.6-14.8,17.6l.3,24.4s0,9.1-5.8,9.1-89.3.1-89.3.1c0,0-5.3-.2-8.3-1.3-2.3-.8-5.5-2.5-6.8-3.2-.3-.2-.4-.7-.1-.9,1.2-1.2,4.4-4.1,8.7-5.7,4.6-1.7,8-2.4,9-2.6.2,0,.4,0,.6,0l52.1-1.3s9.1-.3,12.7-6.6c3.6-6.3,3.4-11.7,3.4-11.7,0,0,0-6.4-1-8.4-.9-1.9-3.6-5.6-9-5.6s-.8,0-1.2,0c-6.3.6-74.6,7.5-74.8,7.5s-10.2,1-17.7,7.4c-7.5,6.3-10.5,10.9-10.5,10.9,0,0-5.3,5.9-6.9,19.4-.9,7.6.7,12.3.7,12.3,0,0,3.6,17.9,24.9,17.9h149.3s.2,0,.5,0c1.3,0,5,.4,10,4.8,4.8,4.2,5.9,5,5.9,5,0,0,3.8,2.5,8,2.5s.8,0,1.3,0c5.1-.7,7.1-2.7,7.1-2.7,0,0,2.4-1.5,2.2-7.3-.1-5.8-.4-42.6-.4-42.6,0,0,0-14.9-10.4-24.9-7.2-7-12.3-10.2-12.3-10.2,0,0-7.9-5.2-18.4-5.2h0Z"/>
</svg>