<?xml version="1.0" encoding="UTF-8"?>
<svg id="Capa_1" xmlns="http://www.w3.org/2000/svg" version="1.1" viewBox="0 0 221.6 148.6">
  <!-- Generator: Adobe Illustrator 29.2.0, SVG Export Plug-In . SVG Version: 2.1.0 Build 108)  -->
  <defs>
    <style>
      .st0 {
        fill: none;
        stroke: #000;
        stroke-miterlimit: 10;
        stroke-width: 5px;
      }
    </style>
  </defs>
  <path class="st0" d="M43.5,120.6c.9-.4,138.2-58,138.2-58,0,0,5-1.9,13.5-9.8,8.5-7.9,13.8-12.7,14-12.8s6.9-7.4,4.2-15.9c-2.7-8.5-5.7-11.9-9-12.8,0,0-3.6-2.6-12.3.2-8.7,2.8-15.8,5.4-15.8,5.4,0,0-5.4,1.7-7.8,8.3-2.4,6.6-2.3,7.5-2.3,7.5,0,0-2.6,7.4-10.7,8.4s-59.8,6.6-59.8,6.6c0,0-2.8.5-7.1-1.7-4.4-2.2-6-2.9-6-2.9,0,0-5.7-2.2-11,3.7S10,118.6,10,118.6c0,0-5.4,7.9.5,14,5.8,6.1,8.4,6,8.4,6,0,0,8.2.9,12.9-6.1,3.1-4.6,6.4-8.1,6.4-8.1l5.3-3.8Z"/>
</svg>