<?xml version="1.0" encoding="UTF-8"?>
<svg id="Capa_1" xmlns="http://www.w3.org/2000/svg" version="1.1" viewBox="0 0 221.6 148.6">
  <!-- Generator: Adobe Illustrator 29.2.0, SVG Export Plug-In . SVG Version: 2.1.0 Build 108)  -->
  <defs>
    <style>
      .st0 {
        fill: none;
        stroke: #000;
        stroke-miterlimit: 10;
        stroke-width: 5px;
      }
    </style>
  </defs>
  <path class="st0" d="M70.5,25.1c5.2,5.3,5.8,13.6,5.8,13.6,0,0-.7,43.8-.8,46.9s.9,5.2,2.4,6.9c1.5,1.8,8.1,3,8.1,3,0,0,46.6,0,49.2,0,2.6,0,4.8-1.1,4.8-1.1,0,0,1.3-.4,2.5-4.1,1.3-3.6-1.1-7.5-1.1-7.5l-39.3-58.3s-3.9-7.4,2.3-12.4c6.2-5,13.5-4.8,13.5-4.8,0,0,30.4,0,36,.4,0,0,17.3.5,27.3,16.9,5.3,8.8,6.3,23,6.3,23,0,0,.6,82.6,0,87.2s-3.3,6.2-6.3,6.6c-3,.4-5.8-1.7-5.8-1.7,0,0-.3.7-3.7-6s-10.4-5.6-10.4-5.6c0,0-95.8.1-97.3,0-13-1.1-17.5-5.5-22.8-13-5.3-7.5-4.3-23.2-4.3-23.2v-45.5c.1,0-.5-6.4,1-14.8s10.7-11.3,10.9-11.4c0,0,12.2-5,21.8,4.9Z"/>
</svg>