<?xml version="1.0" encoding="UTF-8"?>
<svg id="Capa_1" xmlns="http://www.w3.org/2000/svg" version="1.1" viewBox="0 0 221.6 148.6">
  <!-- Generator: Adobe Illustrator 29.2.0, SVG Export Plug-In . SVG Version: 2.1.0 Build 108)  -->
  <defs>
    <style>
      .st0 {
        fill: #010203;
      }
    </style>
  </defs>
  <path class="st0" d="M204.7,11.5c1.1,0,2.5.3,2.3,2-.2,2.8-2.6,7.4-2.6,7.4,0,0-1.4,2.5-2.1,3.3-.7.7-1.6,2.3-6.3,5.1-4.6,2.8-31.8,17.9-31.8,17.9,0,0-7.7,4.8-8.5,11.1-.8,6.2,1.1,8.7,1.1,8.7l2.3,4.3s1.4,4.3.5,6.1c-.9,1.8-1.5,2.7-1.5,2.7,0,0-1.3,1.6-4,1.7-2.7.2-6.4.5-6.4.5,0,0-9.1.9-14.9,4.1-5.7,3.2-11,6.4-11,6.4,0,0-5.3,3.4-5.9,5.5-.6,2.2-.7,4.4-.7,4.4,0,0,1,3.7,1.6,5.1.5,1,2.8,6.2,4,8.8.3.7-.1,1.6-.9,1.7l-93.9,14.3s-3.8.9-6.5,2.7c-2.7,1.8-3.1,1.9-3.1,1.9,0,0,0,0-.1,0-.4,0-1.8,0-1.8-1.4,0-1.5.8-11.1.8-11.1,0,0,0-1.2,2.3-1.5,2.2-.2,40.8-5.8,40.8-5.8,0,0,11.4-2.1,13.2-3,1.8-.9,4-3,4-3,0,0,2.4-3.1,2.5-3.5,0-.4,1.4-1.8,2.8-1.8s1,.2,1.4.6c1.9,1.7,2.9,2.7,2.9,2.7,0,0,2.8,2.4,5.7,2.4s1.4-.2,2.1-.5c3.4-1.9,6.8-5.3,6.8-5.3,0,0,3.4-4.5,3.9-9.2.5-4.7,0-6.7,0-6.7l-.6-2.3s-1.5-4.8.2-7.4c1.7-2.6,4.4-5.2,4.5-5.2s0,0,0,0h0c0,0,4.5-4.3,4.8-6.7.3-2.3,0-3.5,0-3.5,0,0-.8-3.4-3.3-4-1.2-.3-2.3-.3-3.3-.3-1.2,0-2,.1-2,.1l-76.3,23s-.7.2-1.3.2-1.2-.2-.9-1c.7-1.5,2.5-4,2.5-4,0,0,2.5-4.1,2.7-6.7.2-2.6.6-3.3.6-3.3,0,0,.5-.8,2.9-1.6L203.5,11.6s.6-.1,1.3-.1M204.7,6.5c-1.2,0-2.1.2-2.4.3h-.2c0,0-.2.1-.2.1L32.7,62.7c-2.8.9-4.7,2.2-5.7,3.8h0c0,.1,0,.3,0,.3-.3.7-.8,1.9-1.1,5.1,0,.7-1,2.8-1.9,4.3-.6.8-2.2,3-2.9,4.8-.8,1.8-.7,3.8.3,5.4.6,1,2.1,2.6,5.1,2.6s2.2-.2,2.5-.3h.1s.1,0,.1,0l75.8-22.8c.2,0,.6,0,1,0s1.1,0,1.6.1c0,.1.1.2.1.3,0,.2,0,.6,0,1.4-.4.9-2.1,2.8-3.1,3.7-.7.5-1.3,1.2-2.1,2.1-.9,1-2.3,2.6-3.4,4.2-2.8,4.2-1.3,10-.8,11.5l.5,1.9c0,.4.2,2.1-.1,5.2-.2,2.4-1.9,5.2-2.7,6.4-1,1-3.2,2.9-5.2,4.1-.5,0-1.5-.6-2.2-1.1-.5-.5-1.5-1.5-3-2.8-1.4-1.2-3-1.8-4.7-1.8-3.2,0-6.2,2.3-7.3,4.6-.3.4-1,1.4-1.7,2.3-.7.6-1.7,1.5-2.4,1.8-1.3.5-7.1,1.7-11.8,2.5-15.4,2.2-38.9,5.5-40.5,5.7-4.4.5-6.6,3.4-6.8,6.1-.2,2.3-.8,9.9-.8,11.5,0,3.6,2.9,6.3,6.8,6.3s.4,0,.4,0h.3s.4,0,.4,0c.8-.2,1.6-.4,4.8-2.6,1.4-1,3.7-1.7,4.7-1.9l93.7-14.2c1.9-.3,3.6-1.5,4.5-3.2.9-1.7,1-3.8.2-5.6-2.2-4.8-3.7-8-4-8.7-.2-.5-.7-2-1.1-3.5,0-.6.2-1.4.4-2.2.7-.8,2.5-2.2,3.9-3.1,0,0,5.2-3.2,10.7-6.3,3.9-2.2,10.7-3.3,13-3.5,0,0,3.6-.4,6.2-.5,4.6-.3,7.1-3,7.6-3.5v-.2c.1,0,.2-.2.2-.2.1-.2.8-1.2,1.9-3.3,1.6-3.2.5-7.6-.3-9.9v-.4c-.1,0-.3-.3-.3-.3l-2.3-4.3-.2-.4h0c-.2-.5-.7-2.1-.3-5.3.4-2.8,4.2-6.2,6.1-7.4,2.4-1.3,27.3-15.2,31.8-17.9,4.8-2.9,6.4-4.8,7.3-5.8,0,0,.1-.1.2-.2.9-1,2-2.8,2.7-4.2h0c0,0,0-.2,0-.2.5-.9,2.8-5.7,3.1-9.2.2-2-.4-3.8-1.7-5.2-.9-1-2.7-2.3-5.6-2.3h0Z"/>
</svg>